<svg width="38" height="38" viewBox="0 0 38 38" fill="none" xmlns="http://www.w3.org/2000/svg">
<path d="M13.6133 18.7832C13.6133 17.6792 13.8605 16.7353 14.3551 15.9514C14.8496 15.1675 15.526 14.5756 16.3842 14.1756C17.1696 13.8076 18.137 13.5438 19.2862 13.3836C19.6788 13.3357 20.3188 13.2716 21.2061 13.1915V12.7836C21.2061 11.7597 21.1044 11.0718 20.9006 10.7197C20.5952 10.2396 20.1153 9.99984 19.4606 9.99984H19.2862C18.8061 10.0477 18.3914 10.2157 18.0424 10.5036C17.6934 10.7917 17.4678 11.1915 17.366 11.7036C17.3078 12.0235 17.1625 12.2074 16.9297 12.2555L14.4205 11.9195C14.1732 11.8555 14.0496 11.7116 14.0496 11.4875C14.0496 11.4396 14.0568 11.3835 14.0713 11.3197C14.3186 9.89586 14.9258 8.83999 15.8932 8.1519C16.8604 7.46424 17.9914 7.08013 19.2862 7H19.8317C21.4895 7 22.7843 7.47197 23.7155 8.41592C23.8612 8.57661 23.9964 8.7489 24.119 8.93172C24.2423 9.11561 24.3407 9.27974 24.4132 9.42367C24.486 9.56761 24.5517 9.77577 24.6097 10.0475C24.6681 10.3197 24.7114 10.5077 24.7409 10.6114C24.7698 10.7154 24.7917 10.9395 24.8061 11.2836C24.8206 11.6276 24.8278 11.8314 24.8278 11.8955V17.7031C24.8278 18.119 24.8823 18.499 24.9915 18.843C25.1007 19.1871 25.2063 19.435 25.3077 19.5869C25.4095 19.7388 25.5771 19.983 25.8097 20.3186C25.897 20.463 25.9405 20.591 25.9405 20.7029C25.9405 20.831 25.8825 20.9425 25.7657 21.0387C24.5587 22.1908 23.9042 22.8149 23.8022 22.9109C23.6278 23.0548 23.4169 23.0707 23.1694 22.9588C22.9661 22.7665 22.788 22.5829 22.635 22.4067C22.4825 22.231 22.3733 22.1029 22.3077 22.0228C22.2425 21.9431 22.1368 21.7869 21.9915 21.5549C21.8462 21.3229 21.7438 21.1667 21.686 21.087C20.8715 22.063 20.0715 22.6709 19.2862 22.9109C18.7914 23.0707 18.1805 23.1509 17.4534 23.1509C16.3332 23.1509 15.4133 22.7706 14.6934 22.0108C13.9732 21.2507 13.6133 20.1749 13.6133 18.7832ZM17.366 18.3031C17.366 18.9272 17.508 19.4271 17.7914 19.803C18.0752 20.179 18.4569 20.3669 18.937 20.3669C18.9807 20.3669 19.0424 20.359 19.1225 20.3431C19.2022 20.3268 19.2569 20.3188 19.2862 20.3188C19.8969 20.1431 20.3696 19.7113 20.7042 19.0232C20.8643 18.7192 20.9842 18.3873 21.0643 18.0273C21.1444 17.6674 21.188 17.3753 21.1952 17.1512C21.2024 16.9273 21.2063 16.5593 21.2063 16.0474V15.4474C20.3626 15.4474 19.7227 15.5114 19.2864 15.6395C18.0059 16.0393 17.366 16.9271 17.366 18.3031Z" fill="black"/>
<path d="M26.5273 26.0318C26.5566 25.9676 26.6002 25.9038 26.6586 25.8395C27.022 25.5675 27.3711 25.3838 27.7056 25.2878C28.2584 25.128 28.7967 25.0399 29.3201 25.0238C29.4658 25.0074 29.6039 25.0158 29.7348 25.0476C30.3894 25.1114 30.7818 25.2317 30.9131 25.4077C30.9711 25.5037 31 25.6477 31 25.8395V26.0077C31 26.5674 30.8619 27.2276 30.5857 27.9875C30.3092 28.7474 29.9238 29.3597 29.4291 29.8238C29.3566 29.8876 29.291 29.9194 29.233 29.9194C29.2037 29.9194 29.1746 29.9114 29.1457 29.8955C29.0584 29.8476 29.0365 29.7595 29.0801 29.6315C29.6183 28.2395 29.8873 27.2717 29.8873 26.7272C29.8873 26.5515 29.8584 26.4235 29.8004 26.3433C29.6547 26.1515 29.2476 26.0554 28.5785 26.0554C28.3308 26.0554 28.0402 26.0713 27.7056 26.1033C27.3422 26.1517 27.0076 26.1994 26.7019 26.2477C26.6146 26.2477 26.5566 26.2314 26.5271 26.1994C26.4982 26.1676 26.4908 26.1356 26.5054 26.1033C26.5054 26.0877 26.5127 26.0636 26.5273 26.0318ZM7.04356 25.624C7.11641 25.496 7.23262 25.488 7.39278 25.5998C11.0291 27.9198 14.9856 29.08 19.2618 29.08C22.113 29.08 24.9275 28.4958 27.7056 27.3277C27.7781 27.2959 27.8838 27.248 28.0219 27.1838C28.1603 27.12 28.2584 27.0719 28.3164 27.0398C28.5346 26.9438 28.7055 26.9919 28.8291 27.1838C28.9531 27.3761 28.9131 27.5518 28.7094 27.7117C28.4472 27.9198 28.1127 28.1598 27.7056 28.4318C26.4548 29.248 25.0582 29.8798 23.5163 30.328C21.9747 30.7762 20.4691 30.9998 19.0001 30.9998C16.7309 30.9998 14.5854 30.5639 12.5637 29.6919C10.5418 28.8198 8.73087 27.5916 7.13086 26.008C7.04356 25.9278 7 25.8477 7 25.7678C7 25.7196 7.01445 25.6717 7.04356 25.624Z" fill="#FF9900"/>
</svg>
