<svg width="87" height="63" viewBox="0 0 87 63" fill="none" xmlns="http://www.w3.org/2000/svg">
<path fill-rule="evenodd" clip-rule="evenodd" d="M75.0899 0.00976562H6.39313C3.14404 0.00976562 0.5 2.65381 0.5 5.9029V44.42C0.5 47.6691 3.14404 50.3132 6.39313 50.3132H74.987C78.2361 50.3132 80.8801 47.6691 80.8801 44.42V6.00576C80.8801 2.65381 78.339 0.00976562 75.0899 0.00976562Z" fill="#1B6163"/>
<path d="M72.4452 31.6536H60.6408C59.9724 31.6536 59.4307 32.1953 59.4307 32.8637V34.3279C59.4307 34.9962 59.9724 35.538 60.6408 35.538H72.4452C73.1135 35.538 73.6553 34.9962 73.6553 34.3279V32.8637C73.6553 32.1953 73.1135 31.6536 72.4452 31.6536Z" fill="white"/>
<path d="M55.1893 31.6536H43.3849C42.7166 31.6536 42.1748 32.1953 42.1748 32.8637V34.3279C42.1748 34.9962 42.7166 35.538 43.3849 35.538H55.1893C55.8576 35.538 56.3994 34.9962 56.3994 34.3279V32.8637C56.3994 32.1953 55.8576 31.6536 55.1893 31.6536Z" fill="white"/>
<path d="M37.9276 31.6536H26.1232C25.4549 31.6536 24.9131 32.1953 24.9131 32.8637V34.3279C24.9131 34.9962 25.4549 35.538 26.1232 35.538H37.9276C38.5959 35.538 39.1377 34.9962 39.1377 34.3279V32.8637C39.1377 32.1953 38.5959 31.6536 37.9276 31.6536Z" fill="white"/>
<path d="M20.6659 31.6536H8.86146C8.19314 31.6536 7.65137 32.1953 7.65137 32.8637V34.3279C7.65137 34.9962 8.19314 35.538 8.86146 35.538H20.6659C21.3342 35.538 21.876 34.9962 21.876 34.3279V32.8637C21.876 32.1953 21.3342 31.6536 20.6659 31.6536Z" fill="white"/>
<path d="M19.1714 16.3822H10.0292C8.71596 16.3822 7.65137 17.4468 7.65137 18.76V24.0723C7.65137 25.3856 8.71596 26.4501 10.0292 26.4501H19.1714C20.4846 26.4501 21.5492 25.3856 21.5492 24.0723V18.76C21.5492 17.4468 20.4846 16.3822 19.1714 16.3822Z" fill="white"/>
<path fill-rule="evenodd" clip-rule="evenodd" d="M77.6976 33.0936C76.2152 32.3615 74.6663 31.8835 73.1053 31.6475L70.8727 28.1866L69.2209 31.5386C63.9691 32.0468 59.0924 35.187 56.5876 40.2694C52.7395 48.0805 55.9523 57.5252 63.7634 61.3733C71.5745 65.2214 81.0253 62.0086 84.8734 54.1975C88.7215 46.3864 85.5087 36.9356 77.6976 33.0875V33.0936ZM64.6286 59.6248C57.7916 56.2547 54.9781 47.9776 58.3422 41.1346C61.7062 34.2915 69.9893 31.4841 76.8323 34.8482C83.6754 38.2122 86.4889 46.4953 83.1188 53.3383C79.7487 60.1814 71.4717 62.9948 64.6286 59.6248Z" fill="#252324"/>
<path d="M70.7261 61.0463C78.3515 61.0463 84.5332 54.8647 84.5332 47.2392C84.5332 39.6138 78.3515 33.4321 70.7261 33.4321C63.1006 33.4321 56.9189 39.6138 56.9189 47.2392C56.9189 54.8647 63.1006 61.0463 70.7261 61.0463Z" fill="#1B6163"/>
<path d="M71.3018 18.7601H59.2977C57.9845 18.7601 56.9199 19.8247 56.9199 21.138V24.0724C56.9199 25.3857 57.9845 26.4502 59.2977 26.4502H71.3018C72.6151 26.4502 73.6796 25.3857 73.6796 24.0724V21.138C73.6796 19.8247 72.6151 18.7601 71.3018 18.7601Z" fill="white"/>
<path d="M58.6201 21.1803V21.8761L59.6003 21.2529H59.6245V24.7016H60.3869V20.5087H59.6608L58.6201 21.1803Z" fill="#1F1F1F"/>
<path d="M62.4987 24.0421L63.2187 23.304C63.4909 23.0438 63.7027 22.8199 63.854 22.6324C64.0052 22.4509 64.1081 22.2815 64.1686 22.1302C64.2291 21.9789 64.2593 21.8277 64.2593 21.6704C64.2593 21.4344 64.1988 21.2287 64.0839 21.0411C63.9629 20.8596 63.7995 20.7144 63.5877 20.6115C63.376 20.5087 63.1279 20.4542 62.8496 20.4542C62.5713 20.4542 62.3293 20.5087 62.1114 20.6176C61.8997 20.7265 61.7303 20.8778 61.6092 21.0714C61.4882 21.265 61.4277 21.5009 61.4277 21.7672H62.1477C62.1477 21.622 62.178 21.5009 62.2324 21.3981C62.2869 21.2952 62.3716 21.2166 62.4745 21.1561C62.5773 21.0956 62.6983 21.0714 62.8375 21.0714C62.9766 21.0714 63.0916 21.0956 63.1945 21.15C63.2973 21.2045 63.382 21.2771 63.4425 21.3678C63.503 21.4646 63.5333 21.5736 63.5333 21.7067C63.5333 21.8216 63.5091 21.9305 63.4607 22.0334C63.4123 22.1362 63.3457 22.2391 63.255 22.348C63.1642 22.4569 63.0432 22.584 62.904 22.7231L61.4459 24.151V24.7016H64.3199V24.0663H62.4926V24.0361L62.4987 24.0421Z" fill="#1F1F1F"/>
<path d="M67.1758 22.5537V22.5235C67.3997 22.4751 67.5873 22.3722 67.7264 22.2089C67.8656 22.0515 67.9382 21.8519 67.9321 21.6159C67.9321 21.4041 67.8777 21.2105 67.7627 21.0351C67.6478 20.8596 67.4904 20.7204 67.2847 20.6115C67.079 20.5087 66.837 20.4542 66.5526 20.4542C66.2683 20.4542 66.0383 20.5026 65.8145 20.6055C65.5967 20.7083 65.4212 20.8475 65.2941 21.023C65.161 21.1984 65.0945 21.4102 65.0884 21.6401H65.8205C65.8205 21.5252 65.8629 21.4223 65.9294 21.3376C65.996 21.2529 66.0867 21.1863 66.1957 21.1379C66.3046 21.0895 66.4256 21.0653 66.5526 21.0653C66.6797 21.0653 66.8007 21.0895 66.8975 21.1379C66.9943 21.1863 67.073 21.2529 67.1274 21.3436C67.1819 21.4344 67.2061 21.5373 67.2061 21.6522C67.2061 21.7732 67.1758 21.8821 67.1153 21.9729C67.0548 22.0636 66.9641 22.1362 66.8551 22.1847C66.7462 22.2331 66.6192 22.2633 66.474 22.2633H66.1049V22.8502H66.474C66.6494 22.8502 66.8007 22.8805 66.9278 22.9349C67.0548 22.9894 67.1516 23.068 67.2182 23.1648C67.2847 23.2616 67.315 23.3705 67.315 23.4976C67.315 23.6186 67.2847 23.7275 67.2182 23.8243C67.1516 23.9211 67.0609 23.9937 66.9459 24.0421C66.8309 24.0966 66.6978 24.1208 66.5466 24.1208C66.4074 24.1208 66.2804 24.0966 66.1654 24.0542C66.0504 24.0119 65.9597 23.9453 65.8931 23.8606C65.8266 23.7759 65.7903 23.6791 65.7782 23.5642H65.0098C65.0158 23.8001 65.0884 24.0058 65.2215 24.1873C65.3546 24.3689 65.5362 24.508 65.7661 24.6109C65.996 24.7137 66.2562 24.7621 66.5526 24.7621C66.8491 24.7621 67.1214 24.7077 67.3513 24.6048C67.5873 24.502 67.7688 24.3568 67.9019 24.1692C68.035 23.9816 68.1015 23.7759 68.1015 23.5399C68.1015 23.2798 68.0229 23.0559 67.8656 22.8805C67.7083 22.705 67.4844 22.5961 67.1879 22.5537H67.1758Z" fill="#1F1F1F"/>
<path d="M71.9799 23.304H71.4414V20.5148H70.4976L68.7188 23.3282V23.9333H70.7214V24.7138H71.4475V23.9333H71.986V23.3101L71.9799 23.304ZM69.4993 23.2738L70.6972 21.3739H70.7275V23.304H69.4993V23.2738Z" fill="#1F1F1F"/>
<path d="M79.5184 41.6123H61.9419C60.0205 41.6123 58.4629 43.1699 58.4629 45.0913V49.3871C58.4629 51.3085 60.0205 52.8661 61.9419 52.8661H79.5184C81.4398 52.8661 82.9974 51.3085 82.9974 49.3871V45.0913C82.9974 43.1699 81.4398 41.6123 79.5184 41.6123Z" fill="white"/>
<path d="M61.4697 45.2607V46.2287L62.8311 45.3575H62.8613V50.1494H63.9141V44.335H62.9158L61.4697 45.2607Z" fill="#1F1F1F"/>
<path d="M66.849 49.2297L67.8533 48.2133C68.2285 47.8502 68.5249 47.5417 68.7306 47.2876C68.9424 47.0334 69.0876 46.7975 69.1663 46.5917C69.251 46.38 69.2933 46.1682 69.2933 45.9504C69.2933 45.6237 69.2086 45.3333 69.0453 45.0791C68.8819 44.825 68.652 44.6254 68.3555 44.4801C68.059 44.3349 67.7202 44.2623 67.3269 44.2623C66.9337 44.2623 66.6009 44.3349 66.3044 44.4862C66.0079 44.6375 65.778 44.8492 65.6086 45.1215C65.4392 45.3938 65.3545 45.7144 65.3545 46.0835H66.3589C66.3589 45.8838 66.3952 45.7144 66.4738 45.5692C66.5525 45.424 66.6614 45.3151 66.8066 45.2365C66.9518 45.1578 67.1152 45.1215 67.3088 45.1215C67.5024 45.1215 67.6597 45.1578 67.8049 45.2304C67.9501 45.303 68.0651 45.4059 68.1498 45.539C68.2345 45.6721 68.2769 45.8294 68.2769 46.0109C68.2769 46.1743 68.2466 46.3255 68.18 46.4647C68.1135 46.6039 68.0167 46.7551 67.8896 46.9064C67.7626 47.0576 67.5992 47.2331 67.4056 47.4267L65.3847 49.4052V50.1676H69.372V49.2902H66.8429V49.2479L66.849 49.2297Z" fill="#1F1F1F"/>
<path d="M73.329 47.1666V47.1182C73.6436 47.0516 73.8977 46.9064 74.0913 46.6825C74.2849 46.4587 74.3817 46.1864 74.3817 45.8597C74.3817 45.5632 74.3031 45.297 74.1458 45.0489C73.9885 44.8069 73.7646 44.6133 73.4802 44.4681C73.1958 44.3228 72.857 44.2502 72.4698 44.2502C72.0826 44.2502 71.7558 44.3168 71.4533 44.456C71.1508 44.5951 70.9088 44.7887 70.7273 45.0368C70.5458 45.2849 70.455 45.5692 70.4429 45.896H71.4533C71.4533 45.7326 71.5078 45.5934 71.5985 45.4724C71.6893 45.3514 71.8163 45.2607 71.9676 45.2002C72.1189 45.1397 72.2822 45.1034 72.4637 45.1034C72.6453 45.1034 72.8026 45.1397 72.9417 45.2062C73.0809 45.2728 73.1837 45.3696 73.2563 45.4906C73.329 45.6116 73.3653 45.7568 73.3653 45.9202C73.3653 46.0896 73.3229 46.2348 73.2382 46.3618C73.1535 46.4889 73.0325 46.5857 72.8812 46.6583C72.73 46.7309 72.5484 46.7612 72.3488 46.7612H71.8345V47.5719H72.3488C72.5969 47.5719 72.8026 47.6082 72.978 47.6869C73.1535 47.7656 73.2866 47.8684 73.3774 48.0015C73.4681 48.1346 73.5165 48.2919 73.5165 48.4674C73.5165 48.6368 73.4742 48.7881 73.3834 48.9212C73.2927 49.0543 73.1656 49.1511 73.0083 49.2298C72.8449 49.3024 72.6634 49.3387 72.4577 49.3387C72.2641 49.3387 72.0886 49.3084 71.9313 49.2419C71.774 49.1753 71.6469 49.0845 71.5562 48.9696C71.4594 48.8546 71.411 48.7155 71.3989 48.5582H70.334C70.3461 48.8849 70.4429 49.1753 70.6244 49.4234C70.8059 49.6714 71.06 49.8711 71.3747 50.0103C71.6893 50.1494 72.0523 50.222 72.4637 50.222C72.8752 50.222 73.2503 50.1494 73.571 50.0042C73.8916 49.859 74.1458 49.6593 74.3333 49.3992C74.5209 49.145 74.6116 48.8546 74.6116 48.5279C74.6116 48.1649 74.5027 47.8624 74.2849 47.6143C74.0671 47.3662 73.7525 47.221 73.3411 47.1605L73.329 47.1666Z" fill="#1F1F1F"/>
<path d="M79.9906 48.2012H79.2464V44.335H77.9334L75.4648 48.2314V49.0664H78.2359V50.1434H79.2403V49.0664H79.9845V48.2012H79.9906ZM76.5479 48.1588L78.2057 45.5269H78.2541V48.2012H76.5479V48.1588Z" fill="#1F1F1F"/>
</svg>
