<svg width="16" height="16" viewBox="0 0 16 16" fill="none" xmlns="http://www.w3.org/2000/svg">
    <path
        d="M15.0575 7.685L8.3075 0.935C8.0375 0.665 7.6625 0.5 7.25 0.5H2C1.175 0.5 0.5 1.175 0.5 2V7.25C0.5 7.6625 0.665 8.0375 0.9425 8.315L7.6925 15.065C7.9625 15.335 8.3375 15.5 8.75 15.5C9.1625 15.5 9.5375 15.335 9.8075 15.0575L15.0575 9.8075C15.335 9.5375 15.5 9.1625 15.5 8.75C15.5 8.3375 15.3275 7.955 15.0575 7.685ZM3.125 4.25C2.5025 4.25 2 3.7475 2 3.125C2 2.5025 2.5025 2 3.125 2C3.7475 2 4.25 2.5025 4.25 3.125C4.25 3.7475 3.7475 4.25 3.125 4.25Z"
        fill="#0D5E25" />
</svg>