<svg width="15" height="14" viewBox="0 0 15 14" fill="none" xmlns="http://www.w3.org/2000/svg">
<path d="M10.6812 7.7C11.206 7.7 11.6679 7.413 11.9058 6.979L14.4108 2.436C14.6697 1.974 14.3339 1.4 13.8021 1.4H3.44591L2.78815 0H0.5V1.4H1.89948L4.41855 6.713L3.4739 8.421C2.96309 9.359 3.63484 10.5 4.69844 10.5H13.0953V9.1H4.69844L5.46816 7.7H10.6812ZM4.11066 2.8H12.6125L10.6812 6.3H5.76904L4.11066 2.8ZM4.69844 11.2C3.92873 11.2 3.30596 11.83 3.30596 12.6C3.30596 13.37 3.92873 14 4.69844 14C5.46816 14 6.09792 13.37 6.09792 12.6C6.09792 11.83 5.46816 11.2 4.69844 11.2ZM11.6958 11.2C10.9261 11.2 10.3034 11.83 10.3034 12.6C10.3034 13.37 10.9261 14 11.6958 14C12.4656 14 13.0953 13.37 13.0953 12.6C13.0953 11.83 12.4656 11.2 11.6958 11.2Z" fill="#4E3F09"/>
</svg>
