<svg width="10" height="10" viewBox="0 0 10 10" fill="none" xmlns="http://www.w3.org/2000/svg">
<path d="M8.64933 9.35684C8.84449 9.552 9.16127 9.552 9.35644 9.35684C9.5516 9.16168 9.5516 8.84489 9.35644 8.64973L5.62578 4.91908L9.35788 1.18697C9.55304 0.991813 9.55304 0.675028 9.35788 0.479867C9.16272 0.284706 8.84594 0.284706 8.65078 0.479867L4.91867 4.21197L1.18841 0.481705C0.993248 0.286543 0.676464 0.286544 0.481303 0.481705C0.286142 0.676866 0.286141 0.99365 0.481303 1.18881L4.21157 4.91908L0.479922 8.65072C0.284289 8.84635 0.284761 9.16267 0.479922 9.35783C0.675083 9.55299 0.991396 9.55346 1.18703 9.35783L4.91867 5.62618L8.64933 9.35684Z" fill="#261A1A"/>
</svg>
