<svg width="40" height="40" viewBox="0 0 40 40" fill="none" xmlns="http://www.w3.org/2000/svg">
<path d="M11.6595 32.136C9.35647 32.136 7.40193 31.333 5.76557 29.7421C4.1292 28.1512 3.32617 26.2118 3.32617 23.9087C3.32617 21.939 3.91708 20.1815 5.11405 18.636C6.29587 17.0906 7.85648 16.1057 9.78072 15.6815C10.4171 13.3633 11.6747 11.4693 13.5686 10.0299C15.4625 8.59055 17.6141 7.86328 20.008 7.86328C22.9625 7.86328 25.4625 8.89358 27.5231 10.9542C29.5837 13.0148 30.614 15.5148 30.614 18.4693C32.3565 18.6663 33.7959 19.4239 34.9474 20.7269C36.0989 22.0299 36.6747 23.5451 36.6747 25.2875C36.6747 27.1815 36.008 28.7875 34.6898 30.1209C33.3716 31.4542 31.7504 32.1057 29.8565 32.1057H21.5231V21.2724L22.8868 22.6057C23.1595 22.8784 23.508 23.0299 23.9322 23.0299C24.3565 23.0299 24.705 22.8784 25.008 22.5754C25.2807 22.3027 25.4322 21.939 25.4322 21.5148C25.4322 21.0906 25.2959 20.7269 25.008 20.4542L21.0686 16.5148C20.7656 16.2118 20.4171 16.0603 20.008 16.0603C19.5989 16.0603 19.2504 16.2118 18.9474 16.5148L15.008 20.4542C14.7353 20.7269 14.5837 21.0754 14.5686 21.4996C14.5534 21.9239 14.705 22.2724 15.008 22.5754C15.2807 22.8481 15.6292 22.9996 16.0534 23.0148C16.4777 23.0299 16.8262 22.8936 17.1292 22.6209L18.4928 21.2875V32.1209H11.6747L11.6595 32.136Z" fill="black" fill-opacity="0.65"/>
</svg>
