<svg width="51" height="46" viewBox="0 0 51 46" fill="none" xmlns="http://www.w3.org/2000/svg">
<path d="M44.2136 3.97861V28.9002H24.4579C23.158 28.9002 22.1046 29.9535 22.1046 31.2534V44.196H3.99619C2.0688 44.196 0.5 42.6272 0.5 40.6998V3.97861C0.5 2.05122 2.0688 0.482422 3.99619 0.482422H40.7174C42.6448 0.482422 44.2136 2.05122 44.2136 3.97861Z" fill="#1B6163"/>
<path d="M27.1472 15.8002L22.7321 14.0297C22.4856 13.9288 22.2166 13.9288 21.9813 14.0297L17.5663 15.8002C16.9051 16.0691 16.1768 15.5761 16.1768 14.8589V1.60254H28.5367V14.8589C28.5367 15.5761 27.8083 16.0691 27.1472 15.8002Z" fill="white"/>
<path d="M23.2256 34.4702V31.2429C23.2256 30.5706 23.7747 30.0215 24.447 30.0215H49.2789C49.9513 30.0215 50.5003 30.5706 50.5003 31.2429V44.7794C50.5003 45.4518 49.9513 46.0009 49.2789 46.0009H24.447C23.7747 46.0009 23.2256 45.4518 23.2256 44.7794V34.4702Z" fill="#1B6163"/>
<path d="M24.8506 35.4115V40.6334C27.1253 40.6334 28.6269 42.5832 28.6269 44.4097H44.5615H45.0993C45.0993 42.303 46.8026 40.611 48.8869 40.611V40.0843V35.4115V35.3779C46.6121 35.3779 45.1105 33.4281 45.1105 31.6016H45.0881H28.6381C28.6381 33.7082 26.9349 35.4003 24.8506 35.4003V35.4115Z" fill="white"/>
<path d="M36.2241 41.1483C37.9507 41.1483 39.3505 39.7486 39.3505 38.0219C39.3505 36.2952 37.9507 34.8955 36.2241 34.8955C34.4974 34.8955 33.0977 36.2952 33.0977 38.0219C33.0977 39.7486 34.4974 41.1483 36.2241 41.1483Z" fill="#1B6163"/>
</svg>
