<svg xmlns="http://www.w3.org/2000/svg" width="52" height="52" viewBox="0 0 52 52" fill="none">
  <path d="M45.8778 20.8853C45.112 20.085 44.3198 19.2603 44.0212 18.5352C43.745 17.8709 43.7287 16.77 43.7125 15.7036C43.682 13.7211 43.6495 11.4745 42.0875 9.9125C40.5255 8.35047 38.2789 8.31797 36.2964 8.2875C35.23 8.27125 34.1291 8.255 33.4648 7.97875C32.7417 7.68016 31.915 6.88797 31.1147 6.12219C29.7131 4.77547 28.1206 3.25 26 3.25C23.8794 3.25 22.2889 4.77547 20.8853 6.12219C20.085 6.88797 19.2603 7.68016 18.5352 7.97875C17.875 8.255 16.77 8.27125 15.7036 8.2875C13.7211 8.31797 11.4745 8.35047 9.9125 9.9125C8.35047 11.4745 8.32812 13.7211 8.2875 15.7036C8.27125 16.77 8.255 17.8709 7.97875 18.5352C7.68016 19.2583 6.88797 20.085 6.12219 20.8853C4.77547 22.2889 3.25 23.8794 3.25 26C3.25 28.1206 4.77547 29.7111 6.12219 31.1147C6.88797 31.915 7.68016 32.7397 7.97875 33.4648C8.255 34.1291 8.27125 35.23 8.2875 36.2964C8.31797 38.2789 8.35047 40.5255 9.9125 42.0875C11.4745 43.6495 13.7211 43.682 15.7036 43.7125C16.77 43.7287 17.8709 43.745 18.5352 44.0212C19.2583 44.3198 20.085 45.112 20.8853 45.8778C22.2869 47.2245 23.8794 48.75 26 48.75C28.1206 48.75 29.7111 47.2245 31.1147 45.8778C31.915 45.112 32.7397 44.3198 33.4648 44.0212C34.1291 43.745 35.23 43.7287 36.2964 43.7125C38.2789 43.682 40.5255 43.6495 42.0875 42.0875C43.6495 40.5255 43.682 38.2789 43.7125 36.2964C43.7287 35.23 43.745 34.1291 44.0212 33.4648C44.3198 32.7417 45.112 31.915 45.8778 31.1147C47.2245 29.7111 48.75 28.1206 48.75 26C48.75 23.8794 47.2245 22.2889 45.8778 20.8853ZM43.5317 28.8661C43.5297 28.8682 43.5277 28.8703 43.5257 28.8724C42.5546 29.8861 41.5501 30.9345 41.017 32.2217C40.5052 33.4608 40.4828 34.8766 40.4625 36.2477C40.4422 37.6695 40.4198 39.1584 39.7881 39.7881C39.1564 40.4178 37.6777 40.4422 36.2477 40.4625C34.8766 40.4828 33.4608 40.5052 32.2217 41.017C30.9345 41.5501 29.8861 42.5546 28.8724 43.5257C28.8703 43.5277 28.8682 43.5297 28.8661 43.5317L28.8624 43.5352C27.848 44.5071 26.8115 45.5 26 45.5C25.1875 45.5 24.1414 44.5006 23.1339 43.5317C22.1264 42.5628 21.0681 41.5512 19.7783 41.017C18.5392 40.5052 17.1234 40.4828 15.7523 40.4625C14.3305 40.4422 12.8416 40.4198 12.2119 39.7881C11.5822 39.1564 11.5578 37.6777 11.5375 36.2477C11.5172 34.8766 11.4948 33.4608 10.983 32.2217C10.4498 30.9345 9.44539 29.886 8.47429 28.8724C8.47228 28.8703 8.47028 28.8682 8.46828 28.8661L8.46477 28.8624C7.49292 27.848 6.5 26.8115 6.5 26C6.5 25.1875 7.49937 24.1434 8.46828 23.1339C9.43719 22.1244 10.4488 21.0681 10.983 19.7783C11.4948 18.5392 11.5172 17.1234 11.5375 15.7523C11.5578 14.3305 11.5802 12.8416 12.2119 12.2119C12.8436 11.5822 14.3223 11.5578 15.7523 11.5375C17.1234 11.5172 18.5392 11.4948 19.7783 10.983C21.0655 10.4498 22.114 9.4454 23.1276 8.47429C23.1297 8.47229 23.1318 8.47028 23.1339 8.46828L23.1376 8.46477C24.152 7.49292 25.1885 6.5 26 6.5C26.8125 6.5 27.8586 7.49937 28.8661 8.46828C29.8736 9.43719 30.9319 10.4488 32.2217 10.983C33.4608 11.4948 34.8766 11.5172 36.2477 11.5375C37.6695 11.5578 39.1584 11.5802 39.7881 12.2119C40.4178 12.8436 40.4422 14.3223 40.4625 15.7523C40.4828 17.1234 40.5052 18.5392 41.017 19.7783C41.5501 21.0655 42.5546 22.1139 43.5257 23.1276C43.5277 23.1297 43.5297 23.1318 43.5317 23.1339L43.5352 23.1376C44.5071 24.152 45.5 25.1885 45.5 26C45.5 26.8125 44.5006 27.8566 43.5317 28.8661ZM24.375 19.5C24.375 18.5358 24.0891 17.5933 23.5534 16.7916C23.0177 15.9899 22.2564 15.3651 21.3656 14.9961C20.4748 14.6271 19.4946 14.5306 18.5489 14.7187C17.6033 14.9068 16.7346 15.3711 16.0529 16.0529C15.3711 16.7346 14.9068 17.6033 14.7187 18.5489C14.5306 19.4946 14.6271 20.4748 14.9961 21.3656C15.3651 22.2564 15.9899 23.0177 16.7916 23.5534C17.5933 24.0891 18.5358 24.375 19.5 24.375C20.7929 24.375 22.0329 23.8614 22.9471 22.9471C23.8614 22.0329 24.375 20.7929 24.375 19.5ZM17.875 19.5C17.875 19.1786 17.9703 18.8644 18.1489 18.5972C18.3274 18.33 18.5812 18.1217 18.8781 17.9987C19.1751 17.8757 19.5018 17.8435 19.817 17.9062C20.1322 17.9689 20.4218 18.1237 20.649 18.351C20.8763 18.5782 21.0311 18.8678 21.0938 19.183C21.1565 19.4982 21.1243 19.8249 21.0013 20.1219C20.8783 20.4188 20.67 20.6726 20.4028 20.8511C20.1356 21.0297 19.8214 21.125 19.5 21.125C19.069 21.125 18.6557 20.9538 18.351 20.649C18.0462 20.3443 17.875 19.931 17.875 19.5ZM32.5 27.625C31.5358 27.625 30.5933 27.9109 29.7916 28.4466C28.9899 28.9823 28.3651 29.7436 27.9961 30.6344C27.6271 31.5252 27.5306 32.5054 27.7187 33.4511C27.9068 34.3967 28.3711 35.2654 29.0529 35.9471C29.7346 36.6289 30.6033 37.0932 31.5489 37.2813C32.4946 37.4694 33.4748 37.3729 34.3656 37.0039C35.2564 36.6349 36.0177 36.0101 36.5534 35.2084C37.0891 34.4067 37.375 33.4642 37.375 32.5C37.375 31.2071 36.8614 29.9671 35.9471 29.0529C35.0329 28.1386 33.7929 27.625 32.5 27.625ZM32.5 34.125C32.1786 34.125 31.8644 34.0297 31.5972 33.8511C31.33 33.6726 31.1217 33.4188 30.9987 33.1219C30.8757 32.8249 30.8435 32.4982 30.9062 32.183C30.9689 31.8678 31.1237 31.5782 31.351 31.351C31.5782 31.1237 31.8678 30.9689 32.183 30.9062C32.4982 30.8435 32.8249 30.8757 33.1219 30.9987C33.4188 31.1217 33.6726 31.33 33.8511 31.5972C34.0297 31.8644 34.125 32.1786 34.125 32.5C34.125 32.931 33.9538 33.3443 33.649 33.649C33.3443 33.9538 32.931 34.125 32.5 34.125ZM35.2747 19.0247L19.0247 35.2747C18.8737 35.4257 18.6945 35.5454 18.4972 35.6271C18.2999 35.7088 18.0885 35.7509 17.875 35.7509C17.6615 35.7509 17.4501 35.7088 17.2528 35.6271C17.0555 35.5454 16.8763 35.4257 16.7253 35.2747C16.5743 35.1237 16.4546 34.9445 16.3729 34.7472C16.2912 34.5499 16.2491 34.3385 16.2491 34.125C16.2491 33.9115 16.2912 33.7001 16.3729 33.5028C16.4546 33.3055 16.5743 33.1263 16.7253 32.9753L32.9753 16.7253C33.1263 16.5743 33.3055 16.4546 33.5028 16.3729C33.7001 16.2912 33.9115 16.2491 34.125 16.2491C34.3385 16.2491 34.5499 16.2912 34.7472 16.3729C34.9445 16.4546 35.1237 16.5743 35.2747 16.7253C35.4257 16.8763 35.5454 17.0555 35.6271 17.2528C35.7088 17.4501 35.7509 17.6615 35.7509 17.875C35.7509 18.0885 35.7088 18.2999 35.6271 18.4972C35.5454 18.6945 35.4257 18.8737 35.2747 19.0247Z" fill="#169256"/>
  <path fill-rule="evenodd" clip-rule="evenodd" d="M43.5317 28.8661L43.5257 28.8724C42.5546 29.8861 41.5501 30.9345 41.017 32.2217C40.5052 33.4608 40.4828 34.8766 40.4625 36.2477C40.4422 37.6695 40.4198 39.1584 39.7881 39.7881C39.1564 40.4178 37.6777 40.4422 36.2477 40.4625C34.8766 40.4828 33.4608 40.5052 32.2217 41.017C30.9345 41.5501 29.8861 42.5546 28.8724 43.5257L28.8661 43.5317L28.8624 43.5352C27.848 44.5071 26.8115 45.5 26 45.5C25.1875 45.5 24.1414 44.5006 23.1339 43.5317C22.1264 42.5628 21.0681 41.5512 19.7783 41.017C18.5392 40.5052 17.1234 40.4828 15.7523 40.4625C14.3305 40.4422 12.8416 40.4198 12.2119 39.7881C11.5822 39.1564 11.5578 37.6777 11.5375 36.2477C11.5172 34.8766 11.4948 33.4608 10.983 32.2217C10.4498 30.9345 9.44539 29.886 8.47429 28.8724L8.46828 28.8661L8.46477 28.8624C7.49292 27.848 6.5 26.8115 6.5 26C6.5 25.1875 7.49937 24.1434 8.46828 23.1339C9.43719 22.1244 10.4488 21.0681 10.983 19.7783C11.4948 18.5392 11.5172 17.1234 11.5375 15.7523C11.5578 14.3305 11.5802 12.8416 12.2119 12.2119C12.8436 11.5822 14.3223 11.5578 15.7523 11.5375C17.1234 11.5172 18.5392 11.4948 19.7783 10.983C21.0655 10.4498 22.114 9.4454 23.1276 8.47429L23.1339 8.46828L23.1376 8.46477C24.152 7.49292 25.1885 6.5 26 6.5C26.8125 6.5 27.8586 7.49937 28.8661 8.46828C29.8736 9.43719 30.9319 10.4488 32.2217 10.983C33.4608 11.4948 34.8766 11.5172 36.2477 11.5375C37.6695 11.5578 39.1584 11.5802 39.7881 12.2119C40.4178 12.8436 40.4422 14.3223 40.4625 15.7523C40.4828 17.1234 40.5052 18.5392 41.017 19.7783C41.5501 21.0655 42.5546 22.1139 43.5257 23.1276L43.5317 23.1339L43.5352 23.1376C44.5071 24.152 45.5 25.1885 45.5 26C45.5 26.8125 44.5006 27.8566 43.5317 28.8661ZM23.5534 16.7916C24.0891 17.5933 24.375 18.5358 24.375 19.5C24.375 20.7929 23.8614 22.0329 22.9471 22.9471C22.0329 23.8614 20.7929 24.375 19.5 24.375C18.5358 24.375 17.5933 24.0891 16.7916 23.5534C15.9899 23.0177 15.3651 22.2564 14.9961 21.3656C14.6271 20.4748 14.5306 19.4946 14.7187 18.5489C14.9068 17.6033 15.3711 16.7346 16.0529 16.0529C16.7346 15.3711 17.6033 14.9068 18.5489 14.7187C19.4946 14.5306 20.4748 14.6271 21.3656 14.9961C22.2564 15.3651 23.0177 15.9899 23.5534 16.7916ZM29.7916 28.4466C30.5933 27.9109 31.5358 27.625 32.5 27.625C33.7929 27.625 35.0329 28.1386 35.9471 29.0529C36.8614 29.9671 37.375 31.2071 37.375 32.5C37.375 33.4642 37.0891 34.4067 36.5534 35.2084C36.0177 36.0101 35.2564 36.6349 34.3656 37.0039C33.4748 37.3729 32.4946 37.4694 31.5489 37.2813C30.6033 37.0932 29.7346 36.6289 29.0529 35.9471C28.3711 35.2654 27.9068 34.3967 27.7187 33.4511C27.5306 32.5054 27.6271 31.5252 27.9961 30.6344C28.3651 29.7436 28.9899 28.9823 29.7916 28.4466ZM19.0247 35.2747L35.2747 19.0247C35.4257 18.8737 35.5454 18.6945 35.6271 18.4972C35.7088 18.2999 35.7509 18.0885 35.7509 17.875C35.7509 17.6615 35.7088 17.4501 35.6271 17.2528C35.5454 17.0555 35.4257 16.8763 35.2747 16.7253C35.1237 16.5743 34.9445 16.4546 34.7472 16.3729C34.5499 16.2912 34.3385 16.2491 34.125 16.2491C33.9115 16.2491 33.7001 16.2912 33.5028 16.3729C33.3055 16.4546 33.1263 16.5743 32.9753 16.7253L16.7253 32.9753C16.5743 33.1263 16.4546 33.3055 16.3729 33.5028C16.2912 33.7001 16.2491 33.9115 16.2491 34.125C16.2491 34.3385 16.2912 34.5499 16.3729 34.7472C16.4546 34.9445 16.5743 35.1237 16.7253 35.2747C16.8763 35.4257 17.0555 35.5454 17.2528 35.6271C17.4501 35.7088 17.6615 35.7509 17.875 35.7509C18.0885 35.7509 18.2999 35.7088 18.4972 35.6271C18.6945 35.5454 18.8737 35.4257 19.0247 35.2747Z" fill="#169256"/>
  <path d="M17.875 19.5C17.875 19.1786 17.9703 18.8644 18.1489 18.5972C18.3274 18.33 18.5812 18.1217 18.8781 17.9987C19.1751 17.8757 19.5018 17.8435 19.817 17.9062C20.1322 17.9689 20.4218 18.1237 20.649 18.351C20.8763 18.5782 21.0311 18.8678 21.0938 19.183C21.1565 19.4982 21.1243 19.8249 21.0013 20.1219C20.8783 20.4188 20.67 20.6726 20.4028 20.8511C20.1356 21.0297 19.8214 21.125 19.5 21.125C19.069 21.125 18.6557 20.9538 18.351 20.649C18.0462 20.3443 17.875 19.931 17.875 19.5Z" fill="#169256"/>
  <path d="M32.5 34.125C32.1786 34.125 31.8644 34.0297 31.5972 33.8511C31.33 33.6726 31.1217 33.4188 30.9987 33.1219C30.8757 32.8249 30.8435 32.4982 30.9062 32.183C30.9689 31.8678 31.1237 31.5782 31.351 31.351C31.5782 31.1237 31.8678 30.9689 32.183 30.9062C32.4982 30.8435 32.8249 30.8757 33.1219 30.9987C33.4188 31.1217 33.6726 31.33 33.8511 31.5972C34.0297 31.8644 34.125 32.1786 34.125 32.5C34.125 32.931 33.9538 33.3443 33.649 33.649C33.3443 33.9538 32.931 34.125 32.5 34.125Z" fill="#169256"/>
  <path fill-rule="evenodd" clip-rule="evenodd" d="M23.5534 16.7916C24.0891 17.5933 24.375 18.5358 24.375 19.5C24.375 20.7929 23.8614 22.0329 22.9471 22.9471C22.0329 23.8614 20.7929 24.375 19.5 24.375C18.5358 24.375 17.5933 24.0891 16.7916 23.5534C15.9899 23.0177 15.3651 22.2564 14.9961 21.3656C14.6271 20.4748 14.5306 19.4946 14.7187 18.5489C14.9068 17.6033 15.3711 16.7346 16.0529 16.0529C16.7346 15.3711 17.6033 14.9068 18.5489 14.7187C19.4946 14.5306 20.4748 14.6271 21.3656 14.9961C22.2564 15.3651 23.0177 15.9899 23.5534 16.7916ZM18.1489 18.5972C17.9703 18.8644 17.875 19.1786 17.875 19.5C17.875 19.931 18.0462 20.3443 18.351 20.649C18.6557 20.9538 19.069 21.125 19.5 21.125C19.8214 21.125 20.1356 21.0297 20.4028 20.8511C20.67 20.6726 20.8783 20.4188 21.0013 20.1219C21.1243 19.8249 21.1565 19.4982 21.0938 19.183C21.0311 18.8678 20.8763 18.5782 20.649 18.351C20.4218 18.1237 20.1322 17.9689 19.817 17.9062C19.5018 17.8435 19.1751 17.8757 18.8781 17.9987C18.5812 18.1217 18.3274 18.33 18.1489 18.5972ZM29.7916 28.4466C30.5933 27.9109 31.5358 27.625 32.5 27.625C33.7929 27.625 35.0329 28.1386 35.9471 29.0529C36.8614 29.9671 37.375 31.2071 37.375 32.5C37.375 33.4642 37.0891 34.4067 36.5534 35.2084C36.0177 36.0101 35.2564 36.6349 34.3656 37.0039C33.4748 37.3729 32.4946 37.4694 31.5489 37.2813C30.6033 37.0932 29.7346 36.6289 29.0529 35.9471C28.3711 35.2654 27.9068 34.3967 27.7187 33.4511C27.5306 32.5054 27.6271 31.5252 27.9961 30.6344C28.3651 29.7436 28.9899 28.9823 29.7916 28.4466ZM31.5972 33.8511C31.8644 34.0297 32.1786 34.125 32.5 34.125C32.931 34.125 33.3443 33.9538 33.649 33.649C33.9538 33.3443 34.125 32.931 34.125 32.5C34.125 32.1786 34.0297 31.8644 33.8511 31.5972C33.6726 31.33 33.4188 31.1217 33.1219 30.9987C32.8249 30.8757 32.4982 30.8435 32.183 30.9062C31.8678 30.9689 31.5782 31.1237 31.351 31.351C31.1237 31.5782 30.9689 31.8678 30.9062 32.183C30.8435 32.4982 30.8757 32.8249 30.9987 33.1219C31.1217 33.4188 31.33 33.6726 31.5972 33.8511ZM19.0247 35.2747L35.2747 19.0247C35.4257 18.8737 35.5454 18.6945 35.6271 18.4972C35.7088 18.2999 35.7509 18.0885 35.7509 17.875C35.7509 17.6615 35.7088 17.4501 35.6271 17.2528C35.5454 17.0555 35.4257 16.8763 35.2747 16.7253C35.1237 16.5743 34.9445 16.4546 34.7472 16.3729C34.5499 16.2912 34.3385 16.2491 34.125 16.2491C33.9115 16.2491 33.7001 16.2912 33.5028 16.3729C33.3055 16.4546 33.1263 16.5743 32.9753 16.7253L16.7253 32.9753C16.5743 33.1263 16.4546 33.3055 16.3729 33.5028C16.2912 33.7001 16.2491 33.9115 16.2491 34.125C16.2491 34.3385 16.2912 34.5499 16.3729 34.7472C16.4546 34.9445 16.5743 35.1237 16.7253 35.2747C16.8763 35.4257 17.0555 35.5454 17.2528 35.6271C17.4501 35.7088 17.6615 35.7509 17.875 35.7509C18.0885 35.7509 18.2999 35.7088 18.4972 35.6271C18.6945 35.5454 18.8737 35.4257 19.0247 35.2747Z" fill="#EDFAF4"/>
</svg>