<svg width="86" height="86" viewBox="0 0 86 86" fill="none" xmlns="http://www.w3.org/2000/svg">
<circle cx="43" cy="43" r="41" fill="#FFF9DC" stroke="white" stroke-width="4"/>
<path d="M22.1194 36.5254C22.1194 36.2261 22.1194 35.9177 22.1194 35.6183C22.3332 35.4551 22.3759 35.1739 22.5812 34.9924C23.9495 33.8404 25.3093 32.6793 26.6776 31.5182C26.7632 31.4457 26.8059 31.3731 26.823 31.2552C26.9684 30.1938 27.1138 29.1416 27.2592 28.0803C27.3704 27.3183 27.4644 26.5473 27.6098 25.7944C27.721 25.2501 28.0032 24.7694 28.5591 24.6514C29.4827 24.4609 30.4149 24.3339 31.3385 24.1797C32.1937 24.0346 33.0575 23.8804 33.9127 23.7262C34.0153 23.708 34.0837 23.6536 34.1522 23.5629C34.7765 22.7374 35.3837 21.8938 36.0422 21.0865C36.7007 20.2792 37.1967 19.2995 38.0947 18.728C38.3256 18.728 38.5479 18.728 38.7788 18.728C40.2327 19.3902 41.7208 19.9435 43.1917 20.5422C43.5595 20.6964 43.9272 20.9686 44.3463 20.7146C44.7653 20.4606 45.2357 20.2973 45.6889 20.134C46.8777 19.7077 48.0322 19.1816 49.2124 18.728C49.4091 18.728 49.6143 18.728 49.811 18.728C50.1189 18.8822 50.4011 19.0637 50.6235 19.3449C51.4017 20.3699 52.18 21.404 52.9668 22.4199C53.4628 23.0549 53.8305 23.8804 54.7969 23.8713C54.9679 23.8713 55.139 23.8895 55.3015 23.9167C56.4731 24.1162 57.6447 24.3339 58.8249 24.5244C59.4749 24.6333 60.1505 24.7784 60.2959 25.5585C60.5867 27.1006 60.7748 28.6699 61.0228 30.2211C61.0998 30.6837 61.0228 31.2189 61.3906 31.5636C62.0063 32.135 62.6819 32.6249 63.2977 33.1964C64.17 34.0128 65.2304 34.6114 65.889 35.6818C65.889 35.954 65.889 36.2261 65.889 36.4982C65.5127 37.2421 65.2989 38.0494 65.0337 38.8295C64.8627 39.3284 64.7173 39.8454 64.5035 40.3081C64.0588 41.2515 63.6825 42.1404 64.3154 43.1473C64.341 43.1836 64.341 43.229 64.3581 43.2743C64.8713 44.6713 65.3844 46.0682 65.8975 47.4651C65.8975 47.7373 65.8975 48.0094 65.8975 48.2815C65.6666 48.5355 65.4613 48.8258 65.2048 49.0526C64.0845 50.0322 62.9385 50.9756 61.8182 51.9553C61.5274 52.2093 61.134 52.4089 61.134 52.9168C61.134 53.1073 61.0741 53.2978 61.0399 53.4792C60.8176 54.8671 60.6123 56.2641 60.4327 57.661C60.313 58.6225 59.9196 59.1849 59.1243 59.3301C57.4823 59.6204 55.8317 59.8834 54.1811 60.1465C54.0101 60.1737 53.8818 60.2372 53.7792 60.3642C53.001 61.3892 52.2484 62.4324 51.4445 63.4393C50.957 64.0561 50.5893 64.8271 49.8196 65.1446C49.563 65.1446 49.3065 65.1446 49.0499 65.1446C49.0242 65.0358 48.9216 65.0267 48.8532 64.9995C47.6901 64.5278 46.527 64.047 45.3554 63.5935C44.7054 63.3486 44.0811 62.768 43.3286 63.3123C43.2687 63.3576 43.1746 63.3848 43.1062 63.4121C42.2339 63.784 41.353 64.1377 40.4722 64.5006C39.9163 64.7274 39.3262 64.8362 38.7959 65.1356C38.565 65.1356 38.3427 65.1356 38.1118 65.1356C37.8809 64.9179 37.5901 64.7909 37.3934 64.5187C36.4185 63.2216 35.4264 61.9335 34.4344 60.6454C34.2206 60.3733 34.041 60.1193 33.6219 60.1102C33.2285 60.1102 32.818 59.9923 32.4161 59.9288C31.253 59.7383 30.0985 59.5115 28.9354 59.3301C28.2256 59.2212 27.7039 58.7132 27.5927 57.9513C27.5243 57.4524 27.4559 56.9535 27.3789 56.4546C27.225 55.4114 27.0967 54.3682 26.9 53.3341C26.8401 53.0076 26.9599 52.6175 26.6776 52.3635C25.9165 51.6922 25.1383 51.0573 24.3857 50.3769C23.6246 49.6875 22.7266 49.1524 22.1194 48.2634C22.1194 47.964 22.1194 47.6556 22.1194 47.3563C22.7693 45.5965 23.4107 43.8367 24.0693 42.0769C24.1377 41.8955 24.0522 41.7594 23.9923 41.6687C23.8041 41.3422 23.7699 40.9612 23.6074 40.6437C23.3252 40.0904 23.1627 39.4917 22.966 38.9111C22.7009 38.1492 22.4529 37.3237 22.1194 36.5254ZM35.7942 52.0732C35.8113 52.3272 35.8027 52.5086 35.8882 52.6991C36.3757 53.7967 37.6585 53.8874 38.3598 52.8533C39.1466 51.6832 39.9248 50.4949 40.7116 49.3247C42.3964 46.8302 44.0811 44.3356 45.7659 41.8411C46.8349 40.2536 47.9039 38.6662 48.9729 37.0788C49.965 35.6002 50.957 34.1216 51.9405 32.634C52.3681 31.9899 52.2313 31.3549 51.8635 30.856C51.5557 30.4388 50.8373 30.2573 50.3156 30.4569C49.8709 30.6293 49.64 31.0465 49.4005 31.4275C47.5618 34.2577 45.612 37.0062 43.7733 39.8454C43.1062 40.8795 42.3878 41.8774 41.6951 42.8933C39.8393 45.6056 38.0092 48.336 36.1705 51.0663C35.9652 51.3748 35.7257 51.6922 35.7942 52.0732ZM44.0042 49.2431C43.8759 51.4292 45.8514 53.8874 48.4256 53.57C50.4781 53.316 52.1971 51.7013 52.1885 49.2068C52.1714 46.6487 50.461 44.898 48.0664 44.8799C45.7488 44.8708 43.9358 46.939 44.0042 49.2431ZM39.8735 39.0653C42.1398 39.1016 44.0042 37.1695 43.9871 34.6387C43.97 32.3709 42.2766 30.3208 39.865 30.3662C37.5473 30.4115 35.8198 32.38 35.7856 34.6931C35.7514 37.0334 37.7184 39.147 39.8735 39.0653Z" fill="var(--successText)"/>
<path d="M65.889 47.5016C65.3759 46.1046 64.8627 44.7077 64.3496 43.3107C64.3325 43.2654 64.3325 43.22 64.3069 43.1838C63.674 42.1859 64.0503 41.2879 64.495 40.3445C64.7174 39.8819 64.8542 39.3648 65.0252 38.8659C65.2989 38.0858 65.5127 37.2694 65.8804 36.5347C65.889 40.1812 65.889 43.8369 65.889 47.5016Z" fill="white"/>
<path d="M49.2211 18.7554C48.041 19.1999 46.8864 19.735 45.6977 20.1614C45.253 20.3247 44.7826 20.4879 44.355 20.7419C43.936 20.9959 43.5768 20.7238 43.2005 20.5696C41.7295 19.9709 40.2329 19.4176 38.7876 18.7554C42.2683 18.7554 45.7404 18.7554 49.2211 18.7554Z" fill="white"/>
<path d="M38.7876 65.1812C39.3178 64.8728 39.9079 64.773 40.4638 64.5462C41.3447 64.1834 42.2255 63.8296 43.0978 63.4577C43.1748 63.4214 43.2603 63.4032 43.3202 63.3579C44.0813 62.8136 44.6971 63.3942 45.347 63.6391C46.5187 64.0836 47.6818 64.5643 48.8448 65.0451C48.9133 65.0723 49.0159 65.0814 49.0415 65.1902C45.6293 65.1812 42.2084 65.1812 38.7876 65.1812Z" fill="white"/>
<path d="M22.1194 36.5254C22.4529 37.3236 22.7009 38.1491 22.9746 38.9655C23.1627 39.5461 23.3338 40.1447 23.616 40.6981C23.7785 41.0156 23.8127 41.3965 24.0008 41.7231C24.0522 41.8229 24.1462 41.9499 24.0778 42.1313C23.4193 43.882 22.7779 45.6509 22.1279 47.4107C22.1194 43.7822 22.1194 40.1538 22.1194 36.5254Z" fill="white"/>
<path d="M35.7943 52.0736C35.7173 51.7017 35.9568 51.3751 36.1706 51.0667C38.0007 48.3363 39.8394 45.6059 41.6952 42.8937C42.3879 41.8777 43.1063 40.8799 43.7734 39.8458C45.6035 37.0066 47.5534 34.258 49.4006 31.4279C49.6486 31.056 49.871 30.6296 50.3157 30.4573C50.8374 30.2577 51.5558 30.43 51.8636 30.8564C52.2314 31.3553 52.3682 31.9903 51.9406 32.6343C50.9571 34.122 49.9651 35.6005 48.973 37.0791C47.904 38.6666 46.835 40.254 45.766 41.8414C44.0812 44.336 42.3879 46.8214 40.7117 49.3251C39.9249 50.4952 39.1467 51.6835 38.3599 52.8537C37.6586 53.8878 36.3758 53.8062 35.8883 52.6995C35.8114 52.509 35.8114 52.3185 35.7943 52.0736Z" fill="#FAFAF9"/>
<path d="M44.0042 49.2432C43.9358 46.9391 45.7488 44.8619 48.0579 44.88C50.4525 44.8981 52.1714 46.6489 52.18 49.2069C52.1971 51.7014 50.4781 53.3161 48.4171 53.5701C45.8515 53.8876 43.8759 51.4293 44.0042 49.2432ZM46.7409 49.225C46.6382 49.9326 47.4763 50.7218 48.0579 50.6855C48.8105 50.6401 49.4946 49.9598 49.469 49.1978C49.4433 48.4268 48.7848 47.7555 48.0579 47.7737C47.2711 47.7918 46.6639 48.5628 46.7409 49.225Z" fill="#FAFAF9"/>
<path d="M39.8737 39.0656C37.7186 39.1563 35.7602 37.0337 35.7944 34.6934C35.8286 32.3802 37.5561 30.4118 39.8737 30.3665C42.2854 30.3211 43.9787 32.3712 43.9958 34.6389C44.0044 37.1698 42.14 39.1019 39.8737 39.0656ZM38.5311 34.7387C38.5311 35.5279 39.1211 36.1719 39.8566 36.1629C40.6263 36.1538 41.1993 35.6277 41.2592 34.6934C41.3019 33.9495 40.6007 33.2783 39.8139 33.2601C39.1554 33.2511 38.4199 34.0584 38.5311 34.7387Z" fill="#FAFAF9"/>
<path d="M46.741 49.2252C46.6641 48.563 47.2713 47.801 48.058 47.7738C48.785 47.7557 49.4435 48.4269 49.4691 49.198C49.4948 49.9599 48.8021 50.6403 48.058 50.6856C47.4765 50.7219 46.6384 49.9236 46.741 49.2252Z" fill="var(--successText)"/>
<path d="M38.531 34.7389C38.4112 34.0585 39.1467 33.2512 39.8138 33.2693C40.6006 33.2875 41.3018 33.9497 41.2591 34.7026C41.1992 35.6278 40.6262 36.163 39.8565 36.1721C39.1296 36.163 38.5395 35.528 38.531 34.7389Z" fill="var(--successText)"/>
</svg>
