<svg width="24" height="14" viewBox="0 0 24 14" fill="none" xmlns="http://www.w3.org/2000/svg">
<path fill-rule="evenodd" clip-rule="evenodd" d="M20.7409 0.132812H1.63833C0.7353 0.132812 0 0.85482 0 1.74153V12.2572C0 13.1456 0.7353 13.8676 1.63833 13.8676H20.7121C21.6168 13.8676 22.3504 13.1456 22.3504 12.2589V1.76981C22.3504 0.85482 21.6439 0.132812 20.7392 0.132812H20.7409Z" fill="#0B9FA2"/>
<path d="M22.3521 2.96289H0V5.71284H22.3521V2.96289Z" fill="#252324"/>
<path d="M14.2325 7H2.64903C2.28411 7 1.98828 7.29048 1.98828 7.64881V8.45067C1.98828 8.809 2.28411 9.09948 2.64903 9.09948H14.2325C14.5975 9.09948 14.8933 8.809 14.8933 8.45067V7.64881C14.8933 7.29048 14.5975 7 14.2325 7Z" fill="white"/>
<path d="M3.625 8.14599C3.95029 8.16762 4.27728 8.18925 4.59919 8.141C4.92109 8.09276 5.2413 7.96965 5.46664 7.74007C5.45986 7.69017 5.38023 7.67686 5.34635 7.71678C5.31246 7.75671 5.32263 7.8166 5.35651 7.85486C5.3904 7.89313 5.43953 7.91309 5.48866 7.92973C5.81057 8.04119 6.16636 8.05283 6.49504 7.96466C6.54926 7.94969 6.60347 7.93305 6.65938 7.93638C6.74918 7.94137 6.82711 8.00126 6.91013 8.03453C7.24559 8.16929 7.63018 7.8898 7.98258 7.97797C8.08254 8.00292 8.17742 8.05782 8.27907 8.0545C8.418 8.05117 8.53152 7.94803 8.65858 7.89313C8.79412 7.8349 8.95508 7.83157 9.09231 7.88647C9.19735 7.92806 9.3007 8.00126 9.41083 7.97797C9.51079 7.95634 9.58025 7.85985 9.68021 7.83989C9.79203 7.8166 9.89538 7.89479 9.99364 7.95302C10.0919 8.01124 10.2342 8.04618 10.3071 7.95967" stroke="#252324" stroke-width="0.32" stroke-miterlimit="10" stroke-linecap="round"/>
<path d="M9.78125 8.32422H9.85071" stroke="#252324" stroke-width="0.32" stroke-miterlimit="10" stroke-linecap="round"/>
<path d="M9.3125 8.40625H9.38196" stroke="#252324" stroke-width="0.32" stroke-miterlimit="10" stroke-linecap="round"/>
<path d="M19.6126 12.5981C21.7329 12.5981 23.4517 10.9103 23.4517 8.82834C23.4517 6.74637 21.7329 5.05859 19.6126 5.05859C17.4923 5.05859 15.7734 6.74637 15.7734 8.82834C15.7734 10.9103 17.4923 12.5981 19.6126 12.5981Z" fill="#0B9FA2"/>
<path d="M22.0567 7.28906H17.1705C16.6362 7.28906 16.2031 7.71436 16.2031 8.23898V9.41183C16.2031 9.93646 16.6362 10.3618 17.1705 10.3618H22.0567C22.591 10.3618 23.0241 9.93646 23.0241 9.41183V8.23898C23.0241 7.71436 22.591 7.28906 22.0567 7.28906Z" fill="white"/>
<path d="M17.7891 8.28607V8.55059L18.1669 8.31269H18.177V9.62029H18.4701V8.0332H18.1906L17.7891 8.28607Z" fill="black"/>
<path d="M19.2845 9.36923L19.5623 9.0914C19.6674 8.99159 19.7487 8.90841 19.8063 8.83853C19.8639 8.76866 19.9046 8.70544 19.9283 8.64722C19.952 8.59066 19.9622 8.53077 19.9622 8.47254C19.9622 8.38437 19.9402 8.30452 19.8944 8.23464C19.8487 8.16477 19.7843 8.11154 19.703 8.07161C19.6216 8.03168 19.5251 8.01172 19.4166 8.01172C19.3082 8.01172 19.215 8.03168 19.1337 8.07327C19.0507 8.11486 18.9863 8.17143 18.9406 8.24629C18.8948 8.32115 18.8711 8.40766 18.8711 8.50914H19.1489C19.1489 8.45424 19.1591 8.40766 19.1811 8.3694C19.2032 8.32947 19.2337 8.29952 19.2743 8.2779C19.315 8.25627 19.3607 8.24629 19.4133 8.24629C19.4658 8.24629 19.5115 8.25627 19.5522 8.27623C19.5928 8.2962 19.625 8.32448 19.6471 8.35941C19.6691 8.39435 19.6809 8.4376 19.6809 8.48918C19.6809 8.53243 19.6725 8.57402 19.6538 8.61395C19.6352 8.65221 19.6098 8.69214 19.5725 8.73373C19.5369 8.77532 19.4929 8.8219 19.4387 8.87513L18.8779 9.41581V9.62376H19.9859V9.3842H19.2811V9.37422L19.2845 9.36923Z" fill="black"/>
<path d="M21.0886 8.80663V8.79333C21.1767 8.77503 21.2462 8.7351 21.3004 8.67521C21.3546 8.61532 21.3818 8.54046 21.3801 8.45062C21.3801 8.37077 21.358 8.29591 21.314 8.22936C21.2699 8.16282 21.2089 8.10958 21.1293 8.06965C21.0497 8.02973 20.9565 8.00977 20.8481 8.00977C20.7396 8.00977 20.6481 8.02806 20.5651 8.06633C20.4804 8.10459 20.4143 8.15616 20.3635 8.22437C20.3127 8.29258 20.2873 8.37077 20.2856 8.45894H20.5668C20.5668 8.41402 20.5821 8.37576 20.6075 8.34415C20.6329 8.31254 20.6668 8.28759 20.7091 8.26929C20.7515 8.25099 20.7972 8.24267 20.8464 8.24267C20.8955 8.24267 20.9412 8.25265 20.9785 8.27095C21.0158 8.28925 21.0446 8.31587 21.0666 8.34914C21.0886 8.38241 21.0971 8.42234 21.0971 8.46726C21.0971 8.51384 21.0853 8.55377 21.0615 8.5887C21.0378 8.62364 21.0039 8.65026 20.9616 8.67022C20.9192 8.68852 20.8701 8.6985 20.8142 8.6985H20.6719V8.91976H20.8142C20.882 8.91976 20.9412 8.92974 20.9904 8.95137C21.0395 8.973 21.0768 9.00128 21.1022 9.03788C21.1276 9.07448 21.1412 9.11607 21.1395 9.16431C21.1395 9.21089 21.1276 9.25248 21.1022 9.28742C21.0768 9.32235 21.0412 9.35064 20.9972 9.3706C20.9531 9.39056 20.9006 9.40054 20.843 9.40054C20.7888 9.40054 20.7396 9.39223 20.6956 9.37393C20.6515 9.35563 20.6176 9.33234 20.5905 9.30073C20.5634 9.26912 20.5499 9.23086 20.5465 9.18927H20.25C20.2534 9.2791 20.2805 9.35729 20.3313 9.4255C20.3821 9.49371 20.4516 9.54694 20.5397 9.5852C20.6278 9.62347 20.7295 9.64177 20.843 9.64177C20.9565 9.64177 21.0615 9.6218 21.1513 9.58188C21.2411 9.54195 21.3123 9.48705 21.3631 9.41718C21.4139 9.34731 21.4394 9.26746 21.4394 9.17928C21.4394 9.07947 21.4106 8.99629 21.3496 8.92974C21.2886 8.8632 21.2022 8.82161 21.0886 8.80663Z" fill="black"/>
<path fill-rule="evenodd" clip-rule="evenodd" d="M21.5511 4.96421C21.1377 4.76457 20.7074 4.63481 20.2737 4.56993L19.6536 3.625L19.1944 4.54165C17.734 4.68139 16.3786 5.53649 15.6823 6.92561C14.6132 9.05836 15.5061 11.637 17.6781 12.6884C19.8501 13.7381 22.4779 12.863 23.5486 10.7303C24.6177 8.59754 23.7248 6.01561 21.5528 4.96587L21.5511 4.96421ZM17.917 12.2076C16.016 11.2876 15.2333 9.02675 16.1685 7.16018C17.1037 5.2936 19.4079 4.52501 21.3088 5.44499C23.2098 6.36497 23.9942 8.62415 23.0573 10.4924C22.1204 12.359 19.8196 13.1292 17.917 12.2092V12.2076Z" fill="#252324"/>
</svg>
