<svg xmlns="http://www.w3.org/2000/svg" width="24" height="24" viewBox="0 0 24 24" fill="none">
  <path d="M7 22C6.45 22 5.97917 21.8042 5.5875 21.4125C5.19583 21.0208 5 20.55 5 20V4C5 3.45 5.19583 2.97917 5.5875 2.5875C5.97917 2.19583 6.45 2 7 2H14.175C14.4417 2 14.6958 2.05 14.9375 2.15C15.1792 2.25 15.3917 2.39167 15.575 2.575L20.425 7.425C20.6083 7.60833 20.75 7.82083 20.85 8.0625C20.95 8.30417 21 8.55833 21 8.825V20C21 20.55 20.8042 21.0208 20.4125 21.4125C20.0208 21.8042 19.55 22 19 22H7ZM14 8C14 8.28333 14.0958 8.52083 14.2875 8.7125C14.4792 8.90417 14.7167 9 15 9H19L14 4V8Z" fill="currentColor"/>
</svg>