<svg viewBox="0 0 38 38" fill="none" xmlns="http://www.w3.org/2000/svg">
  <path d="M19.8038 21.6487L27.2256 8.79053L31.271 11.1265C33.883 12.6342 34.7749 15.9682 33.2672 18.5802L29.0838 25.8216C28.1388 27.4567 26.0577 28.0088 24.4225 27.0745L20.6744 24.9084C19.5383 24.2395 19.1454 22.7849 19.8038 21.6487Z" fill="#EA4335"/>
  <path d="M19.0179 12.7188L9.79102 28.7093L13.8364 31.0453C16.4484 32.553 19.7824 31.6611 21.2901 29.0491L27.2786 18.6755C28.2236 17.0403 27.6609 14.9592 26.0257 14.0142L22.267 11.8482C21.1309 11.1899 19.6762 11.5827 19.0179 12.7188Z" fill="#FDBD00"/>
  <path d="M27.2255 8.79046L24.3693 7.13407C21.1096 5.25471 16.9368 6.36959 15.0468 9.62927L9.73791 18.8243C8.79292 20.4595 9.35566 22.5406 10.9908 23.4856L13.847 25.1419C15.4822 26.0869 17.5633 25.5242 18.5083 23.889L24.8471 12.9102C26.1637 10.6273 29.073 9.85224 31.3559 11.1689" fill="#2DA94F"/>
  <path d="M15.8748 12.3264L12.7213 10.5108C11.3092 9.70383 9.51475 10.1816 8.70779 11.5832L4.9066 18.1238C3.03786 21.341 4.15274 25.4607 7.38056 27.3295L9.7802 28.7098L12.7001 30.3874L13.9636 31.12C11.7233 29.6123 11.0119 26.6074 12.3816 24.2397L13.3584 22.5514L16.9472 16.3506C17.7648 14.9278 17.2764 13.1334 15.8748 12.3264Z" fill="#1B74E8"/>
</svg>