<svg width="16" height="16" viewBox="0 0 16 16" fill="none" xmlns="http://www.w3.org/2000/svg">
  <rect x="3" y="3" width="2" height="2" fill="currentColor"/>
  <rect x="6" y="3" width="2" height="2" fill="currentColor"/>
  <rect x="9" y="3" width="2" height="2" fill="currentColor"/>
  <rect x="12" y="3" width="2" height="2" fill="currentColor"/>
  <rect x="3" y="6" width="2" height="2" fill="currentColor"/>
  <rect x="6" y="6" width="2" height="2" fill="currentColor"/>
  <rect x="9" y="6" width="2" height="2" fill="currentColor"/>
  <rect x="12" y="6" width="2" height="2" fill="currentColor"/>
  <rect x="3" y="9" width="2" height="2" fill="currentColor"/>
  <rect x="6" y="9" width="2" height="2" fill="currentColor"/>
  <rect x="9" y="9" width="2" height="2" fill="currentColor"/>
  <rect x="12" y="9" width="2" height="2" fill="currentColor"/>
  <rect x="3" y="12" width="2" height="2" fill="currentColor"/>
  <rect x="6" y="12" width="2" height="2" fill="currentColor"/>
  <rect x="9" y="12" width="2" height="2" fill="currentColor"/>
  <rect x="12" y="12" width="2" height="2" fill="currentColor"/>
</svg>
