<svg xmlns="http://www.w3.org/2000/svg" width="20" height="21" viewBox="0 0 20 21" fill="none">
<path d="M9.1665 6.35319H10.8332V8.01986H9.1665V6.35319ZM9.1665 9.68652H10.8332V14.6865H9.1665V9.68652ZM9.99984 2.18652C5.39984 2.18652 1.6665 5.91986 1.6665 10.5199C1.6665 15.1199 5.39984 18.8532 9.99984 18.8532C14.5998 18.8532 18.3332 15.1199 18.3332 10.5199C18.3332 5.91986 14.5998 2.18652 9.99984 2.18652ZM9.99984 17.1865C6.32484 17.1865 3.33317 14.1949 3.33317 10.5199C3.33317 6.84486 6.32484 3.85319 9.99984 3.85319C13.6748 3.85319 16.6665 6.84486 16.6665 10.5199C16.6665 14.1949 13.6748 17.1865 9.99984 17.1865Z" fill="currentColor"/>
</svg>