<svg xmlns="http://www.w3.org/2000/svg" width="20" height="20" fill="none"><path fill="#666666" stroke="#666666" stroke-width="0.3" d="M0 10.567h1.536a8.495 8.495 0 0 0 7.897 7.897v1.686h1.134v-1.686c4.227-.28 7.617-3.67 7.897-7.897h1.686V9.433h-1.686a8.495 8.495 0 0 0-7.897-7.897V-.15H9.433v1.686a8.495 8.495 0 0 0-7.897 7.897H-.15v1.134zm10-4.884A4.32 4.32 0 0 0 5.683 10 4.32 4.32 0 0 0 10 14.317 4.32 4.32 0 0 0 14.317 10 4.32 4.32 0 0 0 10 5.683Zm0 7.5A3.187 3.187 0 0 1 6.817 10 3.187 3.187 0 0 1 10 6.817 3.187 3.187 0 0 1 13.183 10 3.187 3.187 0 0 1 10 13.183Zm0 4.167c-4.052 0-7.35-3.297-7.35-7.35S5.948 2.65 10 2.65s7.35 3.297 7.35 7.35-3.298 7.35-7.35 7.35Z"></path></svg>