<svg width="12" height="12" viewBox="0 0 12 12" fill="none" xmlns="http://www.w3.org/2000/svg">
<g id="local_offer">
<g id="Vector">
<path d="M10.705 5.79L6.205 1.29C6.025 1.11 5.775 1 5.5 1H2C1.45 1 1 1.45 1 2V5.5C1 5.775 1.11 6.025 1.295 6.21L5.795 10.71C5.975 10.89 6.225 11 6.5 11C6.775 11 7.025 10.89 7.205 10.705L10.705 7.205C10.89 7.025 11 6.775 11 6.5C11 6.225 10.885 5.97 10.705 5.79ZM6.5 10.005L2 5.5V2H5.5V1.995L10 6.495L6.5 10.005Z" fill="white"/>
<path d="M3.25 4C3.66421 4 4 3.66421 4 3.25C4 2.83579 3.66421 2.5 3.25 2.5C2.83579 2.5 2.5 2.83579 2.5 3.25C2.5 3.66421 2.83579 4 3.25 4Z" fill="white"/>
</g>
</g>
</svg>
