<svg width="16" height="16" viewBox="0 0 16 16" fill="none" xmlns="http://www.w3.org/2000/svg">
<g id="Frame">
<path id="Vector" d="M4.00033 14.668C3.63366 14.668 3.31977 14.5374 3.05866 14.2763C2.79755 14.0152 2.66699 13.7013 2.66699 13.3346V6.66797C2.66699 6.3013 2.79755 5.98741 3.05866 5.7263C3.31977 5.46519 3.63366 5.33464 4.00033 5.33464H4.66699V4.0013C4.66699 3.07908 4.99199 2.29297 5.64199 1.64297C6.29199 0.992969 7.0781 0.667969 8.00033 0.667969C8.92255 0.667969 9.70866 0.992969 10.3587 1.64297C11.0087 2.29297 11.3337 3.07908 11.3337 4.0013V5.33464H12.0003C12.367 5.33464 12.6809 5.46519 12.942 5.7263C13.2031 5.98741 13.3337 6.3013 13.3337 6.66797V13.3346C13.3337 13.7013 13.2031 14.0152 12.942 14.2763C12.6809 14.5374 12.367 14.668 12.0003 14.668H4.00033ZM8.00033 11.3346C8.36699 11.3346 8.68088 11.2041 8.94199 10.943C9.2031 10.6819 9.33366 10.368 9.33366 10.0013C9.33366 9.63464 9.2031 9.32075 8.94199 9.05964C8.68088 8.79852 8.36699 8.66797 8.00033 8.66797C7.63366 8.66797 7.31977 8.79852 7.05866 9.05964C6.79755 9.32075 6.66699 9.63464 6.66699 10.0013C6.66699 10.368 6.79755 10.6819 7.05866 10.943C7.31977 11.2041 7.63366 11.3346 8.00033 11.3346ZM6.00033 5.33464H10.0003V4.0013C10.0003 3.44575 9.80588 2.97352 9.41699 2.58464C9.0281 2.19575 8.55588 2.0013 8.00033 2.0013C7.44477 2.0013 6.97255 2.19575 6.58366 2.58464C6.19477 2.97352 6.00033 3.44575 6.00033 4.0013V5.33464Z" fill="currentColor"/>
</g>
</svg>
