<svg width="38" height="38" viewBox="0 0 38 38" fill="none" xmlns="http://www.w3.org/2000/svg">
<path d="M13 21C12.45 21 11.9792 20.8042 11.5875 20.4125C11.1958 20.0208 11 19.55 11 19C11 18.45 11.1958 17.9792 11.5875 17.5875C11.9792 17.1958 12.45 17 13 17C13.55 17 14.0208 17.1958 14.4125 17.5875C14.8042 17.9792 15 18.45 15 19C15 19.55 14.8042 20.0208 14.4125 20.4125C14.0208 20.8042 13.55 21 13 21ZM19 21C18.45 21 17.9792 20.8042 17.5875 20.4125C17.1958 20.0208 17 19.55 17 19C17 18.45 17.1958 17.9792 17.5875 17.5875C17.9792 17.1958 18.45 17 19 17C19.55 17 20.0208 17.1958 20.4125 17.5875C20.8042 17.9792 21 18.45 21 19C21 19.55 20.8042 20.0208 20.4125 20.4125C20.0208 20.8042 19.55 21 19 21ZM25 21C24.45 21 23.9792 20.8042 23.5875 20.4125C23.1958 20.0208 23 19.55 23 19C23 18.45 23.1958 17.9792 23.5875 17.5875C23.9792 17.1958 24.45 17 25 17C25.55 17 26.0208 17.1958 26.4125 17.5875C26.8042 17.9792 27 18.45 27 19C27 19.55 26.8042 20.0208 26.4125 20.4125C26.0208 20.8042 25.55 21 25 21Z" fill="#4D4D4E"/>
</svg>
