<svg width="24" height="24" viewBox="0 0 128 128" xmlns="http://www.w3.org/2000/svg">
  <g fill="none" stroke="currentColor" stroke-width="2.5" stroke-linecap="round" stroke-linejoin="round">
    <!-- Roof -->
    <path d="M16 36 L64 12 L112 36 Z" />

    <!-- Top beam -->
    <rect x="24" y="36" width="80" height="10" rx="3" />

    <!-- Columns -->
    <rect x="30" y="46" width="10" height="40" rx="2" />
    <rect x="48" y="46" width="10" height="40" rx="2" />
    <rect x="66" y="46" width="10" height="40" rx="2" />
    <rect x="84" y="46" width="10" height="40" rx="2" />

    <!-- Base beam -->
    <rect x="20" y="86" width="88" height="12" rx="3" />

    <!-- Left arrow -->
    <line x1="8" y1="66" x2="24" y2="66" />
    <polyline points="16,58 8,66 16,74" />

    <!-- Right arrow -->
    <line x1="104" y1="66" x2="120" y2="66" />
    <polyline points="112,58 120,66 112,74" />
  </g>

  <!-- NEFT text -->
  <text x="64" y="115"
        text-anchor="middle"
        font-family="system-ui, -apple-system, BlinkMacSystemFont, 'Segoe UI', sans-serif"
        font-size="14"
        font-weight="600"
        fill="currentColor">
    NEFT
  </text>
</svg>
