<svg xmlns="http://www.w3.org/2000/svg" width="32" height="32" viewBox="0 0 471 186">
<g>
<path d="M 426.50 173.03 C421.04,174.29 209.64,174.10 204.88,172.83 C202.89,172.30 199.74,170.29 197.88,168.38 L 194.50 164.89 L 194.19 114.20 C194.03,86.31 194.17,61.55 194.52,59.17 C194.94,56.27 196.24,53.63 198.45,51.17 C201.64,47.63 201.77,47.15 202.19,37.50 C202.70,25.33 204.31,21.67 210.32,18.94 C214.35,17.11 218.78,17.04 335.00,17.03 C415.12,17.02 456.75,17.36 459.23,18.05 C461.49,18.68 463.95,20.38 465.48,22.39 L 468.00 25.69 L 468.00 131.38 L 465.75 134.67 C463.66,137.73 457.87,141.00 454.53,141.00 C453.74,141.00 451.93,140.47 450.50,139.82 C448.40,138.86 447.96,138.04 448.20,135.60 C448.46,132.99 449.04,132.44 452.35,131.66 C458.81,130.14 458.97,129.12 458.45,92.68 C458.20,75.18 458.00,53.95 458.00,45.50 C458.00,32.87 457.72,29.86 456.43,28.57 C455.02,27.16 442.67,27.00 335.43,27.00 C321.64,27.00 309.38,26.99 298.46,26.97 C226.87,26.89 213.48,26.87 211.73,31.38 C211.32,32.42 211.53,33.70 211.79,35.27 C211.97,36.31 212.16,37.48 212.21,38.79 L 212.50 46.50 L 321.04 47.00 C422.80,47.47 432.39,47.14 435.26,51.37 C435.80,52.16 436.10,53.11 436.73,54.26 C438.34,57.22 438.53,61.87 438.79,107.23 C438.99,141.25 438.74,158.26 437.98,161.06 C436.47,166.67 431.48,171.88 426.50,173.03 ZM 206.82 163.96 C208.08,164.26 257.92,164.48 317.58,164.45 C419.06,164.39 426.15,164.28 427.77,162.66 C429.37,161.06 429.50,156.97 429.50,110.12 C429.50,68.52 429.25,59.01 428.13,57.65 C426.87,56.13 417.75,56.00 315.41,56.00 C206.36,56.00 204.05,56.04 203.04,57.93 C202.36,59.19 202.01,77.07 202.01,109.18 C202.03,161.66 202.14,162.85 206.82,163.96 ZM 148.78 106.22 C126.09,128.34 123.99,129.85 120.57,126.43 C117.29,123.14 118.74,121.02 135.10,105.18 C148.51,92.22 150.90,89.48 149.35,88.87 C148.33,88.47 115.41,88.11 76.18,88.07 C29.07,88.02 4.21,87.65 2.93,86.96 C0.31,85.56 0.47,81.49 3.22,79.56 C5.19,78.18 14.07,78.00 79.27,78.00 C140.39,78.00 152.96,77.77 152.30,76.67 C151.86,75.94 144.52,68.67 136.00,60.52 C127.47,52.37 120.09,44.67 119.58,43.41 C118.33,40.30 120.37,38.00 124.37,38.01 C127.09,38.02 130.36,40.81 149.28,59.26 C163.32,72.96 171.05,81.21 171.05,82.50 C171.05,83.79 163.13,92.22 148.78,106.22 ZM 325.75 142.00 C325.43,145.24 321.71,145.56 318.47,142.62 C315.62,140.03 296.42,117.57 294.30,114.34 C291.90,110.67 293.20,109.37 299.94,108.66 C303.30,108.31 307.28,107.39 308.78,106.62 C312.11,104.89 315.56,101.22 314.68,100.34 C314.32,99.99 308.96,99.43 302.77,99.10 C291.58,98.50 291.50,98.48 291.50,96.00 C291.50,93.52 291.62,93.49 303.72,92.50 L 315.94 91.50 L 314.69 89.00 C313.29,86.20 309.13,85.20 298.29,85.07 C293.26,85.01 291.88,84.64 291.06,83.11 C289.06,79.37 291.81,78.76 312.26,78.45 C333.16,78.12 335.54,78.35 336.48,80.81 C337.45,83.34 334.21,85.00 328.31,85.00 C322.55,85.00 321.84,85.90 324.56,89.78 C325.71,91.42 327.12,92.00 329.99,92.00 C332.22,92.00 334.54,92.68 335.47,93.62 C336.88,95.03 336.91,95.50 335.68,97.37 C334.62,98.96 333.04,99.58 329.38,99.82 C324.81,100.11 324.33,100.41 321.79,104.56 C319.03,109.08 311.10,115.00 307.80,115.00 C306.81,115.00 306.00,115.34 306.00,115.76 C306.00,116.18 310.50,121.69 316.00,128.01 C323.65,136.80 325.94,140.09 325.75,142.00 Z" fill="rgb(44,44,44)"/>
</g>
</svg>
