<svg xmlns="http://www.w3.org/2000/svg" width="471" height="186" viewBox="0 0 471 186">
<g>
<path d="M 426.50 173.03 C421.04,174.29 209.64,174.10 204.88,172.83 C202.89,172.30 199.74,170.29 197.88,168.38 L 194.50 164.89 L 194.19 114.20 C194.03,86.31 194.17,61.55 194.52,59.17 C194.94,56.27 196.24,53.63 198.45,51.17 C201.64,47.63 201.77,47.15 202.19,37.50 C202.70,25.33 204.31,21.67 210.32,18.94 C214.35,17.11 218.78,17.04 335.00,17.03 C415.12,17.02 456.75,17.36 459.23,18.05 C461.49,18.68 463.95,20.38 465.48,22.39 L 468.00 25.69 L 468.00 131.38 L 465.75 134.67 C463.66,137.73 457.87,141.00 454.53,141.00 C453.74,141.00 451.93,140.47 450.50,139.82 C448.40,138.86 447.96,138.04 448.20,135.60 C448.46,132.99 449.04,132.44 452.35,131.66 C458.81,130.14 458.97,129.12 458.45,92.68 C458.20,75.18 458.00,53.95 458.00,45.50 C458.00,32.87 457.72,29.86 456.43,28.57 C455.02,27.16 442.67,27.00 335.43,27.00 C321.64,27.00 309.38,26.99 298.46,26.97 C226.87,26.89 213.48,26.87 211.73,31.38 C211.32,32.42 211.53,33.70 211.79,35.27 C211.97,36.31 212.16,37.48 212.21,38.79 L 212.50 46.50 L 321.04 47.00 C422.80,47.47 432.39,47.14 435.26,51.37 C435.80,52.16 436.10,53.11 436.73,54.26 C438.34,57.22 438.53,61.87 438.79,107.23 C438.99,141.25 438.74,158.26 437.98,161.06 C436.47,166.67 431.48,171.88 426.50,173.03 ZM 206.82 163.96 C208.08,164.26 257.92,164.48 317.58,164.45 C419.06,164.39 426.15,164.28 427.77,162.66 C429.37,161.06 429.50,156.97 429.50,110.12 C429.50,68.52 429.25,59.01 428.13,57.65 C426.87,56.13 417.75,56.00 315.41,56.00 C206.36,56.00 204.05,56.04 203.04,57.93 C202.36,59.19 202.01,77.07 202.01,109.18 C202.03,161.66 202.14,162.85 206.82,163.96 ZM 148.78 106.22 C126.09,128.34 123.99,129.85 120.57,126.43 C117.29,123.14 118.74,121.02 135.10,105.18 C148.51,92.22 150.90,89.48 149.35,88.87 C148.33,88.47 115.41,88.11 76.18,88.07 C29.07,88.02 4.21,87.65 2.93,86.96 C0.31,85.56 0.47,81.49 3.22,79.56 C5.19,78.18 14.07,78.00 79.27,78.00 C140.39,78.00 152.96,77.77 152.30,76.67 C151.86,75.94 144.52,68.67 136.00,60.52 C127.47,52.37 120.09,44.67 119.58,43.41 C118.33,40.30 120.37,38.00 124.37,38.01 C127.09,38.02 130.36,40.81 149.28,59.26 C163.32,72.96 171.05,81.21 171.05,82.50 C171.05,83.79 163.13,92.22 148.78,106.22 ZM 325.75 142.00 C325.43,145.24 321.71,145.56 318.47,142.62 C315.62,140.03 296.42,117.57 294.30,114.34 C291.90,110.67 293.20,109.37 299.94,108.66 C303.30,108.31 307.28,107.39 308.78,106.62 C312.11,104.89 315.56,101.22 314.68,100.34 C314.32,99.99 308.96,99.43 302.77,99.10 C291.58,98.50 291.50,98.48 291.50,96.00 C291.50,93.52 291.62,93.49 303.72,92.50 L 315.94 91.50 L 314.69 89.00 C313.29,86.20 309.13,85.20 298.29,85.07 C293.26,85.01 291.88,84.64 291.06,83.11 C289.06,79.37 291.81,78.76 312.26,78.45 C333.16,78.12 335.54,78.35 336.48,80.81 C337.45,83.34 334.21,85.00 328.31,85.00 C322.55,85.00 321.84,85.90 324.56,89.78 C325.71,91.42 327.12,92.00 329.99,92.00 C332.22,92.00 334.54,92.68 335.47,93.62 C336.88,95.03 336.91,95.50 335.68,97.37 C334.62,98.96 333.04,99.58 329.38,99.82 C324.81,100.11 324.33,100.41 321.79,104.56 C319.03,109.08 311.10,115.00 307.80,115.00 C306.81,115.00 306.00,115.34 306.00,115.76 C306.00,116.18 310.50,121.69 316.00,128.01 C323.65,136.80 325.94,140.09 325.75,142.00 Z" fill="rgb(44,44,44)"/>
<path d="M 0.00 84.89 L 0.00 40.50 C0.00,62.78 0.34,80.99 0.75,80.97 C1.06,80.96 1.82,80.57 2.63,80.04 C0.73,81.84 0.53,84.82 2.15,86.39 ZM 6.37 87.33 C14.78,87.78 38.28,88.03 76.18,88.07 C112.32,88.11 143.11,88.41 148.53,88.78 C143.10,88.41 112.22,88.11 75.97,88.07 C30.28,88.03 13.11,87.91 6.37,87.33 ZM 148.78 106.22 C155.19,99.97 160.31,94.83 164.03,90.94 C158.21,97.08 149.68,105.53 142.00,112.80 C144.03,110.84 146.28,108.66 148.78,106.22 ZM 123.11 127.82 C124.16,127.86 125.48,127.32 127.45,125.90 C125.82,127.21 124.71,127.97 124.32,127.97 C123.91,127.98 123.50,127.92 123.11,127.82 ZM 121.58 119.03 C119.75,121.30 119.06,122.77 119.16,123.96 C119.05,123.59 119.00,123.20 119.00,122.81 C119.00,122.29 119.88,121.01 121.58,119.03 ZM 3.92 79.23 C4.37,79.06 5.10,78.92 6.24,78.79 C5.14,78.92 4.42,79.06 3.92,79.23 Z" fill="rgb(146,146,146)"/>
<path d="M 0.00 135.44 L 0.00 84.89 L 2.22 86.44 C4.18,87.82 12.93,88.01 75.97,88.07 C115.31,88.11 148.33,88.47 149.35,88.87 C150.90,89.48 148.51,92.22 135.10,105.18 C124.63,115.32 119.00,121.48 119.00,122.81 C119.00,125.50 121.59,128.01 124.32,127.97 C127.26,127.93 171.05,85.33 171.05,82.50 C171.05,81.21 163.32,72.96 149.28,59.26 C130.36,40.81 127.09,38.02 124.37,38.01 C120.37,38.00 118.33,40.30 119.58,43.41 C120.09,44.67 127.47,52.37 136.00,60.52 C144.52,68.67 151.86,75.94 152.30,76.67 C152.96,77.77 140.38,78.00 79.24,78.00 C15.85,78.00 5.11,78.21 3.44,79.47 C2.37,80.28 1.16,80.95 0.75,80.97 C0.34,80.99 0.00,62.78 0.00,40.50 L 0.00 0.00 L 235.50 0.00 L 471.00 0.00 L 471.00 93.00 L 471.00 186.00 L 235.50 186.00 L 0.00 186.00 L 0.00 135.44 ZM 426.50 173.03 C431.48,171.88 436.47,166.67 437.98,161.06 C438.74,158.26 438.99,141.25 438.79,107.23 C438.53,61.87 438.34,57.22 436.73,54.26 C432.75,46.99 441.86,47.56 321.04,47.00 L 212.50 46.50 L 212.21 38.79 C211.71,25.56 196.64,27.00 335.43,27.00 C442.67,27.00 455.02,27.16 456.43,28.57 C457.72,29.86 458.00,32.87 458.00,45.50 C458.00,53.95 458.20,75.18 458.45,92.68 C458.97,129.12 458.81,130.14 452.35,131.66 C449.04,132.44 448.46,132.99 448.20,135.60 C447.96,138.04 448.40,138.86 450.50,139.82 C451.93,140.47 453.74,141.00 454.53,141.00 C457.87,141.00 463.66,137.73 465.75,134.67 L 468.00 131.38 L 468.00 78.53 L 468.00 25.69 L 465.48 22.39 C463.95,20.38 461.49,18.68 459.23,18.05 C456.75,17.36 415.12,17.02 335.00,17.03 C218.78,17.04 214.35,17.11 210.32,18.94 C204.31,21.67 202.70,25.33 202.19,37.50 C201.77,47.15 201.64,47.63 198.45,51.17 C196.24,53.63 194.94,56.27 194.52,59.17 C194.17,61.55 194.03,86.31 194.19,114.20 L 194.50 164.89 L 197.88 168.38 C199.74,170.29 202.89,172.30 204.88,172.83 C209.64,174.10 421.04,174.29 426.50,173.03 ZM 206.82 163.96 C202.14,162.85 202.03,161.66 202.01,109.18 C202.01,77.07 202.36,59.19 203.04,57.93 C204.05,56.04 206.36,56.00 315.41,56.00 C417.75,56.00 426.87,56.13 428.13,57.65 C429.25,59.01 429.50,68.52 429.50,110.12 C429.50,156.97 429.37,161.06 427.77,162.66 C426.15,164.28 419.06,164.39 317.58,164.45 C257.92,164.48 208.08,164.26 206.82,163.96 ZM 325.75 142.00 C325.94,140.09 323.65,136.80 316.00,128.01 C310.50,121.69 306.00,116.18 306.00,115.76 C306.00,115.34 306.81,115.00 307.80,115.00 C311.10,115.00 319.03,109.08 321.79,104.56 C324.33,100.41 324.81,100.11 329.38,99.82 C333.04,99.58 334.62,98.96 335.68,97.37 C336.91,95.50 336.88,95.03 335.47,93.62 C334.54,92.68 332.22,92.00 329.99,92.00 C327.12,92.00 325.71,91.42 324.56,89.78 C321.84,85.90 322.55,85.00 328.31,85.00 C334.21,85.00 337.45,83.34 336.48,80.81 C335.54,78.35 333.16,78.12 312.26,78.45 C291.81,78.76 289.06,79.37 291.06,83.11 C291.88,84.64 293.26,85.01 298.29,85.07 C309.13,85.20 313.29,86.20 314.69,89.00 L 315.94 91.50 L 303.72 92.50 C291.62,93.49 291.50,93.52 291.50,96.00 C291.50,98.48 291.58,98.50 302.77,99.10 C308.96,99.43 314.32,99.99 314.68,100.34 C315.56,101.22 312.11,104.89 308.78,106.62 C307.28,107.39 303.30,108.31 299.94,108.66 C293.20,109.37 291.90,110.67 294.30,114.34 C296.42,117.57 315.62,140.03 318.47,142.62 C321.71,145.56 325.43,145.24 325.75,142.00 Z" fill="rgb(254,254,254)"/>
</g>
</svg>