<svg xmlns="http://www.w3.org/2000/svg" width="343" height="153" fill="none"><g clip-path="url(#no-coupon_svg__clip0_31264_65890)"><path stroke="#4E3F09" stroke-miterlimit="10" stroke-width="2.429" d="M199.498 58.915c-11.441 0-23.086-.465-33.982-3.5C154.827 52.448 148.247 49.657 139.5 43c-5.728-4.335-11-8.5-17-10s-16-1-24.453 7.568S90.014 64.125 93.8 74.91c5.685 16.241 22.99 27.494 37.697 34.85 16.99 8.491 35.662 13.411 54.374 16.256 16.402 2.489 37.479 4.306 51.695-6.413 13.053-9.843 16.635-32.321 13.436-47.498a18.7 18.7 0 0 0-6.712-11.39c-9.173-6.699-22.853-2.228-33.161-1.995-3.826.082-7.723.179-11.631.19z"></path><path fill="#4E3F09" d="M171.505 152.607c27.711 0 50.176-1.401 50.176-3.131s-22.465-3.131-50.176-3.131-50.177 1.401-50.177 3.131 22.466 3.131 50.177 3.131"></path><path stroke="#4E3F09" stroke-miterlimit="10" stroke-width="2.429" d="M231.535 33.663v5.893M228.586 36.601h5.892M121.422 18.369v5.893M118.484 21.307h5.878M108.352 119.059v5.893M105.398 122h5.892"></path><path fill="#4E3F09" d="M170.656 132.798a1.34 1.34 0 1 0 0-2.68 1.34 1.34 0 0 0 0 2.68M203.176 29.356a1.339 1.339 0 1 0 0-2.68 1.339 1.339 0 1 0 0 2.68M139.207 29.902a1.339 1.339 0 1 0 0-2.68 1.339 1.339 0 1 0 0 2.68M231.166 45.37h-66.389v78.172h66.389z"></path><path fill="#fff" stroke="#4E3F09" stroke-miterlimit="10" stroke-width="2.429" d="M174.862 45.37h-59.667v78.172h59.667z"></path><path fill="#fff" stroke="#4E3F09" stroke-miterlimit="10" stroke-width="2.429" d="m174.863 45.37-16.6 20.698H99.332l15.864-20.698zM174.863 45.37l12.395 20.698h56.41L231.167 45.37z"></path><path stroke="#4E3F09" stroke-miterlimit="10" stroke-width="2.429" d="M163.229 41.668c.221-2.21.423-7.537-2.999-11.999m0 0c-.672-.876-4.082-5.324-7.497-4.499-1.358.33-2.743 1.497-2.999 3-.336 1.962 1.363 3.848 2.999 4.499 2.733 1.088 5.937-1.013 7.497-3Zm0 0c2.487-3.166 1.786-7.301 1.5-8.998-2.024-11.966-20.271-18.705-22.492-19.498M131.16 98.523a13.092 13.092 0 0 1 25.589 0"></path><path fill="#4E3F09" d="M158.403 83.257a1.816 1.816 0 1 0 0-3.632 1.816 1.816 0 0 0 0 3.632M129.504 83.257a1.817 1.817 0 1 0 0-3.633 1.817 1.817 0 0 0 0 3.633"></path></g></svg>