<svg width="87" height="66" viewBox="0 0 87 66" fill="none" xmlns="http://www.w3.org/2000/svg">
<path fill-rule="evenodd" clip-rule="evenodd" d="M74.8215 0.322388H6.37068C3.13482 0.322388 0.5 2.95721 0.5 6.19307V44.568C0.5 47.8099 3.13482 50.4448 6.37068 50.4448H74.7183C77.9602 50.4448 80.5889 47.8099 80.5889 44.5741V6.29627C80.5889 2.95721 78.0573 0.322388 74.8154 0.322388H74.8215Z" fill="#1B6163"/>
<path d="M80.595 10.649H0.5V20.6844H80.595V10.649Z" fill="#1F1F1F"/>
<path d="M51.5022 25.3835H9.99465C8.68701 25.3835 7.62695 26.4436 7.62695 27.7512V30.6775C7.62695 31.9851 8.68701 33.0452 9.99465 33.0452H51.5022C52.8099 33.0452 53.8699 31.9851 53.8699 30.6775V27.7512C53.8699 26.4436 52.8099 25.3835 51.5022 25.3835Z" fill="white"/>
<path fill-rule="evenodd" clip-rule="evenodd" d="M13.4854 29.5667C14.651 29.6456 15.8227 29.7246 16.9762 29.5485C18.1297 29.3724 19.2771 28.9232 20.0846 28.0854C20.0603 27.9033 19.7749 27.8547 19.6535 28.0004C19.5321 28.1461 19.5685 28.3647 19.6899 28.5043C19.8114 28.6439 19.9874 28.7168 20.1635 28.7775C21.317 29.1842 22.5919 29.2267 23.7697 28.905C23.9639 28.8503 24.1582 28.7896 24.3586 28.8018C24.6803 28.82 24.9596 29.0385 25.2571 29.16C26.4591 29.6517 27.8373 28.6318 29.1 28.9535C29.4582 29.0446 29.7982 29.245 30.1625 29.2328C30.6603 29.2207 31.067 28.8443 31.5224 28.6439C32.008 28.4314 32.5848 28.4193 33.0765 28.6196C33.4529 28.7714 33.8233 29.0385 34.2179 28.9535C34.5761 28.8746 34.825 28.5225 35.1832 28.4497C35.5839 28.3647 35.9542 28.65 36.3063 28.8625C36.6584 29.075 37.1684 29.2025 37.4295 28.8868" fill="#1F1F1F"/>
<path d="M13.4854 29.5667C14.651 29.6456 15.8227 29.7246 16.9762 29.5485C18.1297 29.3724 19.2771 28.9232 20.0846 28.0854C20.0603 27.9033 19.7749 27.8547 19.6535 28.0004C19.5321 28.1461 19.5685 28.3647 19.6899 28.5043C19.8114 28.6439 19.9874 28.7168 20.1635 28.7775C21.317 29.1842 22.5919 29.2267 23.7697 28.905C23.9639 28.8503 24.1582 28.7896 24.3586 28.8018C24.6803 28.82 24.9596 29.0385 25.2571 29.16C26.4591 29.6517 27.8373 28.6318 29.1 28.9535C29.4582 29.0446 29.7982 29.245 30.1625 29.2328C30.6603 29.2207 31.067 28.8443 31.5224 28.6439C32.008 28.4314 32.5848 28.4193 33.0765 28.6196C33.4529 28.7714 33.8233 29.0385 34.2179 28.9535C34.5761 28.8746 34.825 28.5225 35.1832 28.4497C35.5839 28.3647 35.9542 28.65 36.3063 28.8625C36.6584 29.075 37.1684 29.2025 37.4295 28.8868" stroke="#1F1F1F" stroke-width="0.78" stroke-miterlimit="10" stroke-linecap="round"/>
<path fill-rule="evenodd" clip-rule="evenodd" d="M35.5479 30.2163H35.7968H35.5479Z" fill="#1F1F1F"/>
<path d="M35.5479 30.2163H35.7968" stroke="#1F1F1F" stroke-width="0.78" stroke-miterlimit="10" stroke-linecap="round"/>
<path fill-rule="evenodd" clip-rule="evenodd" d="M33.8662 30.5138H34.1151H33.8662Z" fill="#1F1F1F"/>
<path d="M33.8662 30.5138H34.1151" stroke="#1F1F1F" stroke-width="0.78" stroke-miterlimit="10" stroke-linecap="round"/>
<path d="M71.0515 25.3835H59.0855C57.7778 25.3835 56.7178 26.4436 56.7178 27.7512V30.6775C56.7178 31.9851 57.7778 33.0452 59.0855 33.0452H71.0515C72.3591 33.0452 73.4192 31.9851 73.4192 30.6775V27.7512C73.4192 26.4436 72.3591 25.3835 71.0515 25.3835Z" fill="white"/>
<mask id="path-11-inside-1_23319_59756" fill="white">
<path d="M60.3486 27.7938V28.4859L61.3261 27.8606H61.3504V31.3028H62.1092V27.126H61.3868L60.3486 27.7938Z"/>
</mask>
<path d="M60.3486 27.7938V28.4859L61.3261 27.8606H61.3504V31.3028H62.1092V27.126H61.3868L60.3486 27.7938Z" fill="#1F1F1F"/>
<path d="M60.3486 27.7938L59.8076 26.9528L59.3486 27.248V27.7938H60.3486ZM60.3486 28.4859H59.3486V30.3128L60.8875 29.3283L60.3486 28.4859ZM61.3261 27.8606V26.8606H61.0336L60.7872 27.0182L61.3261 27.8606ZM61.3504 27.8606H62.3504V26.8606H61.3504V27.8606ZM61.3504 31.3028H60.3504V32.3028H61.3504V31.3028ZM62.1092 31.3028V32.3028H63.1092V31.3028H62.1092ZM62.1092 27.126H63.1092V26.126H62.1092V27.126ZM61.3868 27.126V26.126H61.0929L60.8458 26.285L61.3868 27.126ZM59.3486 27.7938V28.4859H61.3486V27.7938H59.3486ZM60.8875 29.3283L61.865 28.7029L60.7872 27.0182L59.8097 27.6435L60.8875 29.3283ZM61.3261 28.8606H61.3504V26.8606H61.3261V28.8606ZM60.3504 27.8606V31.3028H62.3504V27.8606H60.3504ZM61.3504 32.3028H62.1092V30.3028H61.3504V32.3028ZM63.1092 31.3028V27.126H61.1092V31.3028H63.1092ZM62.1092 26.126H61.3868V28.126H62.1092V26.126ZM60.8458 26.285L59.8076 26.9528L60.8896 28.6348L61.9278 27.967L60.8458 26.285Z" fill="#1F1F1F" mask="url(#path-11-inside-1_23319_59756)"/>
<path d="M64.0223 30.629L64.0868 30.5658L64.1391 30.629H64.0223Z" fill="#1F1F1F" stroke="#1F1F1F"/>
<mask id="path-14-inside-2_23319_59756" fill="white">
<path d="M68.8724 29.1597V29.1294C69.0971 29.0808 69.2792 28.9776 69.4188 28.8197C69.5585 28.6619 69.6252 28.4616 69.6252 28.2309C69.6252 28.0184 69.5706 27.8241 69.4553 27.648C69.3399 27.472 69.1821 27.3323 68.9756 27.2291C68.7692 27.1259 68.5264 27.0713 68.2471 27.0713C67.9678 27.0713 67.7311 27.1199 67.5125 27.2231C67.294 27.3202 67.124 27.4598 66.9904 27.642C66.8629 27.818 66.7901 28.0244 66.7901 28.2612H67.5186C67.5186 28.1459 67.5611 28.0427 67.6279 27.9577C67.6947 27.8727 67.7796 27.8059 67.8889 27.7634C67.9982 27.7148 68.1136 27.6966 68.2471 27.6966C68.3807 27.6966 68.49 27.7209 68.5871 27.7695C68.6842 27.818 68.7571 27.8848 68.8117 27.9759C68.8664 28.0669 68.8906 28.1641 68.8906 28.2855C68.8906 28.4069 68.8603 28.5101 68.7996 28.6073C68.7389 28.7044 68.6539 28.7712 68.5385 28.8197C68.4292 28.8683 68.3018 28.8926 68.1561 28.8926H67.7857V29.4754H68.1561C68.3321 29.4754 68.4839 29.5058 68.6114 29.5543C68.7389 29.609 68.836 29.6818 68.9028 29.779C68.9696 29.8761 68.9999 29.9854 68.9999 30.1129C68.9999 30.2343 68.9696 30.3436 68.9028 30.4346C68.836 30.5257 68.7449 30.5986 68.6296 30.6532C68.5142 30.7078 68.3807 30.7321 68.2289 30.7321C68.0893 30.7321 67.9618 30.7078 67.8525 30.6653C67.7432 30.6228 67.6522 30.5561 67.5793 30.4711C67.5064 30.3861 67.4761 30.2889 67.47 30.1736H66.7051C66.7111 30.4103 66.784 30.6168 66.9176 30.7989C67.0511 30.981 67.2272 31.1207 67.4579 31.2178C67.6886 31.3149 67.9436 31.3696 68.241 31.3696C68.5385 31.3696 68.8056 31.3149 69.0363 31.2117C69.267 31.1085 69.4492 30.9628 69.5827 30.7807C69.7163 30.5986 69.7831 30.3861 69.7831 30.1554C69.7831 29.8943 69.7042 29.6758 69.5524 29.4997C69.4006 29.3236 69.1699 29.2144 68.8785 29.1719L68.8724 29.1597Z"/>
</mask>
<path d="M68.8724 29.1597V29.1294C69.0971 29.0808 69.2792 28.9776 69.4188 28.8197C69.5585 28.6619 69.6252 28.4616 69.6252 28.2309C69.6252 28.0184 69.5706 27.8241 69.4553 27.648C69.3399 27.472 69.1821 27.3323 68.9756 27.2291C68.7692 27.1259 68.5264 27.0713 68.2471 27.0713C67.9678 27.0713 67.7311 27.1199 67.5125 27.2231C67.294 27.3202 67.124 27.4598 66.9904 27.642C66.8629 27.818 66.7901 28.0244 66.7901 28.2612H67.5186C67.5186 28.1459 67.5611 28.0427 67.6279 27.9577C67.6947 27.8727 67.7796 27.8059 67.8889 27.7634C67.9982 27.7148 68.1136 27.6966 68.2471 27.6966C68.3807 27.6966 68.49 27.7209 68.5871 27.7695C68.6842 27.818 68.7571 27.8848 68.8117 27.9759C68.8664 28.0669 68.8906 28.1641 68.8906 28.2855C68.8906 28.4069 68.8603 28.5101 68.7996 28.6073C68.7389 28.7044 68.6539 28.7712 68.5385 28.8197C68.4292 28.8683 68.3018 28.8926 68.1561 28.8926H67.7857V29.4754H68.1561C68.3321 29.4754 68.4839 29.5058 68.6114 29.5543C68.7389 29.609 68.836 29.6818 68.9028 29.779C68.9696 29.8761 68.9999 29.9854 68.9999 30.1129C68.9999 30.2343 68.9696 30.3436 68.9028 30.4346C68.836 30.5257 68.7449 30.5986 68.6296 30.6532C68.5142 30.7078 68.3807 30.7321 68.2289 30.7321C68.0893 30.7321 67.9618 30.7078 67.8525 30.6653C67.7432 30.6228 67.6522 30.5561 67.5793 30.4711C67.5064 30.3861 67.4761 30.2889 67.47 30.1736H66.7051C66.7111 30.4103 66.784 30.6168 66.9176 30.7989C67.0511 30.981 67.2272 31.1207 67.4579 31.2178C67.6886 31.3149 67.9436 31.3696 68.241 31.3696C68.5385 31.3696 68.8056 31.3149 69.0363 31.2117C69.267 31.1085 69.4492 30.9628 69.5827 30.7807C69.7163 30.5986 69.7831 30.3861 69.7831 30.1554C69.7831 29.8943 69.7042 29.6758 69.5524 29.4997C69.4006 29.3236 69.1699 29.2144 68.8785 29.1719L68.8724 29.1597Z" fill="#1F1F1F"/>
<path d="M68.8724 29.1597H67.8724V29.3957L67.9779 29.6067L68.8724 29.1597ZM68.8724 29.1294L68.6611 28.152L67.8724 28.3225V29.1294H68.8724ZM67.5125 27.2231L67.9187 28.1369L67.9291 28.1322L67.9395 28.1273L67.5125 27.2231ZM66.9904 27.642L66.184 27.0506L66.1805 27.0555L66.9904 27.642ZM66.7901 28.2612H65.7901V29.2612H66.7901V28.2612ZM67.5186 28.2612V29.2612H68.5186V28.2612H67.5186ZM67.8889 27.7634L68.2514 28.6954L68.2734 28.6868L68.2951 28.6772L67.8889 27.7634ZM68.5385 28.8197L68.1505 27.8981L68.1414 27.9019L68.1324 27.9059L68.5385 28.8197ZM67.7857 28.8926V27.8926H66.7857V28.8926H67.7857ZM67.7857 29.4754H66.7857V30.4754H67.7857V29.4754ZM68.6114 29.5543L69.0053 28.6352L68.9865 28.6271L68.9674 28.6198L68.6114 29.5543ZM67.47 30.1736L68.4686 30.121L68.4188 29.1736H67.47V30.1736ZM66.7051 30.1736V29.1736H65.6791L65.7054 30.1992L66.7051 30.1736ZM68.8785 29.1719L67.984 29.6189L68.2174 30.086L68.7342 30.1614L68.8785 29.1719ZM69.8724 29.1597V29.1294H67.8724V29.1597H69.8724ZM69.0838 30.1068C69.4967 30.0175 69.8742 29.8143 70.1678 29.4823L68.6698 28.1572C68.6707 28.1561 68.6729 28.1539 68.6761 28.1513C68.6793 28.1487 68.6823 28.1467 68.6845 28.1455C68.6866 28.1443 68.6865 28.1446 68.6833 28.1458C68.6801 28.147 68.673 28.1494 68.6611 28.152L69.0838 30.1068ZM70.1678 29.4823C70.4954 29.112 70.6252 28.6629 70.6252 28.2309H68.6252C68.6252 28.2497 68.6226 28.2452 68.6294 28.2255C68.6369 28.2039 68.6508 28.1787 68.6698 28.1572L70.1678 29.4823ZM70.6252 28.2309C70.6252 27.8358 70.5202 27.4488 70.2917 27.1L68.6188 28.1961C68.6212 28.1997 68.6221 28.2017 68.6224 28.2022C68.6226 28.2027 68.6227 28.203 68.6228 28.2035C68.6229 28.2036 68.6252 28.2112 68.6252 28.2309H70.6252ZM70.2917 27.1C70.0737 26.7673 69.7777 26.5121 69.4229 26.3347L68.5284 28.1236C68.5864 28.1526 68.6061 28.1766 68.6188 28.1961L70.2917 27.1ZM69.4229 26.3347C69.0581 26.1523 68.6583 26.0713 68.2471 26.0713V28.0713C68.3945 28.0713 68.4803 28.0995 68.5284 28.1236L69.4229 26.3347ZM68.2471 26.0713C67.8446 26.0713 67.458 26.1429 67.0855 26.3188L67.9395 28.1273C68.0041 28.0968 68.0911 28.0713 68.2471 28.0713V26.0713ZM67.1064 26.3093C66.7275 26.4776 66.4199 26.7289 66.184 27.0506L67.7968 28.2333C67.828 28.1908 67.8604 28.1628 67.9187 28.1369L67.1064 26.3093ZM66.1805 27.0555C65.9346 27.3951 65.7901 27.8052 65.7901 28.2612H67.7901C67.7901 28.2535 67.7907 28.2488 67.791 28.2466C67.7914 28.2444 67.7917 28.2433 67.7918 28.2429C67.792 28.2425 67.7923 28.2415 67.7933 28.2395C67.7943 28.2376 67.7964 28.2339 67.8004 28.2285L66.1805 27.0555ZM66.7901 29.2612H67.5186V27.2612H66.7901V29.2612ZM68.5186 28.2612C68.5186 28.4028 68.4641 28.512 68.4142 28.5755L66.8416 27.3398C66.6581 27.5733 66.5186 27.8889 66.5186 28.2612H68.5186ZM68.4142 28.5755C68.3984 28.5956 68.3754 28.6197 68.3447 28.6429C68.3137 28.6663 68.2814 28.6837 68.2514 28.6954L67.5265 26.8314C67.2396 26.9429 67.0116 27.1234 66.8416 27.3398L68.4142 28.5755ZM68.2951 28.6772C68.2708 28.688 68.2492 28.6936 68.2356 28.6961C68.2238 28.6982 68.2252 28.6966 68.2471 28.6966V26.6966C68.0198 26.6966 67.7563 26.728 67.4828 26.8496L68.2951 28.6772ZM68.2471 28.6966C68.2531 28.6966 68.2421 28.6971 68.2194 28.6922C68.1955 28.6871 68.1677 28.6778 68.1399 28.6639L69.0343 26.875C68.7761 26.7459 68.509 26.6966 68.2471 26.6966V28.6966ZM68.1399 28.6639C68.1125 28.6502 68.0763 28.6276 68.0389 28.5932C68.0013 28.5587 67.9733 28.5222 67.9542 28.4904L69.6692 27.4614C69.5138 27.2023 69.2964 27.0061 69.0343 26.875L68.1399 28.6639ZM67.9542 28.4904C67.9326 28.4543 67.914 28.4112 67.9024 28.3652C67.8913 28.3216 67.8906 28.2918 67.8906 28.2855H69.8906C69.8906 28.014 69.8319 27.7326 69.6692 27.4614L67.9542 28.4904ZM67.8906 28.2855C67.8906 28.2611 67.8939 28.2242 67.9064 28.1808C67.9188 28.1371 67.9362 28.1018 67.9516 28.0773L69.6476 29.1373C69.8084 28.88 69.8906 28.593 69.8906 28.2855H67.8906ZM67.9516 28.0773C67.9798 28.0321 68.0176 27.989 68.0615 27.9535C68.1035 27.9196 68.1378 27.9034 68.1505 27.8981L68.9266 29.7414C69.1966 29.6277 69.4589 29.4392 69.6476 29.1373L67.9516 28.0773ZM68.1324 27.9059C68.1757 27.8867 68.1917 27.8926 68.1561 27.8926V29.8926C68.4118 29.8926 68.6828 29.8499 68.9447 29.7336L68.1324 27.9059ZM68.1561 27.8926H67.7857V29.8926H68.1561V27.8926ZM66.7857 28.8926V29.4754H68.7857V28.8926H66.7857ZM67.7857 30.4754H68.1561V28.4754H67.7857V30.4754ZM68.1561 30.4754C68.2158 30.4754 68.2465 30.4854 68.2554 30.4888L68.9674 28.6198C68.7213 28.5261 68.4484 28.4754 68.1561 28.4754V30.4754ZM68.2175 30.4735C68.2183 30.4738 68.1998 30.4661 68.1719 30.4447C68.1426 30.4222 68.1089 30.3893 68.0787 30.3455L69.7268 29.2124C69.5282 28.9236 69.2617 28.7451 69.0053 28.6352L68.2175 30.4735ZM68.0787 30.3455C68.0513 30.3056 68.0293 30.2593 68.0154 30.211C68.0019 30.1643 67.9999 30.129 67.9999 30.1129H69.9999C69.9999 29.8134 69.9243 29.4996 69.7268 29.2124L68.0787 30.3455ZM67.9999 30.1129C67.9999 30.0638 68.0146 29.9549 68.0964 29.8433L69.7092 31.026C69.9246 30.7323 69.9999 30.4048 69.9999 30.1129H67.9999ZM68.0964 29.8433C68.1166 29.8156 68.1389 29.7934 68.1597 29.7767C68.1801 29.7604 68.1956 29.7522 68.2015 29.7495L69.0577 31.5569C69.3033 31.4406 69.532 31.2676 69.7092 31.026L68.0964 29.8433ZM68.2015 29.7495C68.2277 29.737 68.2468 29.7325 68.2532 29.7313C68.2589 29.7302 68.2521 29.7321 68.2289 29.7321V31.7321C68.4845 31.7321 68.7736 31.6915 69.0577 31.5569L68.2015 29.7495ZM68.2289 29.7321C68.217 29.7321 68.2098 29.7311 68.2072 29.7306C68.2045 29.7301 68.2073 29.7304 68.2149 29.7333L67.4901 31.5973C67.7231 31.688 67.9745 31.7321 68.2289 31.7321V29.7321ZM68.2149 29.7333C68.2658 29.7531 68.3091 29.7859 68.3386 29.8203L66.82 31.1219C66.9952 31.3262 67.2207 31.4926 67.4901 31.5973L68.2149 29.7333ZM68.3386 29.8203C68.3834 29.8725 68.4192 29.9349 68.4423 30.0001C68.464 30.0614 68.4679 30.1067 68.4686 30.121L66.4714 30.2261C66.4859 30.5015 66.5687 30.8286 66.82 31.1219L68.3386 29.8203ZM67.47 29.1736H66.7051V31.1736H67.47V29.1736ZM65.7054 30.1992C65.7168 30.6417 65.8581 31.0451 66.1112 31.3903L67.724 30.2075C67.7133 30.193 67.7104 30.1852 67.7094 30.1822C67.7084 30.1793 67.7053 30.1697 67.7047 30.1479L65.7054 30.1992ZM66.1112 31.3903C66.3566 31.725 66.6802 31.9754 67.0698 32.1394L67.8459 30.2962C67.7742 30.2659 67.7456 30.2371 67.724 30.2075L66.1112 31.3903ZM67.0698 32.1394C67.4271 32.2899 67.8144 32.3696 68.241 32.3696V30.3696C68.0727 30.3696 67.9501 30.34 67.8459 30.2962L67.0698 32.1394ZM68.241 32.3696C68.6611 32.3696 69.0699 32.2922 69.4447 32.1245L68.628 30.2989C68.5414 30.3377 68.416 30.3696 68.241 30.3696V32.3696ZM69.4447 32.1245C69.8213 31.9561 70.1452 31.7046 70.3891 31.372L68.7763 30.1893C68.7531 30.221 68.7128 30.261 68.628 30.2989L69.4447 32.1245ZM70.3891 31.372C70.6548 31.0098 70.7831 30.5878 70.7831 30.1554H68.7831C68.7831 30.1735 68.7806 30.1814 68.7803 30.1825C68.78 30.1834 68.7797 30.1839 68.7794 30.1845C68.7791 30.1851 68.7783 30.1867 68.7763 30.1893L70.3891 31.372ZM70.7831 30.1554C70.7831 29.6769 70.632 29.2205 70.3098 28.8468L68.795 30.1526C68.7939 30.1514 68.7914 30.1482 68.7884 30.1432C68.7855 30.1382 68.7834 30.1333 68.782 30.1295C68.7807 30.1258 68.7809 30.125 68.7814 30.1284C68.782 30.1319 68.7831 30.1406 68.7831 30.1554H70.7831ZM70.3098 28.8468C69.9559 28.4363 69.4742 28.2482 69.0228 28.1823L68.7342 30.1614C68.7977 30.1707 68.827 30.1833 68.8327 30.1861C68.8363 30.1878 68.8179 30.1792 68.795 30.1526L70.3098 28.8468ZM69.773 28.7249L69.767 28.7127L67.9779 29.6067L67.984 29.6189L69.773 28.7249Z" fill="#1F1F1F" mask="url(#path-14-inside-2_23319_59756)"/>
<path d="M70.7784 64.0586C78.3762 64.0586 84.5354 57.8994 84.5354 50.3016C84.5354 42.7039 78.3762 36.5447 70.7784 36.5447C63.1807 36.5447 57.0215 42.7039 57.0215 50.3016C57.0215 57.8994 63.1807 64.0586 70.7784 64.0586Z" fill="#1B6163"/>
<path d="M79.532 44.6892H62.0232C60.1087 44.6892 58.5566 46.2412 58.5566 48.1558V52.4358C58.5566 54.3504 60.1087 55.9024 62.0232 55.9024H79.532C81.4465 55.9024 82.9986 54.3504 82.9986 52.4358V48.1558C82.9986 46.2412 81.4465 44.6892 79.532 44.6892Z" fill="white"/>
<path d="M64.2393 48.3257V49.291L65.5931 48.4229H65.6295V53.1947H66.6798V47.403H65.6781L64.2393 48.3257Z" fill="#1F1F1F"/>
<path d="M69.5995 52.2781L70.5951 51.2642C70.9715 50.8999 71.263 50.5964 71.4694 50.3414C71.6758 50.0864 71.8215 49.8557 71.9065 49.6432C71.9915 49.4368 72.0279 49.2183 72.0279 49.0058C72.0279 48.684 71.949 48.3926 71.7851 48.1376C71.6211 47.8826 71.3904 47.6884 71.099 47.5427C70.8076 47.3969 70.4616 47.3241 70.073 47.3241C69.6845 47.3241 69.3506 47.397 69.0592 47.5487C68.7617 47.7005 68.531 47.9069 68.3671 48.1801C68.2032 48.4533 68.1182 48.769 68.1182 49.1393H69.1138C69.1138 48.939 69.1502 48.769 69.2292 48.6294C69.3081 48.4837 69.4174 48.3744 69.5631 48.2955C69.7088 48.2165 69.8727 48.1801 70.0609 48.1801C70.2491 48.1801 70.413 48.2165 70.5587 48.2894C70.7044 48.3622 70.8198 48.4655 70.8987 48.5929C70.9776 48.7204 71.0201 48.8783 71.0201 49.0665C71.0201 49.2243 70.9898 49.3761 70.923 49.5218C70.8562 49.6614 70.7651 49.8071 70.6316 49.9589C70.5041 50.1107 70.3462 50.2807 70.152 50.475L68.1424 52.448V53.2069H72.1129V52.3327H69.5874V52.2963L69.5995 52.2781Z" fill="#1F1F1F"/>
<path d="M76.0598 50.226V50.1774C76.3755 50.1107 76.6244 49.965 76.8187 49.7464C77.013 49.5278 77.1101 49.2546 77.1041 48.9268C77.1041 48.6354 77.0251 48.3622 76.8673 48.1194C76.7094 47.8765 76.4909 47.6823 76.2055 47.5365C75.9202 47.3908 75.5863 47.318 75.1978 47.318C74.8092 47.318 74.4814 47.3848 74.1839 47.5244C73.8803 47.664 73.6436 47.8522 73.4614 48.1012C73.2793 48.3501 73.1882 48.6354 73.1822 48.9572H74.19C74.19 48.7932 74.2446 48.6536 74.3357 48.5383C74.4267 48.4229 74.5482 48.3319 74.6999 48.2651C74.8517 48.1983 75.0156 48.1679 75.1917 48.1679C75.3677 48.1679 75.5317 48.2044 75.6652 48.2711C75.7988 48.3379 75.902 48.4351 75.9809 48.5565C76.0598 48.6779 76.0902 48.8236 76.0902 48.9875C76.0902 49.1575 76.0477 49.3032 75.9627 49.4307C75.8777 49.5582 75.7563 49.6553 75.6045 49.7282C75.4527 49.795 75.2767 49.8314 75.0763 49.8314H74.5664V50.6388H75.0763C75.3192 50.6388 75.5317 50.6753 75.7077 50.7542C75.8838 50.8331 76.0173 50.9363 76.1084 51.0699C76.1995 51.2034 76.248 51.3552 76.242 51.5313C76.242 51.7013 76.1995 51.853 76.1084 51.9805C76.0173 52.108 75.8899 52.2112 75.732 52.2841C75.5742 52.3569 75.386 52.3934 75.1795 52.3934C74.9853 52.3934 74.8092 52.363 74.6514 52.2962C74.4935 52.2294 74.3721 52.1445 74.275 52.0291C74.1778 51.9138 74.1293 51.7741 74.1171 51.6223H73.0547C73.0668 51.9502 73.164 52.2355 73.3461 52.4844C73.5282 52.7333 73.7771 52.9276 74.0928 53.0672C74.4085 53.2069 74.7728 53.2737 75.1795 53.2737C75.5863 53.2737 75.9627 53.2008 76.2845 53.0551C76.6062 52.9094 76.8612 52.7091 77.0433 52.4541C77.2255 52.1991 77.3165 51.9077 77.3165 51.5859C77.3165 51.2217 77.2133 50.9181 76.9948 50.6753C76.7762 50.4324 76.4666 50.2806 76.0598 50.226Z" fill="#1F1F1F"/>
<path fill-rule="evenodd" clip-rule="evenodd" d="M77.7232 36.2019C76.2419 35.4733 74.6998 34.9998 73.1456 34.763L70.9236 31.3147L69.2784 34.6598C64.0452 35.1698 59.1884 38.2903 56.6932 43.3596C52.8624 51.1427 56.0618 60.5527 63.8448 64.3896C71.6279 68.2204 81.044 65.0271 84.8809 57.244C88.7117 49.461 85.5123 40.0388 77.7293 36.2079L77.7232 36.2019ZM64.7008 62.6351C57.8892 59.2778 55.0843 51.0273 58.4356 44.2156C61.7868 37.4039 70.0433 34.5991 76.855 37.9564C83.6667 41.3137 86.4776 49.5581 83.1203 56.3759C79.7631 63.1876 71.5186 65.9984 64.7008 62.6412V62.6351Z" fill="#1F1F1F"/>
</svg>
