<svg xmlns="http://www.w3.org/2000/svg" width="20" height="20" viewBox="0 0 20 20" fill="none">
<mask id="mask0_30599_19819" style="mask-type:alpha" maskUnits="userSpaceOnUse" x="0" y="0" width="20" height="20">
<rect width="20" height="20" fill="#D9D9D9"/>
</mask>
<g mask="url(#mask0_30599_19819)">
<path d="M4.41797 17.918C4.0013 17.918 3.64714 17.7721 3.35547 17.4805C3.0638 17.1888 2.91797 16.8346 2.91797 16.418V6.91797C2.91797 6.5013 3.0638 6.14714 3.35547 5.85547C3.64714 5.5638 4.0013 5.41797 4.41797 5.41797H6.2513C6.2513 4.3763 6.61575 3.49075 7.34464 2.7613C8.07408 2.03241 8.95964 1.66797 10.0013 1.66797C11.043 1.66797 11.9285 2.03241 12.658 2.7613C13.3869 3.49075 13.7513 4.3763 13.7513 5.41797H15.5846C16.0013 5.41797 16.3555 5.5638 16.6471 5.85547C16.9388 6.14714 17.0846 6.5013 17.0846 6.91797V16.418C17.0846 16.8346 16.9388 17.1888 16.6471 17.4805C16.3555 17.7721 16.0013 17.918 15.5846 17.918H4.41797ZM4.41797 16.668H15.5846C15.6402 16.668 15.6957 16.6402 15.7513 16.5846C15.8069 16.5291 15.8346 16.4735 15.8346 16.418V6.91797C15.8346 6.86241 15.8069 6.80686 15.7513 6.7513C15.6957 6.69575 15.6402 6.66797 15.5846 6.66797H4.41797C4.36241 6.66797 4.30686 6.69575 4.2513 6.7513C4.19575 6.80686 4.16797 6.86241 4.16797 6.91797V16.418C4.16797 16.4735 4.19575 16.5291 4.2513 16.5846C4.30686 16.6402 4.36241 16.668 4.41797 16.668ZM10.0013 11.2513C11.043 11.2513 11.9285 10.8869 12.658 10.158C13.3869 9.42852 13.7513 8.54297 13.7513 7.5013H12.5013C12.5013 8.19575 12.2582 8.78602 11.7721 9.27214C11.286 9.75825 10.6957 10.0013 10.0013 10.0013C9.30686 10.0013 8.71658 9.75825 8.23047 9.27214C7.74436 8.78602 7.5013 8.19575 7.5013 7.5013H6.2513C6.2513 8.54297 6.61575 9.42852 7.34464 10.158C8.07408 10.8869 8.95964 11.2513 10.0013 11.2513ZM7.5013 5.41797H12.5013C12.5013 4.72352 12.2582 4.13325 11.7721 3.64714C11.286 3.16102 10.6957 2.91797 10.0013 2.91797C9.30686 2.91797 8.71658 3.16102 8.23047 3.64714C7.74436 4.13325 7.5013 4.72352 7.5013 5.41797Z" fill="#4D4D4E"/>
</g>
</svg>