<svg width="20" height="20" viewBox="0 0 20 20" fill="none" xmlns="http://www.w3.org/2000/svg">
<mask id="mask0_28778_2320" style="mask-type:alpha" maskUnits="userSpaceOnUse" x="0" y="0" width="20" height="20">
<rect width="20" height="20" fill="var(--primaryColor)"/>
</mask>
<g mask="url(#mask0_28778_2320)">
<path d="M4.16602 13.3327V9.16602C4.16602 8.9299 4.24588 8.73199 4.4056 8.57227C4.56532 8.41254 4.76324 8.33268 4.99935 8.33268C5.23546 8.33268 5.43338 8.41254 5.5931 8.57227C5.75282 8.73199 5.83268 8.9299 5.83268 9.16602V13.3327C5.83268 13.5688 5.75282 13.7667 5.5931 13.9264C5.43338 14.0862 5.23546 14.166 4.99935 14.166C4.76324 14.166 4.56532 14.0862 4.4056 13.9264C4.24588 13.7667 4.16602 13.5688 4.16602 13.3327ZM9.16602 13.3327V9.16602C9.16602 8.9299 9.24588 8.73199 9.4056 8.57227C9.56532 8.41254 9.76324 8.33268 9.99935 8.33268C10.2355 8.33268 10.4334 8.41254 10.5931 8.57227C10.7528 8.73199 10.8327 8.9299 10.8327 9.16602V13.3327C10.8327 13.5688 10.7528 13.7667 10.5931 13.9264C10.4334 14.0862 10.2355 14.166 9.99935 14.166C9.76324 14.166 9.56532 14.0862 9.4056 13.9264C9.24588 13.7667 9.16602 13.5688 9.16602 13.3327ZM2.49935 17.4993C2.26324 17.4993 2.06532 17.4195 1.9056 17.2598C1.74588 17.1 1.66602 16.9021 1.66602 16.666C1.66602 16.4299 1.74588 16.232 1.9056 16.0723C2.06532 15.9125 2.26324 15.8327 2.49935 15.8327H17.4993C17.7355 15.8327 17.9334 15.9125 18.0931 16.0723C18.2528 16.232 18.3327 16.4299 18.3327 16.666C18.3327 16.9021 18.2528 17.1 18.0931 17.2598C17.9334 17.4195 17.7355 17.4993 17.4993 17.4993H2.49935ZM14.166 13.3327V9.16602C14.166 8.9299 14.2459 8.73199 14.4056 8.57227C14.5653 8.41254 14.7632 8.33268 14.9993 8.33268C15.2355 8.33268 15.4334 8.41254 15.5931 8.57227C15.7528 8.73199 15.8327 8.9299 15.8327 9.16602V13.3327C15.8327 13.5688 15.7528 13.7667 15.5931 13.9264C15.4334 14.0862 15.2355 14.166 14.9993 14.166C14.7632 14.166 14.5653 14.0862 14.4056 13.9264C14.2459 13.7667 14.166 13.5688 14.166 13.3327ZM17.4993 6.66602H2.41602C2.20768 6.66602 2.0306 6.5931 1.88477 6.44727C1.73893 6.30143 1.66602 6.12435 1.66602 5.91602V5.45768C1.66602 5.3049 1.70421 5.17296 1.7806 5.06185C1.85699 4.95074 1.95768 4.86046 2.08268 4.79102L9.24935 1.20768C9.48546 1.09657 9.73546 1.04102 9.99935 1.04102C10.2632 1.04102 10.5132 1.09657 10.7493 1.20768L17.8743 4.77018C18.0271 4.83963 18.1417 4.94379 18.2181 5.08268C18.2945 5.22157 18.3327 5.3674 18.3327 5.52018V5.83268C18.3327 6.06879 18.2528 6.26671 18.0931 6.42643C17.9334 6.58615 17.7355 6.66602 17.4993 6.66602ZM5.37435 4.99935H14.6243L9.99935 2.70768L5.37435 4.99935Z" fill="var(--primaryColor)"/>
</g>
</svg>
