<svg xmlns="http://www.w3.org/2000/svg" width="65" height="64" viewBox="0 0 65 64" fill="none">
  <g clip-path="url(#clip0_34446_134208)">
    <mask id="mask0_34446_134208" style="mask-type:luminance" maskUnits="userSpaceOnUse" x="0" y="0" width="65" height="64">
      <path d="M64.5 0H0.5V64H64.5V0Z" fill="white"/>
    </mask>
    <g mask="url(#mask0_34446_134208)">
      <g opacity="0.484846">
        <path d="M32.4488 0.191406C50.0245 0.191406 64.2726 14.4395 64.2726 32.0152C64.2726 49.5911 50.0245 63.839 32.4488 63.839C14.8731 63.839 0.625 49.5911 0.625 32.0152C0.625 14.4395 14.8731 0.191406 32.4488 0.191406Z" fill="#E2F0E4"/>
      </g>
      <path d="M32.5242 11.2422C43.9766 11.2422 53.275 20.5406 53.275 31.993C53.275 43.4454 43.9766 52.7438 32.5242 52.7438C21.0719 52.7438 11.7734 43.4454 11.7734 31.993C11.7734 20.5406 21.0719 11.2422 32.5242 11.2422Z" fill="#169256"/>
      <path d="M32.5242 11.2422C43.9766 11.2422 53.275 20.5406 53.275 31.993C53.275 43.4454 43.9766 52.7438 32.5242 52.7438C21.0719 52.7438 11.7734 43.4454 11.7734 31.993C11.7734 20.5406 21.0719 11.2422 32.5242 11.2422Z" stroke="#169256" stroke-width="18.895" stroke-linecap="round" stroke-linejoin="round"/>
      <path d="M42.2118 25.3574L28.6876 38.8816L21.7109 31.9049" stroke="white" stroke-width="3.04214" stroke-linecap="round" stroke-linejoin="round"/>
    </g>
  </g>
  <defs>
    <clipPath id="clip0_34446_134208">
      <rect width="64" height="64" fill="white" transform="translate(0.5)"/>
    </clipPath>
  </defs>
</svg>