<svg viewBox="0 0 38 38" fill="none" xmlns="http://www.w3.org/2000/svg">
<path d="M19.0003 7C12.3726 7 7 12.3728 7 19C7 25.6278 12.3726 31 18.9997 31C25.6268 31 31 25.6278 31 19C31 12.3728 25.6274 7 19.0003 7Z" fill="#5F259F"/>
<path d="M24.4876 15.7493V16.1597C24.4876 16.2805 24.4571 16.3709 24.3967 16.4313C24.3363 16.4917 24.2459 16.5222 24.1251 16.5222H23.4958H22.8664C22.7965 16.5222 22.7444 16.5408 22.7091 16.5791C22.6744 16.6173 22.6571 16.6748 22.6571 16.7508V21.633V26.514C22.6571 26.6348 22.6266 26.7257 22.5667 26.7856C22.5063 26.846 22.4154 26.8765 22.2945 26.8765H21.789H21.2841C21.1633 26.8765 21.0724 26.846 21.012 26.7856C20.9521 26.7257 20.9216 26.6354 20.9216 26.514V24.7498V22.9862H20.8845H20.8463C20.6931 23.253 20.4706 23.4528 20.178 23.5868C19.8861 23.7202 19.5242 23.7866 19.0911 23.7866H18.8147H18.5383C18.0998 23.7866 17.705 23.722 17.3538 23.5934C17.0021 23.4653 16.6946 23.2721 16.4308 23.0143C16.167 22.7576 15.9696 22.4525 15.8374 22.102C15.7057 21.7502 15.6393 21.3518 15.6393 20.9079V18.829V16.7508C15.6393 16.6814 15.625 16.6269 15.5963 16.5886C15.5682 16.5503 15.5251 16.5282 15.4677 16.5222H14.9143H14.3615C14.2407 16.5222 14.1504 16.4899 14.09 16.4265C14.0295 16.3631 13.999 16.2686 13.999 16.1406V15.7403V15.3395C13.999 15.2253 14.0295 15.1391 14.09 15.0829C14.1504 15.0254 14.2407 14.9967 14.3615 14.9967H17.1702H19.9788C19.5726 14.5738 19.179 14.1263 18.7985 13.6531C18.4181 13.1793 18.0514 12.681 17.6984 12.1557L17.1642 11.3636L16.6312 10.5728C16.6061 10.5291 16.5875 10.4824 16.5744 10.4352C16.5618 10.3873 16.5546 10.3383 16.5546 10.2874C16.5546 10.1923 16.5785 10.1205 16.6264 10.0727C16.6737 10.0254 16.7455 10.0015 16.8406 10.0015H17.422H18.0035C18.1178 10.0015 18.2165 10.0254 18.2996 10.0727C18.3822 10.1205 18.4492 10.1923 18.5 10.2874L19.8634 12.4806L21.2267 14.6731C21.2973 14.7814 21.3733 14.8627 21.4564 14.916C21.539 14.9698 21.6281 14.9967 21.7232 14.9967H21.7711H21.819H22.9723H24.1257C24.2465 14.9967 24.3369 15.0248 24.3973 15.0829C24.4577 15.1397 24.4882 15.2253 24.4882 15.3395V15.7493H24.4876Z" fill="white"/>
<path d="M20.7115 16.5215H19.1477H17.584C17.5134 16.5215 17.4608 16.54 17.4261 16.5783C17.3914 16.6166 17.374 16.674 17.374 16.75V18.7433V20.7355C17.374 21.2314 17.4949 21.6029 17.7365 21.8506C17.9782 22.0988 18.3407 22.2227 18.8235 22.2227H19.0807H19.338C19.6054 22.2227 19.8381 22.1886 20.0361 22.1204C20.2347 22.0522 20.3992 21.9493 20.529 21.8129C20.6594 21.6759 20.7576 21.515 20.8228 21.3295C20.888 21.1429 20.9209 20.9329 20.9209 20.6978V18.7242V16.7506C20.9209 16.6746 20.9035 16.6166 20.8682 16.5789C20.8335 16.54 20.7815 16.5215 20.7115 16.5215Z" fill="#5F259F"/>
</svg>
