<svg width="142" height="142" viewBox="0 0 142 142" fill="none" xmlns="http://www.w3.org/2000/svg">
<path d="M0.310547 0.308594H5.96572V5.96377H0.310547V0.308594ZM5.96572 0.308594H11.6209V5.96377H5.96572V0.308594ZM11.6209 0.308594H17.2761V5.96377H11.6209V0.308594ZM17.2761 0.308594H22.9312V5.96377H17.2761V0.308594ZM22.9312 0.308594H28.5864V5.96377H22.9312V0.308594ZM28.5864 0.308594H34.2416V5.96377H28.5864V0.308594ZM34.2416 0.308594H39.8968V5.96377H34.2416V0.308594ZM62.5174 0.308594H68.1726V5.96377H62.5174V0.308594ZM79.483 0.308594H85.1381V5.96377H79.483V0.308594ZM85.1381 0.308594H90.7933V5.96377H85.1381V0.308594ZM90.7933 0.308594H96.4485V5.96377H90.7933V0.308594ZM102.104 0.308594H107.759V5.96377H102.104V0.308594ZM107.759 0.308594H113.414V5.96377H107.759V0.308594ZM113.414 0.308594H119.069V5.96377H113.414V0.308594ZM119.069 0.308594H124.724V5.96377H119.069V0.308594ZM124.724 0.308594H130.38V5.96377H124.724V0.308594ZM130.38 0.308594H136.035V5.96377H130.38V0.308594ZM136.035 0.308594H141.69V5.96377H136.035V0.308594ZM0.310547 5.96377H5.96572V11.6189H0.310547V5.96377ZM34.2416 5.96377H39.8968V11.6189H34.2416V5.96377ZM51.2071 5.96377H56.8623V11.6189H51.2071V5.96377ZM73.8278 5.96377H79.483V11.6189H73.8278V5.96377ZM79.483 5.96377H85.1381V11.6189H79.483V5.96377ZM90.7933 5.96377H96.4485V11.6189H90.7933V5.96377ZM102.104 5.96377H107.759V11.6189H102.104V5.96377ZM136.035 5.96377H141.69V11.6189H136.035V5.96377ZM0.310547 11.6189H5.96572V17.2741H0.310547V11.6189ZM11.6209 11.6189H17.2761V17.2741H11.6209V11.6189ZM17.2761 11.6189H22.9312V17.2741H17.2761V11.6189ZM22.9312 11.6189H28.5864V17.2741H22.9312V11.6189ZM34.2416 11.6189H39.8968V17.2741H34.2416V11.6189ZM51.2071 11.6189H56.8623V17.2741H51.2071V11.6189ZM56.8623 11.6189H62.5174V17.2741H56.8623V11.6189ZM68.1726 11.6189H73.8278V17.2741H68.1726V11.6189ZM79.483 11.6189H85.1381V17.2741H79.483V11.6189ZM85.1381 11.6189H90.7933V17.2741H85.1381V11.6189ZM102.104 11.6189H107.759V17.2741H102.104V11.6189ZM113.414 11.6189H119.069V17.2741H113.414V11.6189ZM119.069 11.6189H124.724V17.2741H119.069V11.6189ZM124.724 11.6189H130.38V17.2741H124.724V11.6189ZM136.035 11.6189H141.69V17.2741H136.035V11.6189ZM0.310547 17.2741H5.96572V22.9293H0.310547V17.2741ZM11.6209 17.2741H17.2761V22.9293H11.6209V17.2741ZM17.2761 17.2741H22.9312V22.9293H17.2761V17.2741ZM22.9312 17.2741H28.5864V22.9293H22.9312V17.2741ZM34.2416 17.2741H39.8968V22.9293H34.2416V17.2741ZM45.5519 17.2741H51.2071V22.9293H45.5519V17.2741ZM51.2071 17.2741H56.8623V22.9293H51.2071V17.2741ZM68.1726 17.2741H73.8278V22.9293H68.1726V17.2741ZM79.483 17.2741H85.1381V22.9293H79.483V17.2741ZM85.1381 17.2741H90.7933V22.9293H85.1381V17.2741ZM102.104 17.2741H107.759V22.9293H102.104V17.2741ZM113.414 17.2741H119.069V22.9293H113.414V17.2741ZM119.069 17.2741H124.724V22.9293H119.069V17.2741ZM124.724 17.2741H130.38V22.9293H124.724V17.2741ZM136.035 17.2741H141.69V22.9293H136.035V17.2741ZM0.310547 22.9293H5.96572V28.5845H0.310547V22.9293ZM11.6209 22.9293H17.2761V28.5845H11.6209V22.9293ZM17.2761 22.9293H22.9312V28.5845H17.2761V22.9293ZM22.9312 22.9293H28.5864V28.5845H22.9312V22.9293ZM34.2416 22.9293H39.8968V28.5845H34.2416V22.9293ZM56.8623 22.9293H62.5174V28.5845H56.8623V22.9293ZM62.5174 22.9293H68.1726V28.5845H62.5174V22.9293ZM68.1726 22.9293H73.8278V28.5845H68.1726V22.9293ZM73.8278 22.9293H79.483V28.5845H73.8278V22.9293ZM79.483 22.9293H85.1381V28.5845H79.483V22.9293ZM102.104 22.9293H107.759V28.5845H102.104V22.9293ZM113.414 22.9293H119.069V28.5845H113.414V22.9293ZM119.069 22.9293H124.724V28.5845H119.069V22.9293ZM124.724 22.9293H130.38V28.5845H124.724V22.9293ZM136.035 22.9293H141.69V28.5845H136.035V22.9293ZM0.310547 28.5845H5.96572V34.2396H0.310547V28.5845ZM34.2416 28.5845H39.8968V34.2396H34.2416V28.5845ZM45.5519 28.5845H51.2071V34.2396H45.5519V28.5845ZM62.5174 28.5845H68.1726V34.2396H62.5174V28.5845ZM90.7933 28.5845H96.4485V34.2396H90.7933V28.5845ZM102.104 28.5845H107.759V34.2396H102.104V28.5845ZM136.035 28.5845H141.69V34.2396H136.035V28.5845ZM0.310547 34.2396H5.96572V39.8948H0.310547V34.2396ZM5.96572 34.2396H11.6209V39.8948H5.96572V34.2396ZM11.6209 34.2396H17.2761V39.8948H11.6209V34.2396ZM17.2761 34.2396H22.9312V39.8948H17.2761V34.2396ZM22.9312 34.2396H28.5864V39.8948H22.9312V34.2396ZM28.5864 34.2396H34.2416V39.8948H28.5864V34.2396ZM34.2416 34.2396H39.8968V39.8948H34.2416V34.2396ZM45.5519 34.2396H51.2071V39.8948H45.5519V34.2396ZM56.8623 34.2396H62.5174V39.8948H56.8623V34.2396ZM68.1726 34.2396H73.8278V39.8948H68.1726V34.2396ZM79.483 34.2396H85.1381V39.8948H79.483V34.2396ZM90.7933 34.2396H96.4485V39.8948H90.7933V34.2396ZM102.104 34.2396H107.759V39.8948H102.104V34.2396ZM107.759 34.2396H113.414V39.8948H107.759V34.2396ZM113.414 34.2396H119.069V39.8948H113.414V34.2396ZM119.069 34.2396H124.724V39.8948H119.069V34.2396ZM124.724 34.2396H130.38V39.8948H124.724V34.2396ZM130.38 34.2396H136.035V39.8948H130.38V34.2396ZM136.035 34.2396H141.69V39.8948H136.035V34.2396ZM45.5519 39.8948H51.2071V45.55H45.5519V39.8948ZM51.2071 39.8948H56.8623V45.55H51.2071V39.8948ZM56.8623 39.8948H62.5174V45.55H56.8623V39.8948ZM79.483 39.8948H85.1381V45.55H79.483V39.8948ZM85.1381 39.8948H90.7933V45.55H85.1381V39.8948ZM90.7933 39.8948H96.4485V45.55H90.7933V39.8948ZM5.96572 45.55H11.6209V51.2051H5.96572V45.55ZM11.6209 45.55H17.2761V51.2051H11.6209V45.55ZM34.2416 45.55H39.8968V51.2051H34.2416V45.55ZM73.8278 45.55H79.483V51.2051H73.8278V45.55ZM79.483 45.55H85.1381V51.2051H79.483V45.55ZM90.7933 45.55H96.4485V51.2051H90.7933V45.55ZM102.104 45.55H107.759V51.2051H102.104V45.55ZM107.759 45.55H113.414V51.2051H107.759V45.55ZM119.069 45.55H124.724V51.2051H119.069V45.55ZM5.96572 51.2051H11.6209V56.8603H5.96572V51.2051ZM11.6209 51.2051H17.2761V56.8603H11.6209V51.2051ZM22.9312 51.2051H28.5864V56.8603H22.9312V51.2051ZM39.8968 51.2051H45.5519V56.8603H39.8968V51.2051ZM56.8623 51.2051H62.5174V56.8603H56.8623V51.2051ZM62.5174 51.2051H68.1726V56.8603H62.5174V51.2051ZM68.1726 51.2051H73.8278V56.8603H68.1726V51.2051ZM73.8278 51.2051H79.483V56.8603H73.8278V51.2051ZM79.483 51.2051H85.1381V56.8603H79.483V51.2051ZM85.1381 51.2051H90.7933V56.8603H85.1381V51.2051ZM90.7933 51.2051H96.4485V56.8603H90.7933V51.2051ZM102.104 51.2051H107.759V56.8603H102.104V51.2051ZM107.759 51.2051H113.414V56.8603H107.759V51.2051ZM119.069 51.2051H124.724V56.8603H119.069V51.2051ZM130.38 51.2051H136.035V56.8603H130.38V51.2051ZM136.035 51.2051H141.69V56.8603H136.035V51.2051ZM34.2416 56.8603H39.8968V62.5155H34.2416V56.8603ZM62.5174 56.8603H68.1726V62.5155H62.5174V56.8603ZM85.1381 56.8603H90.7933V62.5155H85.1381V56.8603ZM96.4485 56.8603H102.104V62.5155H96.4485V56.8603ZM107.759 56.8603H113.414V62.5155H107.759V56.8603ZM119.069 56.8603H124.724V62.5155H119.069V56.8603ZM124.724 56.8603H130.38V62.5155H124.724V56.8603ZM136.035 56.8603H141.69V62.5155H136.035V56.8603ZM0.310547 62.5155H5.96572V68.1707H0.310547V62.5155ZM5.96572 62.5155H11.6209V68.1707H5.96572V62.5155ZM22.9312 62.5155H28.5864V68.1707H22.9312V62.5155ZM39.8968 62.5155H45.5519V68.1707H39.8968V62.5155ZM51.2071 62.5155H56.8623V68.1707H51.2071V62.5155ZM56.8623 62.5155H62.5174V68.1707H56.8623V62.5155ZM73.8278 62.5155H79.483V68.1707H73.8278V62.5155ZM85.1381 62.5155H90.7933V68.1707H85.1381V62.5155ZM96.4485 62.5155H102.104V68.1707H96.4485V62.5155ZM107.759 62.5155H113.414V68.1707H107.759V62.5155ZM119.069 62.5155H124.724V68.1707H119.069V62.5155ZM0.310547 68.1707H5.96572V73.8258H0.310547V68.1707ZM5.96572 68.1707H11.6209V73.8258H5.96572V68.1707ZM17.2761 68.1707H22.9312V73.8258H17.2761V68.1707ZM34.2416 68.1707H39.8968V73.8258H34.2416V68.1707ZM39.8968 68.1707H45.5519V73.8258H39.8968V68.1707ZM45.5519 68.1707H51.2071V73.8258H45.5519V68.1707ZM51.2071 68.1707H56.8623V73.8258H51.2071V68.1707ZM56.8623 68.1707H62.5174V73.8258H56.8623V68.1707ZM73.8278 68.1707H79.483V73.8258H73.8278V68.1707ZM85.1381 68.1707H90.7933V73.8258H85.1381V68.1707ZM90.7933 68.1707H96.4485V73.8258H90.7933V68.1707ZM102.104 68.1707H107.759V73.8258H102.104V68.1707ZM107.759 68.1707H113.414V73.8258H107.759V68.1707ZM136.035 68.1707H141.69V73.8258H136.035V68.1707ZM11.6209 73.8258H17.2761V79.481H11.6209V73.8258ZM17.2761 73.8258H22.9312V79.481H17.2761V73.8258ZM22.9312 73.8258H28.5864V79.481H22.9312V73.8258ZM56.8623 73.8258H62.5174V79.481H56.8623V73.8258ZM62.5174 73.8258H68.1726V79.481H62.5174V73.8258ZM68.1726 73.8258H73.8278V79.481H68.1726V73.8258ZM85.1381 73.8258H90.7933V79.481H85.1381V73.8258ZM90.7933 73.8258H96.4485V79.481H90.7933V73.8258ZM102.104 73.8258H107.759V79.481H102.104V73.8258ZM107.759 73.8258H113.414V79.481H107.759V73.8258ZM130.38 73.8258H136.035V79.481H130.38V73.8258ZM136.035 73.8258H141.69V79.481H136.035V73.8258ZM0.310547 79.481H5.96572V85.1362H0.310547V79.481ZM5.96572 79.481H11.6209V85.1362H5.96572V79.481ZM17.2761 79.481H22.9312V85.1362H17.2761V79.481ZM28.5864 79.481H34.2416V85.1362H28.5864V79.481ZM34.2416 79.481H39.8968V85.1362H34.2416V79.481ZM45.5519 79.481H51.2071V85.1362H45.5519V79.481ZM51.2071 79.481H56.8623V85.1362H51.2071V79.481ZM56.8623 79.481H62.5174V85.1362H56.8623V79.481ZM68.1726 79.481H73.8278V85.1362H68.1726V79.481ZM85.1381 79.481H90.7933V85.1362H85.1381V79.481ZM90.7933 79.481H96.4485V85.1362H90.7933V79.481ZM102.104 79.481H107.759V85.1362H102.104V79.481ZM119.069 79.481H124.724V85.1362H119.069V79.481ZM124.724 79.481H130.38V85.1362H124.724V79.481ZM136.035 79.481H141.69V85.1362H136.035V79.481ZM11.6209 85.1362H17.2761V90.7914H11.6209V85.1362ZM17.2761 85.1362H22.9312V90.7914H17.2761V85.1362ZM22.9312 85.1362H28.5864V90.7914H22.9312V85.1362ZM39.8968 85.1362H45.5519V90.7914H39.8968V85.1362ZM56.8623 85.1362H62.5174V90.7914H56.8623V85.1362ZM79.483 85.1362H85.1381V90.7914H79.483V85.1362ZM85.1381 85.1362H90.7933V90.7914H85.1381V85.1362ZM90.7933 85.1362H96.4485V90.7914H90.7933V85.1362ZM96.4485 85.1362H102.104V90.7914H96.4485V85.1362ZM102.104 85.1362H107.759V90.7914H102.104V85.1362ZM107.759 85.1362H113.414V90.7914H107.759V85.1362ZM113.414 85.1362H119.069V90.7914H113.414V85.1362ZM119.069 85.1362H124.724V90.7914H119.069V85.1362ZM0.310547 90.7914H5.96572V96.4465H0.310547V90.7914ZM5.96572 90.7914H11.6209V96.4465H5.96572V90.7914ZM11.6209 90.7914H17.2761V96.4465H11.6209V90.7914ZM22.9312 90.7914H28.5864V96.4465H22.9312V90.7914ZM34.2416 90.7914H39.8968V96.4465H34.2416V90.7914ZM45.5519 90.7914H51.2071V96.4465H45.5519V90.7914ZM62.5174 90.7914H68.1726V96.4465H62.5174V90.7914ZM90.7933 90.7914H96.4485V96.4465H90.7933V90.7914ZM96.4485 90.7914H102.104V96.4465H96.4485V90.7914ZM102.104 90.7914H107.759V96.4465H102.104V90.7914ZM107.759 90.7914H113.414V96.4465H107.759V90.7914ZM113.414 90.7914H119.069V96.4465H113.414V90.7914ZM130.38 90.7914H136.035V96.4465H130.38V90.7914ZM45.5519 96.4465H51.2071V102.102H45.5519V96.4465ZM51.2071 96.4465H56.8623V102.102H51.2071V96.4465ZM56.8623 96.4465H62.5174V102.102H56.8623V96.4465ZM62.5174 96.4465H68.1726V102.102H62.5174V96.4465ZM73.8278 96.4465H79.483V102.102H73.8278V96.4465ZM79.483 96.4465H85.1381V102.102H79.483V96.4465ZM90.7933 96.4465H96.4485V102.102H90.7933V96.4465ZM113.414 96.4465H119.069V102.102H113.414V96.4465ZM136.035 96.4465H141.69V102.102H136.035V96.4465ZM0.310547 102.102H5.96572V107.757H0.310547V102.102ZM5.96572 102.102H11.6209V107.757H5.96572V102.102ZM11.6209 102.102H17.2761V107.757H11.6209V102.102ZM17.2761 102.102H22.9312V107.757H17.2761V102.102ZM22.9312 102.102H28.5864V107.757H22.9312V102.102ZM28.5864 102.102H34.2416V107.757H28.5864V102.102ZM34.2416 102.102H39.8968V107.757H34.2416V102.102ZM56.8623 102.102H62.5174V107.757H56.8623V102.102ZM62.5174 102.102H68.1726V107.757H62.5174V102.102ZM79.483 102.102H85.1381V107.757H79.483V102.102ZM90.7933 102.102H96.4485V107.757H90.7933V102.102ZM102.104 102.102H107.759V107.757H102.104V102.102ZM113.414 102.102H119.069V107.757H113.414V102.102ZM136.035 102.102H141.69V107.757H136.035V102.102ZM0.310547 107.757H5.96572V113.412H0.310547V107.757ZM34.2416 107.757H39.8968V113.412H34.2416V107.757ZM51.2071 107.757H56.8623V113.412H51.2071V107.757ZM56.8623 107.757H62.5174V113.412H56.8623V107.757ZM68.1726 107.757H73.8278V113.412H68.1726V107.757ZM73.8278 107.757H79.483V113.412H73.8278V107.757ZM90.7933 107.757H96.4485V113.412H90.7933V107.757ZM113.414 107.757H119.069V113.412H113.414V107.757ZM130.38 107.757H136.035V113.412H130.38V107.757ZM0.310547 113.412H5.96572V119.067H0.310547V113.412ZM11.6209 113.412H17.2761V119.067H11.6209V113.412ZM17.2761 113.412H22.9312V119.067H17.2761V113.412ZM22.9312 113.412H28.5864V119.067H22.9312V113.412ZM34.2416 113.412H39.8968V119.067H34.2416V113.412ZM51.2071 113.412H56.8623V119.067H51.2071V113.412ZM56.8623 113.412H62.5174V119.067H56.8623V113.412ZM79.483 113.412H85.1381V119.067H79.483V113.412ZM85.1381 113.412H90.7933V119.067H85.1381V113.412ZM90.7933 113.412H96.4485V119.067H90.7933V113.412ZM96.4485 113.412H102.104V119.067H96.4485V113.412ZM102.104 113.412H107.759V119.067H102.104V113.412ZM107.759 113.412H113.414V119.067H107.759V113.412ZM113.414 113.412H119.069V119.067H113.414V113.412ZM130.38 113.412H136.035V119.067H130.38V113.412ZM136.035 113.412H141.69V119.067H136.035V113.412ZM0.310547 119.067H5.96572V124.722H0.310547V119.067ZM11.6209 119.067H17.2761V124.722H11.6209V119.067ZM17.2761 119.067H22.9312V124.722H17.2761V119.067ZM22.9312 119.067H28.5864V124.722H22.9312V119.067ZM34.2416 119.067H39.8968V124.722H34.2416V119.067ZM51.2071 119.067H56.8623V124.722H51.2071V119.067ZM56.8623 119.067H62.5174V124.722H56.8623V119.067ZM62.5174 119.067H68.1726V124.722H62.5174V119.067ZM68.1726 119.067H73.8278V124.722H68.1726V119.067ZM85.1381 119.067H90.7933V124.722H85.1381V119.067ZM96.4485 119.067H102.104V124.722H96.4485V119.067ZM113.414 119.067H119.069V124.722H113.414V119.067ZM124.724 119.067H130.38V124.722H124.724V119.067ZM130.38 119.067H136.035V124.722H130.38V119.067ZM0.310547 124.722H5.96572V130.378H0.310547V124.722ZM11.6209 124.722H17.2761V130.378H11.6209V124.722ZM17.2761 124.722H22.9312V130.378H17.2761V124.722ZM22.9312 124.722H28.5864V130.378H22.9312V124.722ZM34.2416 124.722H39.8968V130.378H34.2416V124.722ZM45.5519 124.722H51.2071V130.378H45.5519V124.722ZM73.8278 124.722H79.483V130.378H73.8278V124.722ZM79.483 124.722H85.1381V130.378H79.483V124.722ZM85.1381 124.722H90.7933V130.378H85.1381V124.722ZM90.7933 124.722H96.4485V130.378H90.7933V124.722ZM96.4485 124.722H102.104V130.378H96.4485V124.722ZM107.759 124.722H113.414V130.378H107.759V124.722ZM113.414 124.722H119.069V130.378H113.414V124.722ZM119.069 124.722H124.724V130.378H119.069V124.722ZM130.38 124.722H136.035V130.378H130.38V124.722ZM136.035 124.722H141.69V130.378H136.035V124.722ZM0.310547 130.378H5.96572V136.033H0.310547V130.378ZM34.2416 130.378H39.8968V136.033H34.2416V130.378ZM45.5519 130.378H51.2071V136.033H45.5519V130.378ZM51.2071 130.378H56.8623V136.033H51.2071V130.378ZM56.8623 130.378H62.5174V136.033H56.8623V130.378ZM73.8278 130.378H79.483V136.033H73.8278V130.378ZM90.7933 130.378H96.4485V136.033H90.7933V130.378ZM96.4485 130.378H102.104V136.033H96.4485V130.378ZM102.104 130.378H107.759V136.033H102.104V130.378ZM107.759 130.378H113.414V136.033H107.759V130.378ZM113.414 130.378H119.069V136.033H113.414V130.378ZM0.310547 136.033H5.96572V141.688H0.310547V136.033ZM5.96572 136.033H11.6209V141.688H5.96572V136.033ZM11.6209 136.033H17.2761V141.688H11.6209V136.033ZM17.2761 136.033H22.9312V141.688H17.2761V136.033ZM22.9312 136.033H28.5864V141.688H22.9312V136.033ZM28.5864 136.033H34.2416V141.688H28.5864V136.033ZM34.2416 136.033H39.8968V141.688H34.2416V136.033ZM56.8623 136.033H62.5174V141.688H56.8623V136.033ZM68.1726 136.033H73.8278V141.688H68.1726V136.033ZM90.7933 136.033H96.4485V141.688H90.7933V136.033ZM102.104 136.033H107.759V141.688H102.104V136.033ZM119.069 136.033H124.724V141.688H119.069V136.033ZM136.035 136.033H141.69V141.688H136.035V136.033Z" fill="#1F1F1F"/>
</svg>