<svg xmlns="http://www.w3.org/2000/svg" width="24" height="24" viewBox="0 0 427 203">
<g>
<path d="M 0.13 150.75 L 0.00 203.00 L 0.00 0.00 L 0.11 45.75 C0.20,86.66 0.34,90.55 1.46,82.50 C4.93,57.33 19.45,33.82 40.09,19.94 C57.53,8.21 71.80,3.81 92.50,3.78 C118.86,3.73 139.56,11.90 157.19,29.29 C175.15,47.00 183.73,66.73 184.68,92.50 C185.10,104.10 184.88,106.56 182.63,115.28 C179.58,127.09 172.96,141.31 166.66,149.63 C160.87,157.26 150.42,167.12 143.23,171.72 C105.02,196.16 57.99,190.58 26.39,157.86 C12.14,143.10 3.74,125.64 1.14,105.40 C0.54,100.72 0.21,115.33 0.13,150.75 ZM 73.00 175.99 C79.26,177.66 82.82,177.94 94.50,177.63 C110.14,177.22 116.40,175.87 127.91,170.44 C141.94,163.82 154.61,152.83 163.31,139.72 C168.22,132.32 170.29,127.57 173.57,116.13 C176.07,107.43 176.21,105.85 175.76,92.16 C175.17,74.49 172.71,65.57 164.69,52.13 C153.71,33.72 136.85,20.99 115.16,14.73 C104.52,11.67 82.26,11.72 70.73,14.83 C32.93,25.04 6.47,61.73 9.38,99.90 C10.99,120.98 18.12,136.87 32.94,152.36 C43.75,163.68 57.64,171.86 73.00,175.99 ZM 388.95 195.52 C386.49,196.80 370.40,197.00 270.03,197.00 L 153.96 197.00 L 152.83 194.53 C152.69,194.22 152.54,193.94 152.40,193.66 C152.02,192.93 151.70,192.31 151.81,191.79 C152.43,188.98 165.72,188.99 250.50,189.00 C256.36,189.00 262.56,189.00 269.12,189.00 C382.67,189.00 384.02,188.98 386.00,187.00 C387.95,185.05 388.00,183.67 388.00,132.22 C388.00,86.07 387.80,79.17 386.44,77.22 L 384.89 75.00 L 292.19 74.90 C241.21,74.85 198.38,74.49 197.00,74.11 C193.86,73.24 193.03,69.18 195.60,67.31 C197.04,66.25 215.48,66.00 290.67,66.00 C294.71,66.00 298.59,66.00 302.31,66.00 C380.79,65.99 389.14,65.99 392.45,70.07 C393.00,70.75 393.41,71.54 393.98,72.47 C395.94,75.64 396.00,77.30 396.00,131.50 C396.00,186.37 395.97,187.32 393.90,190.66 C392.75,192.52 390.52,194.71 388.95,195.52 ZM 417.39 154.91 C414.22,157.40 406.89,157.78 405.04,155.55 C403.02,153.12 404.75,150.14 408.58,149.42 C409.93,149.17 410.99,149.03 411.83,148.52 C415.00,146.59 415.00,139.43 415.00,101.25 C415.00,99.96 415.00,98.64 415.00,97.28 C415.00,51.33 414.94,49.94 413.00,48.00 C411.02,46.02 409.67,46.00 301.54,46.00 C193.09,46.00 192.06,45.98 191.00,44.00 C190.24,42.58 190.24,41.42 191.01,39.99 C192.08,37.99 192.74,37.98 304.12,38.24 L 416.15 38.50 L 419.58 42.24 L 423.00 45.97 L 423.00 96.53 L 423.00 99.38 C423.00,142.81 423.00,149.35 419.74,152.89 C419.09,153.59 418.32,154.18 417.39,154.91 ZM 282.00 166.69 C282.00,169.90 278.89,171.31 276.11,169.36 C273.73,167.70 253.73,144.10 249.40,137.86 C245.95,132.87 246.71,131.00 252.22,130.99 C258.90,130.99 264.10,129.10 267.88,125.32 C272.52,120.68 271.29,120.03 257.82,120.02 C249.46,120.00 246.80,119.66 245.57,118.43 C243.69,116.54 243.62,115.78 245.20,114.20 C246.00,113.40 250.43,113.00 258.53,113.00 C265.21,113.00 270.95,112.72 271.29,112.37 C272.44,111.22 268.99,106.04 266.73,105.51 C265.50,105.23 260.50,104.89 255.61,104.75 C246.28,104.49 243.90,103.30 245.31,99.64 C245.87,98.19 248.57,98.00 269.00,98.00 C289.43,98.00 292.13,98.19 292.69,99.64 C293.94,102.89 291.60,104.48 285.15,104.80 C281.77,104.96 279.00,105.55 279.00,106.10 C279.00,106.65 279.67,108.40 280.50,110.00 C281.82,112.56 282.61,112.93 287.25,113.20 C291.96,113.47 292.54,113.75 292.84,115.94 C293.30,119.19 290.67,121.00 285.48,121.00 C281.60,121.00 281.13,121.32 278.06,126.06 C274.67,131.28 269.89,135.10 264.26,137.06 C260.17,138.48 260.21,138.54 272.50,153.15 C278.31,160.07 282.00,165.32 282.00,166.69 ZM 130.17 131.35 C129.17,132.26 127.70,133.00 126.91,133.00 C126.12,133.00 119.85,127.37 112.98,120.48 L 100.50 107.96 L 96.32 108.58 C94.01,108.93 90.58,108.69 88.62,108.04 C84.43,106.66 79.45,101.30 78.55,97.22 C77.54,92.65 80.58,86.29 85.14,83.41 L 89.00 80.97 L 89.00 69.46 C89.00,56.99 89.39,56.13 94.50,57.41 C96.98,58.03 97.00,58.14 97.00,69.11 L 97.00 80.18 L 101.75 84.48 C106.47,88.75 106.50,88.82 106.50,95.14 L 106.50 101.50 L 119.25 114.64 C126.26,121.87 132.00,128.22 132.00,128.74 C132.00,129.26 131.18,130.43 130.17,131.35 ZM 89.00 99.00 C90.10,100.10 91.80,101.00 92.78,101.00 C98.39,101.00 101.21,93.66 96.78,90.56 C90.23,85.97 83.39,93.39 89.00,99.00 ZM 95.07 39.96 C90.95,42.17 89.00,40.25 89.00,34.00 C89.00,27.54 91.93,25.07 95.43,28.57 C97.79,30.93 97.54,38.64 95.07,39.96 ZM 96.23 164.57 C95.06,166.29 92.52,166.87 90.69,165.85 C89.43,165.14 89.00,163.53 89.00,159.56 C89.00,153.63 90.24,152.38 94.51,154.00 C96.63,154.81 97.00,155.58 96.98,159.23 C96.98,161.58 96.64,163.98 96.23,164.57 ZM 32.95 98.56 C31.35,100.49 24.55,100.40 22.57,98.43 C18.89,94.75 21.82,91.75 28.67,92.19 C32.84,92.46 33.54,92.81 33.83,94.81 C34.01,96.07 33.61,97.76 32.95,98.56 ZM 162.95 98.56 C162.29,99.35 160.07,100.00 158.00,100.00 C153.74,100.00 151.70,98.18 152.17,94.81 C152.47,92.72 153.02,92.50 158.00,92.50 C162.98,92.50 163.53,92.72 163.83,94.81 C164.01,96.07 163.61,97.76 162.95,98.56 Z" fill="rgb(44,44,44)"/>
<path d="M 0.11 45.75 L 0.00 0.00 L 0.12 44.25 C0.23,83.73 0.38,87.68 1.52,80.92 C2.82,73.23 5.10,65.74 8.22,58.67 C4.90,66.25 2.59,74.29 1.46,82.50 C0.34,90.55 0.20,86.66 0.11,45.75 ZM 21.76 152.73 C23.23,154.47 24.78,156.18 26.39,157.86 C34.53,166.29 43.70,172.92 53.47,177.69 C52.81,177.39 52.16,177.07 51.50,176.74 C40.12,171.09 29.97,162.77 21.76,152.73 ZM 0.77 105.27 C0.88,104.27 1.00,104.32 1.14,105.40 C1.61,109.07 2.27,112.64 3.12,116.12 C2.76,114.72 2.43,113.32 2.14,111.91 ZM 98.11 186.68 C113.54,185.76 129.00,180.82 143.23,171.72 C129.02,180.81 113.67,185.81 98.11,186.68 Z" fill="rgb(93,93,93)"/>
<path d="M 0.77 105.27 L 1.79 110.21 C1.40,108.82 1.05,107.82 0.82,107.55 C0.69,107.41 0.58,108.91 0.47,111.71 C0.55,108.43 0.65,106.29 0.77,105.27 ZM 1.30 82.19 C0.72,85.10 0.45,83.98 0.30,74.30 C0.47,79.93 0.70,82.69 1.00,82.50 C1.10,82.44 1.20,82.33 1.30,82.19 ZM 21.97 36.37 C17.77,41.41 14.10,46.93 11.04,52.78 C11.85,51.14 12.65,49.63 13.42,48.34 C15.89,44.19 18.78,40.16 21.97,36.37 ZM 3.24 116.62 C4.64,122.22 6.54,127.58 8.93,132.71 C6.38,127.40 4.44,121.98 3.24,116.62 ZM 3.89 70.58 C3.17,73.04 2.56,75.54 2.05,78.05 C2.24,76.30 2.91,73.65 3.89,70.58 Z" fill="rgb(163,163,163)"/>
<path d="M 0.00 154.80 C0.00,128.29 0.37,107.03 0.82,107.55 C1.27,108.07 2.21,111.43 2.90,115.00 C7.64,139.24 27.96,165.06 51.50,176.74 C81.73,191.75 114.74,189.94 143.23,171.72 C150.42,167.12 160.87,157.26 166.66,149.63 C172.96,141.31 179.58,127.09 182.63,115.28 C184.88,106.56 185.10,104.10 184.68,92.50 C183.73,66.73 175.15,47.00 157.19,29.29 C139.56,11.90 118.86,3.73 92.50,3.78 C71.80,3.81 57.53,8.21 40.09,19.94 C29.71,26.92 20.04,37.22 13.42,48.34 C8.46,56.68 2.00,74.00 2.00,78.96 C2.00,80.57 1.55,82.16 1.00,82.50 C0.34,82.91 0.00,69.01 0.00,41.56 L 0.00 0.00 L 213.50 0.00 L 427.00 0.00 L 427.00 101.50 L 427.00 203.00 L 213.50 203.00 L 0.00 203.00 L 0.00 154.80 ZM 388.95 195.52 C390.52,194.71 392.75,192.52 393.90,190.66 C395.97,187.32 396.00,186.37 396.00,131.50 C396.00,77.30 395.94,75.64 393.98,72.47 C389.81,65.73 394.18,66.00 290.67,66.00 C215.48,66.00 197.04,66.25 195.60,67.31 C193.03,69.18 193.86,73.24 197.00,74.11 C198.38,74.49 241.21,74.85 292.19,74.90 L 384.89 75.00 L 386.44 77.22 C387.80,79.17 388.00,86.07 388.00,132.22 C388.00,183.67 387.95,185.05 386.00,187.00 C384.02,188.98 382.67,189.00 269.12,189.00 C143.41,189.00 150.17,188.68 152.83,194.53 L 153.96 197.00 L 270.03 197.00 C370.40,197.00 386.49,196.80 388.95,195.52 ZM 282.00 166.69 C282.00,165.32 278.31,160.07 272.50,153.15 C260.21,138.54 260.17,138.48 264.26,137.06 C269.89,135.10 274.67,131.28 278.06,126.06 C281.13,121.32 281.60,121.00 285.48,121.00 C290.67,121.00 293.30,119.19 292.84,115.94 C292.54,113.75 291.96,113.47 287.25,113.20 C282.61,112.93 281.82,112.56 280.50,110.00 C279.67,108.40 279.00,106.65 279.00,106.10 C279.00,105.55 281.77,104.96 285.15,104.80 C291.60,104.48 293.94,102.89 292.69,99.64 C292.13,98.19 289.43,98.00 269.00,98.00 C248.57,98.00 245.87,98.19 245.31,99.64 C243.90,103.30 246.28,104.49 255.61,104.75 C260.50,104.89 265.50,105.23 266.73,105.51 C268.99,106.04 272.44,111.22 271.29,112.37 C270.95,112.72 265.21,113.00 258.53,113.00 C250.43,113.00 246.00,113.40 245.20,114.20 C243.62,115.78 243.69,116.54 245.57,118.43 C246.80,119.66 249.46,120.00 257.82,120.02 C271.29,120.03 272.52,120.68 267.88,125.32 C264.10,129.10 258.90,130.99 252.22,130.99 C246.71,131.00 245.95,132.87 249.40,137.86 C253.73,144.10 273.73,167.70 276.11,169.36 C278.89,171.31 282.00,169.90 282.00,166.69 ZM 417.39 154.91 C423.10,150.41 423.00,151.48 423.00,96.53 L 423.00 45.97 L 419.58 42.24 L 416.15 38.50 L 304.12 38.24 C192.74,37.98 192.08,37.99 191.01,39.99 C190.24,41.42 190.24,42.58 191.00,44.00 C192.06,45.98 193.09,46.00 301.54,46.00 C409.67,46.00 411.02,46.02 413.00,48.00 C414.94,49.94 415.00,51.33 415.00,97.28 C415.00,149.61 415.18,148.18 408.58,149.42 C404.75,150.14 403.02,153.12 405.04,155.55 C406.89,157.78 414.22,157.40 417.39,154.91 ZM 73.00 175.99 C57.64,171.86 43.75,163.68 32.94,152.36 C18.12,136.87 10.99,120.98 9.38,99.90 C6.47,61.73 32.93,25.04 70.73,14.83 C82.26,11.72 104.52,11.67 115.16,14.73 C136.85,20.99 153.71,33.72 164.69,52.13 C172.71,65.57 175.17,74.49 175.76,92.16 C176.21,105.85 176.07,107.43 173.57,116.13 C170.29,127.57 168.22,132.32 163.31,139.72 C154.61,152.83 141.94,163.82 127.91,170.44 C116.40,175.87 110.14,177.22 94.50,177.63 C82.82,177.94 79.26,177.66 73.00,175.99 ZM 96.23 164.57 C96.64,163.98 96.98,161.58 96.98,159.23 C97.00,155.58 96.63,154.81 94.51,154.00 C90.24,152.38 89.00,153.63 89.00,159.56 C89.00,163.53 89.43,165.14 90.69,165.85 C92.52,166.87 95.06,166.29 96.23,164.57 ZM 130.17 131.35 C131.18,130.43 132.00,129.26 132.00,128.74 C132.00,128.22 126.26,121.87 119.25,114.64 L 106.50 101.50 L 106.50 95.14 C106.50,88.82 106.47,88.75 101.75,84.48 L 97.00 80.18 L 97.00 69.11 C97.00,58.14 96.98,58.03 94.50,57.41 C89.39,56.13 89.00,56.99 89.00,69.46 L 89.00 80.97 L 85.14 83.41 C80.58,86.29 77.54,92.65 78.55,97.22 C79.45,101.30 84.43,106.66 88.62,108.04 C90.58,108.69 94.01,108.93 96.32,108.58 L 100.50 107.96 L 112.98 120.48 C119.85,127.37 126.12,133.00 126.91,133.00 C127.70,133.00 129.17,132.26 130.17,131.35 ZM 32.95 98.56 C33.61,97.76 34.01,96.07 33.83,94.81 C33.54,92.81 32.84,92.46 28.67,92.19 C21.82,91.75 18.89,94.75 22.57,98.43 C24.55,100.40 31.35,100.49 32.95,98.56 ZM 162.95 98.56 C163.61,97.76 164.01,96.07 163.83,94.81 C163.53,92.72 162.98,92.50 158.00,92.50 C153.02,92.50 152.47,92.72 152.17,94.81 C151.70,98.18 153.74,100.00 158.00,100.00 C160.07,100.00 162.29,99.35 162.95,98.56 ZM 95.07 39.96 C97.54,38.64 97.79,30.93 95.43,28.57 C91.93,25.07 89.00,27.54 89.00,34.00 C89.00,40.25 90.95,42.17 95.07,39.96 ZM 89.00 99.00 C83.39,93.39 90.23,85.97 96.78,90.56 C101.21,93.66 98.39,101.00 92.78,101.00 C91.80,101.00 90.10,100.10 89.00,99.00 Z" fill="rgb(254,254,254)"/>
</g>
</svg>
