<svg width="24" height="25" viewBox="0 0 24 25" fill="none" xmlns="http://www.w3.org/2000/svg">
<path d="M7 11.5H5V18.5H7V11.5ZM13 11.5H11V18.5H13V11.5ZM19 11.5H17V18.5H19V11.5ZM21.5 20.5H2.5V22.5H21.5V20.5ZM12 4.76L17.21 7.5H6.79L12 4.76ZM12 2.5L2.5 7.5V9.5H21.5V7.5L12 2.5ZM16 12.5C18.2091 12.5 20 14.2909 20 16.5C20 18.7091 18.2091 20.5 16 20.5C13.7909 20.5 12 18.7091 12 16.5C12 14.2909 13.7909 12.5 16 12.5ZM16 13.75C14.7574 13.75 13.75 14.7574 13.75 16C13.75 17.2426 14.7574 18.25 16 18.25C17.2426 18.25 18.25 17.2426 18.25 16C18.25 14.7574 17.2426 13.75 16 13.75ZM15.75 14.5V16.25L17.25 17L17.75 15.9L16.5 15.25V14.5H15.75Z" fill="var(--primaryColor)"/>
</svg>
