<svg xmlns="http://www.w3.org/2000/svg" width="16" height="17" viewBox="0 0 16 17" fill="none">
  <path d="M7.9935 1.83398C4.3135 1.83398 1.3335 4.82065 1.3335 8.50065C1.3335 12.1807 4.3135 15.1673 7.9935 15.1673C11.6802 15.1673 14.6668 12.1807 14.6668 8.50065C14.6668 4.82065 11.6802 1.83398 7.9935 1.83398ZM8.00016 13.834C5.0535 13.834 2.66683 11.4473 2.66683 8.50065C2.66683 5.55398 5.0535 3.16732 8.00016 3.16732C10.9468 3.16732 13.3335 5.55398 13.3335 8.50065C13.3335 11.4473 10.9468 13.834 8.00016 13.834ZM8.3335 5.16732H7.3335V9.16732L10.8335 11.2673L11.3335 10.4473L8.3335 8.66732V5.16732Z" fill="#4D4D4E"/>
</svg>