<svg width="18" height="18" viewBox="0 0 18 18" fill="none" xmlns="http://www.w3.org/2000/svg">
<path d="M8.80469 1.5C12.832 1.50024 16.1074 4.77636 16.1074 8.80371C16.1074 10.7039 15.377 12.4357 14.1836 13.7363L16.5332 16.0811C16.7528 16.3008 16.7539 16.6563 16.5342 16.876C16.4247 16.9869 16.2797 17.041 16.1357 17.041C15.9925 17.041 15.8485 16.9864 15.7383 16.877L13.3604 14.5049C12.1103 15.506 10.5271 16.1073 8.80469 16.1074C4.77726 16.1074 1.50011 12.8311 1.5 8.80371C1.5 4.77621 4.77719 1.5 8.80469 1.5ZM8.80469 2.625C5.39744 2.625 2.625 5.39646 2.625 8.80371C2.62511 12.2109 5.39751 14.9824 8.80469 14.9824C12.2109 14.9822 14.9823 12.2107 14.9824 8.80371C14.9824 5.39661 12.211 2.62524 8.80469 2.625Z" fill="#7D7676"/>
</svg>
