<svg width="14" height="16" viewBox="0 0 14 16" fill="none" xmlns="http://www.w3.org/2000/svg">
<path d="M11.5 11.09C10.93 11.09 10.42 11.315 10.03 11.6675L4.6825 8.55503C4.72 8.38253 4.75 8.21003 4.75 8.03003C4.75 7.85003 4.72 7.67753 4.6825 7.50503L9.97 4.42253C10.375 4.79753 10.9075 5.03003 11.5 5.03003C12.745 5.03003 13.75 4.02503 13.75 2.78003C13.75 1.53503 12.745 0.530029 11.5 0.530029C10.255 0.530029 9.25 1.53503 9.25 2.78003C9.25 2.96003 9.28 3.13253 9.3175 3.30503L4.03 6.38753C3.625 6.01253 3.0925 5.78003 2.5 5.78003C1.255 5.78003 0.25 6.78503 0.25 8.03003C0.25 9.27503 1.255 10.28 2.5 10.28C3.0925 10.28 3.625 10.0475 4.03 9.67253L9.37 12.7925C9.3325 12.95 9.31 13.115 9.31 13.28C9.31 14.4875 10.2925 15.47 11.5 15.47C12.7075 15.47 13.69 14.4875 13.69 13.28C13.69 12.0725 12.7075 11.09 11.5 11.09ZM11.5 2.03003C11.9125 2.03003 12.25 2.36753 12.25 2.78003C12.25 3.19253 11.9125 3.53003 11.5 3.53003C11.0875 3.53003 10.75 3.19253 10.75 2.78003C10.75 2.36753 11.0875 2.03003 11.5 2.03003ZM2.5 8.78003C2.0875 8.78003 1.75 8.44253 1.75 8.03003C1.75 7.61753 2.0875 7.28003 2.5 7.28003C2.9125 7.28003 3.25 7.61753 3.25 8.03003C3.25 8.44253 2.9125 8.78003 2.5 8.78003ZM11.5 14.045C11.0875 14.045 10.75 13.7075 10.75 13.295C10.75 12.8825 11.0875 12.545 11.5 12.545C11.9125 12.545 12.25 12.8825 12.25 13.295C12.25 13.7075 11.9125 14.045 11.5 14.045Z" fill="currentColor"/>
</svg>
