<svg xmlns="http://www.w3.org/2000/svg" width="14" height="14" viewBox="0 0 14 14" fill="none">
<path d="M10.5 4.59666C10.0567 4.59666 9.66 4.42166 9.35667 4.1475L5.1975 6.56833C5.22667 6.7025 5.25 6.83666 5.25 6.97666C5.25 7.11666 5.22667 7.25083 5.1975 7.385L9.31 9.7825C9.625 9.49083 10.0392 9.31 10.5 9.31C11.4683 9.31 12.25 10.0917 12.25 11.06C12.25 12.0283 11.4683 12.81 10.5 12.81C9.53166 12.81 8.75 12.0283 8.75 11.06C8.75 10.92 8.77333 10.7858 8.8025 10.6517L4.69 8.25416C4.375 8.54583 3.96083 8.72666 3.5 8.72666C2.53167 8.72666 1.75 7.945 1.75 6.97666C1.75 6.00833 2.53167 5.22666 3.5 5.22666C3.96083 5.22666 4.375 5.4075 4.69 5.69916L8.84333 3.2725C8.81417 3.15 8.79667 3.02166 8.79667 2.89333C8.79667 1.95416 9.56083 1.19 10.5 1.19C11.4392 1.19 12.2033 1.95416 12.2033 2.89333C12.2033 3.8325 11.4392 4.59666 10.5 4.59666ZM10.5 11.6433C10.8208 11.6433 11.0833 11.3808 11.0833 11.06C11.0833 10.7392 10.8208 10.4767 10.5 10.4767C10.1792 10.4767 9.91667 10.7392 9.91667 11.06C9.91666 11.3808 10.1792 11.6433 10.5 11.6433ZM3.5 6.39333C3.17917 6.39333 2.91667 6.65583 2.91667 6.97666C2.91667 7.2975 3.17917 7.56 3.5 7.56C3.82083 7.56 4.08333 7.2975 4.08333 6.97666C4.08333 6.65583 3.82083 6.39333 3.5 6.39333ZM10.5 2.29833C10.1792 2.29833 9.91667 2.56083 9.91667 2.88166C9.91667 3.2025 10.1792 3.465 10.5 3.465C10.8208 3.465 11.0833 3.2025 11.0833 2.88166C11.0833 2.56083 10.8208 2.29833 10.5 2.29833Z" fill="currentColor"/>
</svg>