<svg viewBox="0 0 40 40" xmlns="http://www.w3.org/2000/svg"><g id="Page-1" stroke="none" stroke-width="1" fill="none" fill-rule="evenodd"><g id="twitter_footer"><g id="Group" transform="translate(1 1)"><circle id="Oval" fill="#9B9B9B" cx="19" cy="19" r="19"></circle><path d="M28 14.578a6.412 6.412 0 01-1.885.53 3.359 3.359 0 001.444-1.861 6.465 6.465 0 01-2.086.815A3.237 3.237 0 0023.077 13c-1.812 0-3.281 1.507-3.281 3.366 0 .264.028.52.084.766-2.728-.14-5.146-1.479-6.766-3.518a3.427 3.427 0 00-.444 1.694c0 1.168.579 2.198 1.46 2.802a3.223 3.223 0 01-1.488-.42v.041c0 1.632 1.132 2.993 2.635 3.3a3.189 3.189 0 01-1.483.059c.418 1.337 1.63 2.31 3.066 2.337A6.482 6.482 0 0112 24.822a9.14 9.14 0 005.032 1.511c6.038 0 9.34-5.128 9.34-9.576 0-.147-.003-.293-.009-.436A6.737 6.737 0 0028 14.578" id="Twitter" fill="#FFF"></path></g></g></g></svg>