<svg width="18" height="18" viewBox="0 0 18 18" fill="none" xmlns="http://www.w3.org/2000/svg">
<mask id="mask0_39748_815649" style="mask-type:alpha" maskUnits="userSpaceOnUse" x="0" y="0" width="24" height="24">
<rect width="24" height="24" fill="#D9D9D9"/>
</mask>
<g mask="url(#mask0_39748_815649)">
<path d="M8.43788 15.6079V12.9036C8.43788 12.2132 8.33644 11.6848 8.13356 11.3184C7.93069 10.9521 7.64463 10.604 7.27537 10.2743L8.07731 9.47231C8.23694 9.61944 8.39631 9.79037 8.55544 9.98512C8.71456 10.1797 8.86288 10.3862 9.00038 10.6046C9.161 10.3334 9.34631 10.0831 9.55631 9.85387C9.76644 9.6245 9.9845 9.40787 10.2105 9.204C10.7624 8.70887 11.2273 8.11369 11.6051 7.41844C11.983 6.72319 12.1749 5.61119 12.1807 4.08244L11.2071 5.05594C11.1032 5.15981 10.9746 5.21294 10.8214 5.21531C10.668 5.21769 10.5331 5.16456 10.4167 5.05594C10.3004 4.93956 10.2422 4.80594 10.2422 4.65506C10.2422 4.50406 10.3004 4.37037 10.4167 4.254L12.2758 2.39494C12.3461 2.32469 12.4201 2.27519 12.498 2.24644C12.5759 2.21756 12.66 2.20312 12.7504 2.20312C12.8408 2.20312 12.9249 2.21756 13.0028 2.24644C13.0806 2.27519 13.1547 2.32469 13.2249 2.39494L15.0956 4.26562C15.1994 4.3695 15.2544 4.49806 15.2606 4.65131C15.2669 4.80469 15.2119 4.93956 15.0956 5.05594C14.9869 5.16456 14.8551 5.21887 14.7004 5.21887C14.5456 5.21887 14.4139 5.16456 14.3051 5.05594L13.3056 4.068C13.2998 5.80262 13.0645 7.09131 12.5996 7.93406C12.1348 8.77681 11.5941 9.479 10.9778 10.0406C10.5634 10.4175 10.2239 10.7886 9.95944 11.154C9.69506 11.5194 9.56288 12.1026 9.56288 12.9036V15.6079C9.56288 15.7675 9.509 15.9011 9.40125 16.0087C9.29363 16.1165 9.16 16.1704 9.00038 16.1704C8.84075 16.1704 8.70713 16.1165 8.5995 16.0087C8.49175 15.9011 8.43788 15.7675 8.43788 15.6079ZM4.85944 6.15506C4.80469 5.90019 4.76556 5.58431 4.74206 5.20744C4.71844 4.83044 4.70281 4.45062 4.69519 4.068L3.69563 5.06756C3.59175 5.17131 3.46313 5.22444 3.30975 5.22694C3.15638 5.22931 3.0215 5.17231 2.90513 5.05594C2.7965 4.94731 2.74219 4.81556 2.74219 4.66069C2.74219 4.50594 2.7965 4.37425 2.90513 4.26562L4.77581 2.39494C4.84606 2.32469 4.92013 2.27519 4.998 2.24644C5.07588 2.21756 5.16 2.20312 5.25038 2.20312C5.34075 2.20312 5.42488 2.21756 5.50275 2.24644C5.58062 2.27519 5.65469 2.32469 5.72494 2.39494L7.59562 4.26562C7.70712 4.37712 7.76213 4.50762 7.76063 4.65712C7.75925 4.80662 7.70037 4.93956 7.584 5.05594C7.46762 5.16456 7.33588 5.21887 7.18875 5.21887C7.04175 5.21887 6.91006 5.16456 6.79369 5.05594L5.82 4.09387C5.81525 4.43337 5.82656 4.76081 5.85394 5.07619C5.88131 5.39156 5.91475 5.66369 5.95425 5.89256L4.85944 6.15506ZM6.36394 9.39C6.13794 9.13712 5.91894 8.84175 5.70694 8.50387C5.49494 8.16587 5.31825 7.79106 5.17687 7.37944L6.26006 7.10981C6.36581 7.39919 6.49631 7.66869 6.65156 7.91831C6.80681 8.16781 6.97819 8.39112 7.16569 8.58825L6.36394 9.39Z" fill="var(--buttonPrimary, #4e3f09)"/>
</g>
</svg>
