<svg width="327" height="157" viewBox="0 0 327 157" fill="none" xmlns="http://www.w3.org/2000/svg">
<path d="M25.6855 58.1904L25.6855 91.0231" stroke="#888888" stroke-width="1.05435" stroke-dasharray="2.11 2.11"/>
<g clip-path="url(#clip0_23319_59525)">
<path d="M35.3171 91.1504H12.6518C11.4611 91.1504 10.5 92.1617 10.5 93.4169V138.884C10.5 140.132 11.4611 141.15 12.6518 141.15H35.3171C36.5077 141.15 37.4689 140.139 37.4689 138.884V93.4169C37.4689 92.1689 36.5077 91.1504 35.3171 91.1504Z" fill="#1B6163"/>
<path d="M35.3171 92.5703H12.6518C12.1645 92.5703 11.7695 92.9653 11.7695 93.4525V138.848C11.7695 139.335 12.1645 139.73 12.6518 139.73H35.3171C35.8043 139.73 36.1993 139.335 36.1993 138.848V93.4525C36.1993 92.9653 35.8043 92.5703 35.3171 92.5703Z" fill="white"/>
<g clip-path="url(#clip1_23319_59525)">
<path d="M16.25 108.5C16.9404 108.5 17.5 107.94 17.5 107.25C17.5 106.56 16.9404 106 16.25 106C15.5596 106 15 106.56 15 107.25C15 107.94 15.5596 108.5 16.25 108.5Z" fill="#4D4D4E"/>
<path d="M20.125 108.5C20.8154 108.5 21.375 107.94 21.375 107.25C21.375 106.56 20.8154 106 20.125 106C19.4346 106 18.875 106.56 18.875 107.25C18.875 107.94 19.4346 108.5 20.125 108.5Z" fill="#4D4D4E"/>
<path d="M24 108.5C24.6904 108.5 25.25 107.94 25.25 107.25C25.25 106.56 24.6904 106 24 106C23.3096 106 22.75 106.56 22.75 107.25C22.75 107.94 23.3096 108.5 24 108.5Z" fill="#4D4D4E"/>
<path d="M27.875 108.5C28.5654 108.5 29.125 107.94 29.125 107.25C29.125 106.56 28.5654 106 27.875 106C27.1846 106 26.625 106.56 26.625 107.25C26.625 107.94 27.1846 108.5 27.875 108.5Z" fill="#4D4D4E"/>
<path d="M31.75 108.5C32.4404 108.5 33 107.94 33 107.25C33 106.56 32.4404 106 31.75 106C31.0596 106 30.5 106.56 30.5 107.25C30.5 107.94 31.0596 108.5 31.75 108.5Z" fill="#4D4D4E"/>
</g>
</g>
<rect x="15" y="132" width="5" height="4.16667" rx="1" fill="#1B6163"/>
<rect x="21.5" y="132" width="5" height="4.16667" rx="1" fill="#1B6163"/>
<rect x="28" y="132" width="5" height="4.16667" rx="1" fill="#1B6163"/>
<rect x="15" y="126" width="5" height="4.16667" rx="1" fill="#1B6163"/>
<rect x="21.5" y="126" width="5" height="4.16667" rx="1" fill="#1B6163"/>
<rect x="28" y="126" width="5" height="4.16667" rx="1" fill="#1B6163"/>
<rect x="15" y="120" width="5" height="4.16667" rx="1" fill="#1B6163"/>
<rect x="21.5" y="120" width="5" height="4.16667" rx="1" fill="#1B6163"/>
<rect x="28" y="120" width="5" height="4.16667" rx="1" fill="#1B6163"/>
<path d="M33.6901 131.451L33.4677 131.666C33.1234 132.003 33.023 132.513 33.2167 132.95L34.8305 136.666C34.9166 136.874 35.0672 137.046 35.2537 137.168C35.9064 137.598 37.4485 138.631 37.4843 138.652C37.6206 138.767 37.7641 138.868 37.9219 138.954C38.9332 139.678 40.3032 139.836 41.501 139.24L45.9552 137.031C47.6837 136.178 48.3867 134.083 47.5331 132.355L44.0975 125.419" fill="white"/>
<path d="M33.6901 131.451L33.4677 131.666C33.1234 132.003 33.023 132.513 33.2167 132.95L34.8305 136.666C34.9166 136.874 35.0672 137.046 35.2537 137.168C35.9064 137.598 37.4485 138.631 37.4843 138.652C37.6206 138.767 37.7641 138.868 37.9219 138.954C38.9332 139.678 40.3032 139.836 41.501 139.24L45.9552 137.031C47.6837 136.178 48.3867 134.083 47.5331 132.355L44.0975 125.419" stroke="#1B6163" stroke-miterlimit="10" stroke-linecap="round"/>
<path d="M36.5735 130.382L32.3704 123.719C31.9544 123.059 31.0865 122.865 30.4266 123.281L30.2688 123.382C29.6089 123.798 29.4153 124.666 29.8313 125.326L34.0272 132.025L35.7271 135.453" fill="white"/>
<path d="M36.5735 130.382L32.3704 123.719C31.9544 123.059 31.0865 122.865 30.4266 123.281L30.2688 123.382C29.6089 123.798 29.4153 124.666 29.8313 125.326L34.0272 132.025L35.7271 135.453" stroke="#1B6163" stroke-miterlimit="10" stroke-linecap="round"/>
<path d="M39.2056 128.761L37.8715 126.064C37.5272 125.369 37.8141 124.522 38.5027 124.178L38.6748 124.092C39.3705 123.748 40.2169 124.035 40.5612 124.73L41.8666 127.37" fill="white"/>
<path d="M39.2056 128.761L37.8715 126.064C37.5272 125.369 37.8141 124.522 38.5027 124.178L38.6748 124.092C39.3705 123.748 40.2169 124.035 40.5612 124.73L41.8666 127.37" stroke="#1B6163" stroke-miterlimit="10" stroke-linecap="round"/>
<path d="M36.6449 130.347L34.7514 126.517C34.4071 125.821 34.694 124.975 35.3825 124.63L35.5547 124.544C36.2504 124.2 37.0968 124.487 37.4411 125.183L39.2127 128.762" fill="white"/>
<path d="M36.6449 130.347L34.7514 126.517C34.4071 125.821 34.694 124.975 35.3825 124.63L35.5547 124.544C36.2504 124.2 37.0968 124.487 37.4411 125.183L39.2127 128.762" stroke="#1B6163" stroke-miterlimit="10" stroke-linecap="round"/>
<path d="M41.8738 127.37L41.1135 125.828C40.7692 125.132 41.0561 124.286 41.7518 123.941L41.7805 123.927C42.4763 123.583 43.3226 123.87 43.6669 124.565L44.5205 126.287" fill="white"/>
<path d="M41.8738 127.37L41.1135 125.828C40.7692 125.132 41.0561 124.286 41.7518 123.941L41.7805 123.927C42.4763 123.583 43.3226 123.87 43.6669 124.565L44.5205 126.287" stroke="#1B6163" stroke-miterlimit="10" stroke-linecap="round"/>
<path d="M35.8171 16H13.1518C11.9611 16 11 17.0113 11 18.2665V63.7335C11 64.9815 11.9611 66 13.1518 66H35.8171C37.0077 66 37.9689 64.9887 37.9689 63.7335V18.2665C37.9689 17.0185 37.0077 16 35.8171 16Z" fill="#1B6163"/>
<path d="M35.8171 17.4199H13.1518C12.6645 17.4199 12.2695 17.8149 12.2695 18.3021V63.6974C12.2695 64.1846 12.6645 64.5796 13.1518 64.5796H35.8171C36.3043 64.5796 36.6993 64.1846 36.6993 63.6974V18.3021C36.6993 17.8149 36.3043 17.4199 35.8171 17.4199Z" fill="white"/>
<path fill-rule="evenodd" clip-rule="evenodd" d="M31.7217 43.5212L34.519 40.9678L33.1921 38.3282L31.7217 43.5284V43.5212Z" fill="#097939"/>
<path fill-rule="evenodd" clip-rule="evenodd" d="M30.7822 43.5212L33.5795 40.9678L32.2526 38.3282L30.7822 43.5284V43.5212Z" fill="#ED752E"/>
<path fill-rule="evenodd" clip-rule="evenodd" d="M16.9463 38.2637L15.727 42.5959L20.0448 42.6246L21.2283 38.2637H22.3257L20.9056 43.3347C20.8482 43.5283 20.6402 43.6861 20.4393 43.6861H14.9021C14.565 43.6861 14.3642 43.4208 14.4574 43.098L15.813 38.2565H16.9391L16.9463 38.2637ZM30.3016 38.235H31.399L29.8784 43.6933H28.7524L30.3016 38.235ZM22.4548 40.5087L27.9275 40.48L28.2933 39.3252H22.7274L23.0645 38.2637L28.9962 38.2063C29.362 38.2063 29.5844 38.486 29.4911 38.8447L28.9317 40.8888C28.8313 41.2475 28.4583 41.5344 28.0853 41.5344H23.1864L22.6055 43.7794H21.5367L22.4477 40.5087H22.4548Z" fill="#747474"/>
<path d="M31.7435 53.9498L31.4494 54.043C30.9904 54.1793 30.6676 54.5881 30.6318 55.0687L30.4668 58.8558C30.4668 59.2073 30.517 59.5946 30.7322 60.068C30.7322 60.068 31.9443 62.4134 32.0448 62.5569C32.6114 63.6686 33.759 64.4361 35.0931 64.4576L40.0637 64.5437C41.9931 64.5795 43.5783 63.0446 43.6069 61.1152L43.7361 53.376" fill="white"/>
<path d="M31.7435 53.9498L31.4494 54.043C30.9904 54.1793 30.6676 54.5881 30.6318 55.0687L30.4668 58.8558C30.4668 59.2073 30.517 59.5946 30.7322 60.068C30.7322 60.068 31.9443 62.4134 32.0448 62.5569C32.6114 63.6686 33.759 64.4361 35.0931 64.4576L40.0637 64.5437C41.9931 64.5795 43.5783 63.0446 43.6069 61.1152L43.7361 53.376" stroke="#1B6163" stroke-miterlimit="10" stroke-linecap="round"/>
<path d="M34.799 54.3231L34.1248 46.4763C34.0603 45.7017 33.3789 45.1279 32.6042 45.1925L32.4178 45.2068C31.6431 45.2714 31.0693 45.9527 31.1339 46.7274L31.7866 54.6029L31.722 58.4258" fill="white"/>
<path d="M34.799 54.3231L34.1248 46.4763C34.0603 45.7017 33.3789 45.1279 32.6042 45.1925L32.4178 45.2068C31.6431 45.2714 31.0693 45.9527 31.1339 46.7274L31.7866 54.6029L31.722 58.4258" stroke="#1B6163" stroke-miterlimit="10" stroke-linecap="round"/>
<path d="M37.8838 54.0943L37.934 51.0818C37.9483 50.3 38.5867 49.6832 39.3613 49.6975H39.555C40.3296 49.7119 40.9537 50.3574 40.9393 51.132L40.8891 54.08" fill="white"/>
<path d="M37.8838 54.0943L37.934 51.0818C37.9483 50.3 38.5867 49.6832 39.3613 49.6975H39.555C40.3296 49.7119 40.9537 50.3574 40.9393 51.132L40.8891 54.08" stroke="#1B6163" stroke-miterlimit="10" stroke-linecap="round"/>
<path d="M34.8711 54.3235L34.9428 50.0486C34.9572 49.2668 35.5955 48.65 36.3702 48.6643H36.5638C37.3385 48.6787 37.9625 49.3242 37.9481 50.0988L37.8836 54.0939" fill="white"/>
<path d="M34.8711 54.3235L34.9428 50.0486C34.9572 49.2668 35.5955 48.65 36.3702 48.6643H36.5638C37.3385 48.6787 37.9625 49.3242 37.9481 50.0988L37.8836 54.0939" stroke="#1B6163" stroke-miterlimit="10" stroke-linecap="round"/>
<path d="M40.8887 54.0793L40.9174 52.365C40.9317 51.5904 41.5701 50.9664 42.3519 50.9807H42.3806C43.1552 50.9951 43.7792 51.6334 43.7649 52.4081L43.729 54.3303" fill="white"/>
<path d="M40.8887 54.0793L40.9174 52.365C40.9317 51.5904 41.5701 50.9664 42.3519 50.9807H42.3806C43.1552 50.9951 43.7792 51.6334 43.7649 52.4081L43.729 54.3303" stroke="#1B6163" stroke-miterlimit="10" stroke-linecap="round"/>
<path d="M66.5398 40.6364C66.5398 41.5682 66.3693 42.3693 66.0284 43.0398C65.6875 43.7074 65.2202 44.2216 64.6264 44.5824C64.0355 44.9403 63.3636 45.1193 62.6108 45.1193C61.8551 45.1193 61.1804 44.9403 60.5866 44.5824C59.9957 44.2216 59.5298 43.706 59.1889 43.0355C58.848 42.3651 58.6776 41.5653 58.6776 40.6364C58.6776 39.7045 58.848 38.9048 59.1889 38.2372C59.5298 37.5668 59.9957 37.0526 60.5866 36.6946C61.1804 36.3338 61.8551 36.1534 62.6108 36.1534C63.3636 36.1534 64.0355 36.3338 64.6264 36.6946C65.2202 37.0526 65.6875 37.5668 66.0284 38.2372C66.3693 38.9048 66.5398 39.7045 66.5398 40.6364ZM65.2358 40.6364C65.2358 39.9261 65.1207 39.3281 64.8906 38.8423C64.6634 38.3537 64.3509 37.9844 63.9531 37.7344C63.5582 37.4815 63.1108 37.3551 62.6108 37.3551C62.108 37.3551 61.6591 37.4815 61.2642 37.7344C60.8693 37.9844 60.5568 38.3537 60.3267 38.8423C60.0994 39.3281 59.9858 39.9261 59.9858 40.6364C59.9858 41.3466 60.0994 41.946 60.3267 42.4347C60.5568 42.9205 60.8693 43.2898 61.2642 43.5426C61.6591 43.7926 62.108 43.9176 62.6108 43.9176C63.1108 43.9176 63.5582 43.7926 63.9531 43.5426C64.3509 43.2898 64.6634 42.9205 64.8906 42.4347C65.1207 41.946 65.2358 41.3466 65.2358 40.6364ZM68.0792 47.4545V38.4545H69.3235V39.5156H69.43C69.5039 39.3793 69.6104 39.2216 69.7496 39.0426C69.8888 38.8636 70.082 38.7074 70.3292 38.5739C70.5763 38.4375 70.9031 38.3693 71.3093 38.3693C71.8377 38.3693 72.3093 38.5028 72.7241 38.7699C73.1388 39.0369 73.4641 39.4219 73.6999 39.9247C73.9386 40.4276 74.0579 41.0327 74.0579 41.7401C74.0579 42.4474 73.94 43.054 73.7042 43.5597C73.4684 44.0625 73.1445 44.4503 72.7326 44.723C72.3207 44.9929 71.8505 45.1278 71.3221 45.1278C70.9244 45.1278 70.5991 45.0611 70.3462 44.9276C70.0962 44.794 69.9002 44.6378 69.7582 44.4588C69.6161 44.2798 69.5067 44.1207 69.43 43.9815H69.3533V47.4545H68.0792ZM69.3278 41.7273C69.3278 42.1875 69.3945 42.5909 69.5281 42.9375C69.6616 43.2841 69.8548 43.5554 70.1076 43.7514C70.3604 43.9446 70.6701 44.0412 71.0366 44.0412C71.4173 44.0412 71.7354 43.9403 71.9911 43.7386C72.2468 43.5341 72.44 43.2571 72.5707 42.9077C72.7042 42.5582 72.771 42.1648 72.771 41.7273C72.771 41.2955 72.7056 40.9077 72.5749 40.5639C72.4471 40.2202 72.2539 39.9489 71.9954 39.75C71.7397 39.5511 71.4201 39.4517 71.0366 39.4517C70.6673 39.4517 70.3548 39.5469 70.0991 39.7372C69.8462 39.9276 69.6545 40.1932 69.5238 40.5341C69.3931 40.875 69.3278 41.2727 69.3278 41.7273ZM78.3065 45.1321C77.6616 45.1321 77.1062 44.9943 76.6403 44.7188C76.1772 44.4403 75.8192 44.0497 75.5664 43.5469C75.3164 43.0412 75.1914 42.4489 75.1914 41.7699C75.1914 41.0994 75.3164 40.5085 75.5664 39.9972C75.8192 39.4858 76.1715 39.0866 76.6232 38.7997C77.0778 38.5128 77.609 38.3693 78.217 38.3693C78.5863 38.3693 78.9442 38.4304 79.2908 38.5526C79.6374 38.6747 79.9485 38.8665 80.2241 39.1278C80.4996 39.3892 80.717 39.7287 80.8761 40.1463C81.0352 40.5611 81.1147 41.0653 81.1147 41.6591V42.1108H75.9116V41.1562H79.8661C79.8661 40.821 79.7979 40.5241 79.6616 40.2656C79.5252 40.0043 79.3335 39.7983 79.0863 39.6477C78.842 39.4972 78.555 39.4219 78.2255 39.4219C77.8675 39.4219 77.555 39.5099 77.288 39.6861C77.0238 39.8594 76.8192 40.0866 76.6744 40.3679C76.5323 40.6463 76.4613 40.9489 76.4613 41.2756V42.0213C76.4613 42.4588 76.538 42.831 76.6914 43.1378C76.8477 43.4446 77.065 43.679 77.3434 43.8409C77.6218 44 77.9471 44.0795 78.3192 44.0795C78.5607 44.0795 78.7809 44.0455 78.9798 43.9773C79.1786 43.9062 79.3505 43.8011 79.4954 43.6619C79.6403 43.5227 79.7511 43.3509 79.8278 43.1463L81.0337 43.3636C80.9371 43.7187 80.7638 44.0298 80.5138 44.2969C80.2667 44.5611 79.9556 44.767 79.5806 44.9148C79.2085 45.0597 78.7837 45.1321 78.3065 45.1321ZM83.8026 41.1136V45H82.5284V38.4545H83.7514V39.5199H83.8324C83.983 39.1733 84.2188 38.8949 84.5398 38.6847C84.8636 38.4744 85.2713 38.3693 85.7628 38.3693C86.2088 38.3693 86.5994 38.4631 86.9347 38.6506C87.2699 38.8352 87.5298 39.1108 87.7145 39.4773C87.8991 39.8437 87.9915 40.2969 87.9915 40.8366V45H86.7173V40.9901C86.7173 40.5156 86.5938 40.1449 86.3466 39.8778C86.0994 39.608 85.7599 39.473 85.3281 39.473C85.0327 39.473 84.7699 39.5369 84.5398 39.6648C84.3125 39.7926 84.1321 39.9801 83.9986 40.2273C83.8679 40.4716 83.8026 40.767 83.8026 41.1136ZM95.9315 38.4545V39.4773H92.3562V38.4545H95.9315ZM93.315 36.8864H94.5891V43.0781C94.5891 43.3253 94.6261 43.5114 94.6999 43.6364C94.7738 43.7585 94.869 43.8423 94.9854 43.8878C95.1048 43.9304 95.234 43.9517 95.3732 43.9517C95.4755 43.9517 95.565 43.9446 95.6417 43.9304C95.7184 43.9162 95.7781 43.9048 95.8207 43.8963L96.0508 44.9489C95.9769 44.9773 95.8718 45.0057 95.7354 45.0341C95.5991 45.0653 95.4286 45.0824 95.2241 45.0852C94.8888 45.0909 94.5763 45.0312 94.2866 44.9062C93.9968 44.7812 93.7624 44.5881 93.5835 44.3267C93.4045 44.0653 93.315 43.7372 93.315 43.3423V36.8864ZM98.7557 41.1136V45H97.4815V36.2727H98.7386V39.5199H98.8196C98.973 39.1676 99.2074 38.8878 99.5227 38.6804C99.8381 38.473 100.25 38.3693 100.759 38.3693C101.207 38.3693 101.599 38.4616 101.935 38.6463C102.273 38.831 102.534 39.1065 102.719 39.473C102.906 39.8366 103 40.2912 103 40.8366V45H101.726V40.9901C101.726 40.5099 101.602 40.1378 101.355 39.8736C101.108 39.6065 100.764 39.473 100.324 39.473C100.023 39.473 99.7528 39.5369 99.5142 39.6648C99.2784 39.7926 99.0923 39.9801 98.956 40.2273C98.8224 40.4716 98.7557 40.767 98.7557 41.1136ZM107.521 45.1321C106.876 45.1321 106.321 44.9943 105.855 44.7188C105.392 44.4403 105.034 44.0497 104.781 43.5469C104.531 43.0412 104.406 42.4489 104.406 41.7699C104.406 41.0994 104.531 40.5085 104.781 39.9972C105.034 39.4858 105.386 39.0866 105.838 38.7997C106.293 38.5128 106.824 38.3693 107.432 38.3693C107.801 38.3693 108.159 38.4304 108.506 38.5526C108.852 38.6747 109.163 38.8665 109.439 39.1278C109.714 39.3892 109.932 39.7287 110.091 40.1463C110.25 40.5611 110.33 41.0653 110.33 41.6591V42.1108H105.126V41.1562H109.081C109.081 40.821 109.013 40.5241 108.876 40.2656C108.74 40.0043 108.548 39.7983 108.301 39.6477C108.057 39.4972 107.77 39.4219 107.44 39.4219C107.082 39.4219 106.77 39.5099 106.503 39.6861C106.239 39.8594 106.034 40.0866 105.889 40.3679C105.747 40.6463 105.676 40.9489 105.676 41.2756V42.0213C105.676 42.4588 105.753 42.831 105.906 43.1378C106.062 43.4446 106.28 43.679 106.558 43.8409C106.837 44 107.162 44.0795 107.534 44.0795C107.776 44.0795 107.996 44.0455 108.195 43.9773C108.393 43.9062 108.565 43.8011 108.71 43.6619C108.855 43.5227 108.966 43.3509 109.043 43.1463L110.249 43.3636C110.152 43.7187 109.979 44.0298 109.729 44.2969C109.482 44.5611 109.17 44.767 108.795 44.9148C108.423 45.0597 107.999 45.1321 107.521 45.1321ZM120.634 36.2727H121.955V42.0128C121.955 42.6236 121.811 43.1648 121.524 43.6364C121.237 44.1051 120.834 44.4744 120.314 44.7443C119.794 45.0114 119.185 45.1449 118.486 45.1449C117.79 45.1449 117.182 45.0114 116.662 44.7443C116.142 44.4744 115.739 44.1051 115.452 43.6364C115.165 43.1648 115.021 42.6236 115.021 42.0128V36.2727H116.338V41.9062C116.338 42.3011 116.425 42.652 116.598 42.9588C116.774 43.2656 117.023 43.5071 117.344 43.6832C117.665 43.8565 118.045 43.9432 118.486 43.9432C118.929 43.9432 119.311 43.8565 119.632 43.6832C119.956 43.5071 120.203 43.2656 120.374 42.9588C120.547 42.652 120.634 42.3011 120.634 41.9062V36.2727ZM123.869 45V36.2727H126.98C127.659 36.2727 128.221 36.3963 128.667 36.6435C129.113 36.8906 129.447 37.2287 129.669 37.6577C129.89 38.0838 130.001 38.5639 130.001 39.098C130.001 39.6349 129.889 40.1179 129.664 40.5469C129.443 40.973 129.108 41.3111 128.659 41.5611C128.213 41.8082 127.652 41.9318 126.975 41.9318H124.836V40.8153H126.856C127.285 40.8153 127.633 40.7415 127.9 40.5938C128.167 40.4432 128.363 40.2386 128.488 39.9801C128.613 39.7216 128.676 39.4276 128.676 39.098C128.676 38.7685 128.613 38.4759 128.488 38.2202C128.363 37.9645 128.166 37.7642 127.896 37.6193C127.629 37.4744 127.277 37.402 126.839 37.402H125.186V45H123.869ZM132.862 36.2727V45H131.545V36.2727H132.862ZM139.757 45.1449C139.343 45.1449 138.968 45.0682 138.632 44.9148C138.297 44.7585 138.032 44.5327 137.836 44.2372C137.642 43.9418 137.546 43.5795 137.546 43.1506C137.546 42.7812 137.617 42.4773 137.759 42.2386C137.901 42 138.093 41.8111 138.334 41.6719C138.576 41.5327 138.846 41.4276 139.144 41.3565C139.442 41.2855 139.746 41.2315 140.056 41.1946C140.448 41.1491 140.766 41.1122 141.01 41.0838C141.255 41.0526 141.432 41.0028 141.543 40.9347C141.654 40.8665 141.709 40.7557 141.709 40.6023V40.5724C141.709 40.2003 141.604 39.9119 141.394 39.7074C141.186 39.5028 140.877 39.4006 140.465 39.4006C140.036 39.4006 139.698 39.4957 139.451 39.6861C139.206 39.8736 139.037 40.0824 138.944 40.3125L137.746 40.0398C137.888 39.642 138.096 39.321 138.368 39.0767C138.644 38.8295 138.961 38.6506 139.319 38.5398C139.676 38.4261 140.053 38.3693 140.448 38.3693C140.709 38.3693 140.986 38.4006 141.279 38.4631C141.574 38.5227 141.85 38.6335 142.105 38.7955C142.364 38.9574 142.576 39.1889 142.74 39.4901C142.905 39.7884 142.988 40.1761 142.988 40.6534V45H141.743V44.1051H141.692C141.61 44.2699 141.486 44.4318 141.321 44.5909C141.157 44.75 140.945 44.8821 140.686 44.9872C140.428 45.0923 140.118 45.1449 139.757 45.1449ZM140.034 44.1222C140.387 44.1222 140.688 44.0526 140.938 43.9134C141.191 43.7741 141.382 43.5923 141.513 43.3679C141.647 43.1406 141.713 42.8977 141.713 42.6392V41.7955C141.668 41.8409 141.58 41.8835 141.449 41.9233C141.321 41.9602 141.175 41.9929 141.01 42.0213C140.846 42.0469 140.685 42.071 140.529 42.0938C140.373 42.1136 140.242 42.1307 140.137 42.1449C139.89 42.1761 139.664 42.2287 139.459 42.3026C139.257 42.3764 139.096 42.483 138.973 42.6222C138.854 42.7585 138.794 42.9403 138.794 43.1676C138.794 43.483 138.911 43.7216 139.144 43.8835C139.377 44.0426 139.674 44.1222 140.034 44.1222ZM144.685 47.4545V38.4545H145.929V39.5156H146.036C146.109 39.3793 146.216 39.2216 146.355 39.0426C146.494 38.8636 146.688 38.7074 146.935 38.5739C147.182 38.4375 147.509 38.3693 147.915 38.3693C148.443 38.3693 148.915 38.5028 149.33 38.7699C149.744 39.0369 150.07 39.4219 150.305 39.9247C150.544 40.4276 150.663 41.0327 150.663 41.7401C150.663 42.4474 150.545 43.054 150.31 43.5597C150.074 44.0625 149.75 44.4503 149.338 44.723C148.926 44.9929 148.456 45.1278 147.928 45.1278C147.53 45.1278 147.205 45.0611 146.952 44.9276C146.702 44.794 146.506 44.6378 146.364 44.4588C146.222 44.2798 146.112 44.1207 146.036 43.9815H145.959V47.4545H144.685ZM145.933 41.7273C145.933 42.1875 146 42.5909 146.134 42.9375C146.267 43.2841 146.46 43.5554 146.713 43.7514C146.966 43.9446 147.276 44.0412 147.642 44.0412C148.023 44.0412 148.341 43.9403 148.597 43.7386C148.852 43.5341 149.045 43.2571 149.176 42.9077C149.31 42.5582 149.376 42.1648 149.376 41.7273C149.376 41.2955 149.311 40.9077 149.18 40.5639C149.053 40.2202 148.859 39.9489 148.601 39.75C148.345 39.5511 148.026 39.4517 147.642 39.4517C147.273 39.4517 146.96 39.5469 146.705 39.7372C146.452 39.9276 146.26 40.1932 146.129 40.5341C145.999 40.875 145.933 41.2727 145.933 41.7273ZM152.091 47.4545V38.4545H153.335V39.5156H153.442C153.516 39.3793 153.622 39.2216 153.761 39.0426C153.901 38.8636 154.094 38.7074 154.341 38.5739C154.588 38.4375 154.915 38.3693 155.321 38.3693C155.849 38.3693 156.321 38.5028 156.736 38.7699C157.151 39.0369 157.476 39.4219 157.712 39.9247C157.95 40.4276 158.07 41.0327 158.07 41.7401C158.07 42.4474 157.952 43.054 157.716 43.5597C157.48 44.0625 157.156 44.4503 156.744 44.723C156.332 44.9929 155.862 45.1278 155.334 45.1278C154.936 45.1278 154.611 45.0611 154.358 44.9276C154.108 44.794 153.912 44.6378 153.77 44.4588C153.628 44.2798 153.518 44.1207 153.442 43.9815H153.365V47.4545H152.091ZM153.339 41.7273C153.339 42.1875 153.406 42.5909 153.54 42.9375C153.673 43.2841 153.866 43.5554 154.119 43.7514C154.372 43.9446 154.682 44.0412 155.048 44.0412C155.429 44.0412 155.747 43.9403 156.003 43.7386C156.259 43.5341 156.452 43.2571 156.582 42.9077C156.716 42.5582 156.783 42.1648 156.783 41.7273C156.783 41.2955 156.717 40.9077 156.587 40.5639C156.459 40.2202 156.266 39.9489 156.007 39.75C155.751 39.5511 155.432 39.4517 155.048 39.4517C154.679 39.4517 154.366 39.5469 154.111 39.7372C153.858 39.9276 153.666 40.1932 153.536 40.5341C153.405 40.875 153.339 41.2727 153.339 41.7273ZM165.43 45.1321C164.816 45.1321 164.281 44.9915 163.824 44.7102C163.366 44.429 163.011 44.0355 162.758 43.5298C162.505 43.0241 162.379 42.4332 162.379 41.7571C162.379 41.0781 162.505 40.4844 162.758 39.9759C163.011 39.4673 163.366 39.0724 163.824 38.7912C164.281 38.5099 164.816 38.3693 165.43 38.3693C166.044 38.3693 166.579 38.5099 167.037 38.7912C167.494 39.0724 167.849 39.4673 168.102 39.9759C168.355 40.4844 168.481 41.0781 168.481 41.7571C168.481 42.4332 168.355 43.0241 168.102 43.5298C167.849 44.0355 167.494 44.429 167.037 44.7102C166.579 44.9915 166.044 45.1321 165.43 45.1321ZM165.434 44.0625C165.832 44.0625 166.162 43.9574 166.423 43.7472C166.684 43.5369 166.877 43.2571 167.002 42.9077C167.13 42.5582 167.194 42.1733 167.194 41.7528C167.194 41.3352 167.13 40.9517 167.002 40.6023C166.877 40.25 166.684 39.9673 166.423 39.7543C166.162 39.5412 165.832 39.4347 165.434 39.4347C165.034 39.4347 164.701 39.5412 164.437 39.7543C164.176 39.9673 163.981 40.25 163.853 40.6023C163.728 40.9517 163.666 41.3352 163.666 41.7528C163.666 42.1733 163.728 42.5582 163.853 42.9077C163.981 43.2571 164.176 43.5369 164.437 43.7472C164.701 43.9574 165.034 44.0625 165.434 44.0625ZM171.178 41.1136V45H169.903V38.4545H171.126V39.5199H171.207C171.358 39.1733 171.594 38.8949 171.915 38.6847C172.239 38.4744 172.646 38.3693 173.138 38.3693C173.584 38.3693 173.974 38.4631 174.31 38.6506C174.645 38.8352 174.905 39.1108 175.089 39.4773C175.274 39.8437 175.366 40.2969 175.366 40.8366V45H174.092V40.9901C174.092 40.5156 173.969 40.1449 173.722 39.8778C173.474 39.608 173.135 39.473 172.703 39.473C172.408 39.473 172.145 39.5369 171.915 39.6648C171.688 39.7926 171.507 39.9801 171.374 40.2273C171.243 40.4716 171.178 40.767 171.178 41.1136ZM181.056 47.4545C180.866 47.4545 180.693 47.4389 180.537 47.4077C180.38 47.3793 180.264 47.348 180.187 47.3139L180.494 46.2699C180.727 46.3324 180.934 46.3594 181.116 46.3509C181.298 46.3423 181.458 46.2741 181.598 46.1463C181.74 46.0185 181.865 45.8097 181.973 45.5199L182.13 45.0852L179.735 38.4545H181.099L182.757 43.5341H182.825L184.483 38.4545H185.85L183.153 45.8736C183.028 46.2145 182.869 46.5028 182.676 46.7386C182.483 46.9773 182.252 47.1563 181.985 47.2756C181.718 47.3949 181.409 47.4545 181.056 47.4545ZM189.582 45.1321C188.969 45.1321 188.433 44.9915 187.976 44.7102C187.518 44.429 187.163 44.0355 186.911 43.5298C186.658 43.0241 186.531 42.4332 186.531 41.7571C186.531 41.0781 186.658 40.4844 186.911 39.9759C187.163 39.4673 187.518 39.0724 187.976 38.7912C188.433 38.5099 188.969 38.3693 189.582 38.3693C190.196 38.3693 190.732 38.5099 191.189 38.7912C191.646 39.0724 192.001 39.4673 192.254 39.9759C192.507 40.4844 192.634 41.0781 192.634 41.7571C192.634 42.4332 192.507 43.0241 192.254 43.5298C192.001 44.0355 191.646 44.429 191.189 44.7102C190.732 44.9915 190.196 45.1321 189.582 45.1321ZM189.587 44.0625C189.984 44.0625 190.314 43.9574 190.575 43.7472C190.837 43.5369 191.03 43.2571 191.155 42.9077C191.283 42.5582 191.347 42.1733 191.347 41.7528C191.347 41.3352 191.283 40.9517 191.155 40.6023C191.03 40.25 190.837 39.9673 190.575 39.7543C190.314 39.5412 189.984 39.4347 189.587 39.4347C189.186 39.4347 188.854 39.5412 188.589 39.7543C188.328 39.9673 188.134 40.25 188.006 40.6023C187.881 40.9517 187.818 41.3352 187.818 41.7528C187.818 42.1733 187.881 42.5582 188.006 42.9077C188.134 43.2571 188.328 43.5369 188.589 43.7472C188.854 43.9574 189.186 44.0625 189.587 44.0625ZM198.202 42.2855V38.4545H199.48V45H198.228V43.8665H198.159C198.009 44.2159 197.767 44.5071 197.435 44.7401C197.105 44.9702 196.695 45.0852 196.203 45.0852C195.783 45.0852 195.411 44.9929 195.087 44.8082C194.766 44.6207 194.513 44.3438 194.328 43.9773C194.147 43.6108 194.056 43.1577 194.056 42.6179V38.4545H195.33V42.4645C195.33 42.9105 195.453 43.2656 195.701 43.5298C195.948 43.794 196.269 43.9261 196.664 43.9261C196.902 43.9261 197.14 43.8665 197.375 43.7472C197.614 43.6278 197.811 43.4474 197.968 43.206C198.127 42.9645 198.205 42.6577 198.202 42.2855ZM201.192 45V38.4545H202.424V39.4943H202.492C202.612 39.142 202.822 38.8651 203.123 38.6634C203.427 38.4588 203.771 38.3565 204.154 38.3565C204.234 38.3565 204.327 38.3594 204.435 38.3651C204.546 38.3707 204.633 38.3778 204.695 38.3864V39.6051C204.644 39.5909 204.553 39.5753 204.423 39.5582C204.292 39.5384 204.161 39.5284 204.031 39.5284C203.729 39.5284 203.461 39.5923 203.225 39.7202C202.992 39.8452 202.808 40.0199 202.671 40.2443C202.535 40.4659 202.467 40.7187 202.467 41.0028V45H201.192ZM208.974 47.4545V38.4545H210.218V39.5156H210.325C210.398 39.3793 210.505 39.2216 210.644 39.0426C210.783 38.8636 210.977 38.7074 211.224 38.5739C211.471 38.4375 211.798 38.3693 212.204 38.3693C212.732 38.3693 213.204 38.5028 213.619 38.7699C214.033 39.0369 214.359 39.4219 214.594 39.9247C214.833 40.4276 214.952 41.0327 214.952 41.7401C214.952 42.4474 214.835 43.054 214.599 43.5597C214.363 44.0625 214.039 44.4503 213.627 44.723C213.215 44.9929 212.745 45.1278 212.217 45.1278C211.819 45.1278 211.494 45.0611 211.241 44.9276C210.991 44.794 210.795 44.6378 210.653 44.4588C210.511 44.2798 210.401 44.1207 210.325 43.9815H210.248V47.4545H208.974ZM210.222 41.7273C210.222 42.1875 210.289 42.5909 210.423 42.9375C210.556 43.2841 210.749 43.5554 211.002 43.7514C211.255 43.9446 211.565 44.0412 211.931 44.0412C212.312 44.0412 212.63 43.9403 212.886 43.7386C213.141 43.5341 213.335 43.2571 213.465 42.9077C213.599 42.5582 213.665 42.1648 213.665 41.7273C213.665 41.2955 213.6 40.9077 213.469 40.5639C213.342 40.2202 213.148 39.9489 212.89 39.75C212.634 39.5511 212.315 39.4517 211.931 39.4517C211.562 39.4517 211.249 39.5469 210.994 39.7372C210.741 39.9276 210.549 40.1932 210.418 40.5341C210.288 40.875 210.222 41.2727 210.222 41.7273ZM217.654 41.1136V45H216.38V36.2727H217.637V39.5199H217.718C217.871 39.1676 218.106 38.8878 218.421 38.6804C218.737 38.473 219.148 38.3693 219.657 38.3693C220.106 38.3693 220.498 38.4616 220.833 38.6463C221.171 38.831 221.433 39.1065 221.617 39.473C221.805 39.8366 221.898 40.2912 221.898 40.8366V45H220.624V40.9901C220.624 40.5099 220.501 40.1378 220.254 39.8736C220.006 39.6065 219.663 39.473 219.222 39.473C218.921 39.473 218.651 39.5369 218.413 39.6648C218.177 39.7926 217.991 39.9801 217.854 40.2273C217.721 40.4716 217.654 40.767 217.654 41.1136ZM226.356 45.1321C225.742 45.1321 225.207 44.9915 224.749 44.7102C224.292 44.429 223.937 44.0355 223.684 43.5298C223.431 43.0241 223.305 42.4332 223.305 41.7571C223.305 41.0781 223.431 40.4844 223.684 39.9759C223.937 39.4673 224.292 39.0724 224.749 38.7912C225.207 38.5099 225.742 38.3693 226.356 38.3693C226.969 38.3693 227.505 38.5099 227.962 38.7912C228.42 39.0724 228.775 39.4673 229.028 39.9759C229.281 40.4844 229.407 41.0781 229.407 41.7571C229.407 42.4332 229.281 43.0241 229.028 43.5298C228.775 44.0355 228.42 44.429 227.962 44.7102C227.505 44.9915 226.969 45.1321 226.356 45.1321ZM226.36 44.0625C226.758 44.0625 227.087 43.9574 227.349 43.7472C227.61 43.5369 227.803 43.2571 227.928 42.9077C228.056 42.5582 228.12 42.1733 228.12 41.7528C228.12 41.3352 228.056 40.9517 227.928 40.6023C227.803 40.25 227.61 39.9673 227.349 39.7543C227.087 39.5412 226.758 39.4347 226.36 39.4347C225.96 39.4347 225.627 39.5412 225.363 39.7543C225.102 39.9673 224.907 40.25 224.779 40.6023C224.654 40.9517 224.592 41.3352 224.592 41.7528C224.592 42.1733 224.654 42.5582 224.779 42.9077C224.907 43.2571 225.102 43.5369 225.363 43.7472C225.627 43.9574 225.96 44.0625 226.36 44.0625ZM232.103 41.1136V45H230.829V38.4545H232.052V39.5199H232.133C232.284 39.1733 232.52 38.8949 232.841 38.6847C233.164 38.4744 233.572 38.3693 234.064 38.3693C234.51 38.3693 234.9 38.4631 235.235 38.6506C235.571 38.8352 235.831 39.1108 236.015 39.4773C236.2 39.8437 236.292 40.2969 236.292 40.8366V45H235.018V40.9901C235.018 40.5156 234.895 40.1449 234.647 39.8778C234.4 39.608 234.061 39.473 233.629 39.473C233.333 39.473 233.071 39.5369 232.841 39.6648C232.613 39.7926 232.433 39.9801 232.299 40.2273C232.169 40.4716 232.103 40.767 232.103 41.1136ZM240.822 45.1321C240.177 45.1321 239.622 44.9943 239.156 44.7188C238.693 44.4403 238.335 44.0497 238.082 43.5469C237.832 43.0412 237.707 42.4489 237.707 41.7699C237.707 41.0994 237.832 40.5085 238.082 39.9972C238.335 39.4858 238.687 39.0866 239.139 38.7997C239.593 38.5128 240.125 38.3693 240.733 38.3693C241.102 38.3693 241.46 38.4304 241.806 38.5526C242.153 38.6747 242.464 38.8665 242.74 39.1278C243.015 39.3892 243.233 39.7287 243.392 40.1463C243.551 40.5611 243.63 41.0653 243.63 41.6591V42.1108H238.427V41.1562H242.382C242.382 40.821 242.314 40.5241 242.177 40.2656C242.041 40.0043 241.849 39.7983 241.602 39.6477C241.358 39.4972 241.071 39.4219 240.741 39.4219C240.383 39.4219 240.071 39.5099 239.804 39.6861C239.539 39.8594 239.335 40.0866 239.19 40.3679C239.048 40.6463 238.977 40.9489 238.977 41.2756V42.0213C238.977 42.4588 239.054 42.831 239.207 43.1378C239.363 43.4446 239.581 43.679 239.859 43.8409C240.137 44 240.463 44.0795 240.835 44.0795C241.076 44.0795 241.297 44.0455 241.495 43.9773C241.694 43.9062 241.866 43.8011 242.011 43.6619C242.156 43.5227 242.267 43.3509 242.343 43.1463L243.549 43.3636C243.453 43.7187 243.279 44.0298 243.029 44.2969C242.782 44.5611 242.471 44.767 242.096 44.9148C241.724 45.0597 241.299 45.1321 240.822 45.1321Z" fill="#4D4D4E"/>
<path d="M66.2074 114.111H64.8778C64.8267 113.827 64.7315 113.577 64.5923 113.361C64.4531 113.145 64.2827 112.962 64.081 112.811C63.8793 112.661 63.6534 112.547 63.4034 112.47C63.1563 112.393 62.8935 112.355 62.6151 112.355C62.1122 112.355 61.6619 112.482 61.2642 112.734C60.8693 112.987 60.5568 113.358 60.3267 113.847C60.0994 114.335 59.9858 114.932 59.9858 115.636C59.9858 116.347 60.0994 116.946 60.3267 117.435C60.5568 117.923 60.8707 118.293 61.2685 118.543C61.6662 118.793 62.1136 118.918 62.6108 118.918C62.8864 118.918 63.1477 118.881 63.3949 118.807C63.6449 118.73 63.8707 118.618 64.0724 118.47C64.2741 118.322 64.4446 118.142 64.5838 117.929C64.7259 117.713 64.8239 117.466 64.8778 117.188L66.2074 117.192C66.1364 117.621 65.9986 118.016 65.794 118.376C65.5923 118.734 65.3324 119.044 65.0142 119.305C64.6989 119.564 64.3381 119.764 63.9318 119.906C63.5256 120.048 63.0824 120.119 62.6023 120.119C61.8466 120.119 61.1733 119.94 60.5824 119.582C59.9915 119.222 59.5256 118.706 59.1847 118.036C58.8466 117.365 58.6776 116.565 58.6776 115.636C58.6776 114.705 58.848 113.905 59.1889 113.237C59.5298 112.567 59.9957 112.053 60.5866 111.695C61.1776 111.334 61.8494 111.153 62.6023 111.153C63.0653 111.153 63.4972 111.22 63.8977 111.354C64.3011 111.484 64.6634 111.678 64.9844 111.933C65.3054 112.186 65.571 112.496 65.7812 112.862C65.9915 113.226 66.1335 113.642 66.2074 114.111ZM70.4379 120.132C69.8242 120.132 69.2887 119.991 68.8313 119.71C68.3739 119.429 68.0188 119.036 67.766 118.53C67.5131 118.024 67.3867 117.433 67.3867 116.757C67.3867 116.078 67.5131 115.484 67.766 114.976C68.0188 114.467 68.3739 114.072 68.8313 113.791C69.2887 113.51 69.8242 113.369 70.4379 113.369C71.0515 113.369 71.587 113.51 72.0444 113.791C72.5018 114.072 72.8569 114.467 73.1097 114.976C73.3626 115.484 73.489 116.078 73.489 116.757C73.489 117.433 73.3626 118.024 73.1097 118.53C72.8569 119.036 72.5018 119.429 72.0444 119.71C71.587 119.991 71.0515 120.132 70.4379 120.132ZM70.4421 119.062C70.8398 119.062 71.1694 118.957 71.4308 118.747C71.6921 118.537 71.8853 118.257 72.0103 117.908C72.1381 117.558 72.2021 117.173 72.2021 116.753C72.2021 116.335 72.1381 115.952 72.0103 115.602C71.8853 115.25 71.6921 114.967 71.4308 114.754C71.1694 114.541 70.8398 114.435 70.4421 114.435C70.0415 114.435 69.7092 114.541 69.445 114.754C69.1836 114.967 68.989 115.25 68.8612 115.602C68.7362 115.952 68.6737 116.335 68.6737 116.753C68.6737 117.173 68.7362 117.558 68.8612 117.908C68.989 118.257 69.1836 118.537 69.445 118.747C69.7092 118.957 70.0415 119.062 70.4421 119.062ZM74.9112 120V113.455H76.1342V114.52H76.2152C76.3516 114.159 76.5746 113.878 76.8842 113.676C77.1939 113.472 77.5646 113.369 77.9964 113.369C78.4339 113.369 78.8004 113.472 79.0959 113.676C79.3942 113.881 79.6143 114.162 79.7564 114.52H79.8246C79.9808 114.17 80.2294 113.892 80.5703 113.685C80.9112 113.474 81.3175 113.369 81.7891 113.369C82.3828 113.369 82.8672 113.555 83.2422 113.928C83.62 114.3 83.8089 114.861 83.8089 115.611V120H82.5348V115.73C82.5348 115.287 82.4141 114.966 82.1726 114.767C81.9311 114.568 81.6428 114.469 81.3075 114.469C80.8928 114.469 80.5703 114.597 80.3402 114.852C80.1101 115.105 79.995 115.43 79.995 115.828V120H78.7251V115.649C78.7251 115.294 78.6143 115.009 78.3928 114.793C78.1712 114.577 77.8828 114.469 77.5277 114.469C77.2862 114.469 77.0632 114.533 76.8587 114.661C76.657 114.786 76.4936 114.96 76.3686 115.185C76.2464 115.409 76.1854 115.669 76.1854 115.964V120H74.9112ZM85.5167 122.455V113.455H86.761V114.516H86.8675C86.9414 114.379 87.0479 114.222 87.1871 114.043C87.3263 113.864 87.5195 113.707 87.7667 113.574C88.0138 113.438 88.3406 113.369 88.7468 113.369C89.2752 113.369 89.7468 113.503 90.1616 113.77C90.5763 114.037 90.9016 114.422 91.1374 114.925C91.3761 115.428 91.4954 116.033 91.4954 116.74C91.4954 117.447 91.3775 118.054 91.1417 118.56C90.9059 119.062 90.582 119.45 90.1701 119.723C89.7582 119.993 89.288 120.128 88.7596 120.128C88.3619 120.128 88.0366 120.061 87.7837 119.928C87.5337 119.794 87.3377 119.638 87.1957 119.459C87.0536 119.28 86.9442 119.121 86.8675 118.982H86.7908V122.455H85.5167ZM86.7653 116.727C86.7653 117.187 86.832 117.591 86.9656 117.938C87.0991 118.284 87.2923 118.555 87.5451 118.751C87.7979 118.945 88.1076 119.041 88.4741 119.041C88.8548 119.041 89.1729 118.94 89.4286 118.739C89.6843 118.534 89.8775 118.257 90.0082 117.908C90.1417 117.558 90.2085 117.165 90.2085 116.727C90.2085 116.295 90.1431 115.908 90.0124 115.564C89.8846 115.22 89.6914 114.949 89.4329 114.75C89.1772 114.551 88.8576 114.452 88.4741 114.452C88.1048 114.452 87.7923 114.547 87.5366 114.737C87.2837 114.928 87.092 115.193 86.9613 115.534C86.8306 115.875 86.7653 116.273 86.7653 116.727ZM94.1971 111.273V120H92.9229V111.273H94.1971ZM98.7322 120.132C98.0874 120.132 97.532 119.994 97.0661 119.719C96.603 119.44 96.245 119.05 95.9922 118.547C95.7422 118.041 95.6172 117.449 95.6172 116.77C95.6172 116.099 95.7422 115.509 95.9922 114.997C96.245 114.486 96.5973 114.087 97.049 113.8C97.5036 113.513 98.0348 113.369 98.6428 113.369C99.0121 113.369 99.37 113.43 99.7166 113.553C100.063 113.675 100.374 113.866 100.65 114.128C100.925 114.389 101.143 114.729 101.302 115.146C101.461 115.561 101.54 116.065 101.54 116.659V117.111H96.3374V116.156H100.292C100.292 115.821 100.224 115.524 100.087 115.266C99.951 115.004 99.7592 114.798 99.5121 114.648C99.2678 114.497 98.9808 114.422 98.6513 114.422C98.2933 114.422 97.9808 114.51 97.7138 114.686C97.4496 114.859 97.245 115.087 97.1001 115.368C96.9581 115.646 96.8871 115.949 96.8871 116.276V117.021C96.8871 117.459 96.9638 117.831 97.1172 118.138C97.2734 118.445 97.4908 118.679 97.7692 118.841C98.0476 119 98.3729 119.08 98.745 119.08C98.9865 119.08 99.2067 119.045 99.4055 118.977C99.6044 118.906 99.7763 118.801 99.9212 118.662C100.066 118.523 100.177 118.351 100.254 118.146L101.46 118.364C101.363 118.719 101.19 119.03 100.94 119.297C100.692 119.561 100.381 119.767 100.006 119.915C99.6342 120.06 99.2095 120.132 98.7322 120.132ZM106.01 113.455V114.477H102.434V113.455H106.01ZM103.393 111.886H104.667V118.078C104.667 118.325 104.704 118.511 104.778 118.636C104.852 118.759 104.947 118.842 105.064 118.888C105.183 118.93 105.312 118.952 105.451 118.952C105.554 118.952 105.643 118.945 105.72 118.93C105.797 118.916 105.856 118.905 105.899 118.896L106.129 119.949C106.055 119.977 105.95 120.006 105.814 120.034C105.677 120.065 105.507 120.082 105.302 120.085C104.967 120.091 104.654 120.031 104.365 119.906C104.075 119.781 103.841 119.588 103.662 119.327C103.483 119.065 103.393 118.737 103.393 118.342V111.886ZM110.17 120.132C109.525 120.132 108.969 119.994 108.504 119.719C108.04 119.44 107.683 119.05 107.43 118.547C107.18 118.041 107.055 117.449 107.055 116.77C107.055 116.099 107.18 115.509 107.43 114.997C107.683 114.486 108.035 114.087 108.487 113.8C108.941 113.513 109.472 113.369 110.08 113.369C110.45 113.369 110.808 113.43 111.154 113.553C111.501 113.675 111.812 113.866 112.087 114.128C112.363 114.389 112.58 114.729 112.739 115.146C112.898 115.561 112.978 116.065 112.978 116.659V117.111H107.775V116.156H111.729C111.729 115.821 111.661 115.524 111.525 115.266C111.388 115.004 111.197 114.798 110.95 114.648C110.705 114.497 110.418 114.422 110.089 114.422C109.731 114.422 109.418 114.51 109.151 114.686C108.887 114.859 108.683 115.087 108.538 115.368C108.396 115.646 108.325 115.949 108.325 116.276V117.021C108.325 117.459 108.401 117.831 108.555 118.138C108.711 118.445 108.928 118.679 109.207 118.841C109.485 119 109.81 119.08 110.183 119.08C110.424 119.08 110.644 119.045 110.843 118.977C111.042 118.906 111.214 118.801 111.359 118.662C111.504 118.523 111.614 118.351 111.691 118.146L112.897 118.364C112.8 118.719 112.627 119.03 112.377 119.297C112.13 119.561 111.819 119.767 111.444 119.915C111.072 120.06 110.647 120.132 110.17 120.132ZM120.623 113.455V114.477H117.048V113.455H120.623ZM118.006 111.886H119.281V118.078C119.281 118.325 119.317 118.511 119.391 118.636C119.465 118.759 119.56 118.842 119.677 118.888C119.796 118.93 119.925 118.952 120.065 118.952C120.167 118.952 120.256 118.945 120.333 118.93C120.41 118.916 120.469 118.905 120.512 118.896L120.742 119.949C120.668 119.977 120.563 120.006 120.427 120.034C120.29 120.065 120.12 120.082 119.915 120.085C119.58 120.091 119.268 120.031 118.978 119.906C118.688 119.781 118.454 119.588 118.275 119.327C118.096 119.065 118.006 118.737 118.006 118.342V111.886ZM123.447 116.114V120H122.173V111.273H123.43V114.52H123.511C123.664 114.168 123.899 113.888 124.214 113.68C124.529 113.473 124.941 113.369 125.45 113.369C125.899 113.369 126.291 113.462 126.626 113.646C126.964 113.831 127.225 114.107 127.41 114.473C127.598 114.837 127.691 115.291 127.691 115.837V120H126.417V115.99C126.417 115.51 126.294 115.138 126.047 114.874C125.799 114.607 125.456 114.473 125.015 114.473C124.714 114.473 124.444 114.537 124.206 114.665C123.97 114.793 123.784 114.98 123.647 115.227C123.514 115.472 123.447 115.767 123.447 116.114ZM132.213 120.132C131.568 120.132 131.012 119.994 130.547 119.719C130.083 119.44 129.725 119.05 129.473 118.547C129.223 118.041 129.098 117.449 129.098 116.77C129.098 116.099 129.223 115.509 129.473 114.997C129.725 114.486 130.078 114.087 130.529 113.8C130.984 113.513 131.515 113.369 132.123 113.369C132.493 113.369 132.85 113.43 133.197 113.553C133.544 113.675 133.855 113.866 134.13 114.128C134.406 114.389 134.623 114.729 134.782 115.146C134.941 115.561 135.021 116.065 135.021 116.659V117.111H129.818V116.156H133.772C133.772 115.821 133.704 115.524 133.568 115.266C133.431 115.004 133.24 114.798 132.993 114.648C132.748 114.497 132.461 114.422 132.132 114.422C131.774 114.422 131.461 114.51 131.194 114.686C130.93 114.859 130.725 115.087 130.581 115.368C130.439 115.646 130.368 115.949 130.368 116.276V117.021C130.368 117.459 130.444 117.831 130.598 118.138C130.754 118.445 130.971 118.679 131.25 118.841C131.528 119 131.853 119.08 132.225 119.08C132.467 119.08 132.687 119.045 132.886 118.977C133.085 118.906 133.257 118.801 133.402 118.662C133.547 118.523 133.657 118.351 133.734 118.146L134.94 118.364C134.843 118.719 134.67 119.03 134.42 119.297C134.173 119.561 133.862 119.767 133.487 119.915C133.115 120.06 132.69 120.132 132.213 120.132ZM139.61 122.455V113.455H140.855V114.516H140.961C141.035 114.379 141.142 114.222 141.281 114.043C141.42 113.864 141.613 113.707 141.86 113.574C142.108 113.438 142.434 113.369 142.841 113.369C143.369 113.369 143.841 113.503 144.255 113.77C144.67 114.037 144.995 114.422 145.231 114.925C145.47 115.428 145.589 116.033 145.589 116.74C145.589 117.447 145.471 118.054 145.235 118.56C145 119.062 144.676 119.45 144.264 119.723C143.852 119.993 143.382 120.128 142.853 120.128C142.456 120.128 142.13 120.061 141.877 119.928C141.627 119.794 141.431 119.638 141.289 119.459C141.147 119.28 141.038 119.121 140.961 118.982H140.885V122.455H139.61ZM140.859 116.727C140.859 117.187 140.926 117.591 141.059 117.938C141.193 118.284 141.386 118.555 141.639 118.751C141.892 118.945 142.201 119.041 142.568 119.041C142.949 119.041 143.267 118.94 143.522 118.739C143.778 118.534 143.971 118.257 144.102 117.908C144.235 117.558 144.302 117.165 144.302 116.727C144.302 116.295 144.237 115.908 144.106 115.564C143.978 115.22 143.785 114.949 143.527 114.75C143.271 114.551 142.951 114.452 142.568 114.452C142.199 114.452 141.886 114.547 141.63 114.737C141.377 114.928 141.186 115.193 141.055 115.534C140.924 115.875 140.859 116.273 140.859 116.727ZM148.922 120.145C148.507 120.145 148.132 120.068 147.797 119.915C147.461 119.759 147.196 119.533 147 119.237C146.806 118.942 146.71 118.58 146.71 118.151C146.71 117.781 146.781 117.477 146.923 117.239C147.065 117 147.257 116.811 147.498 116.672C147.74 116.533 148.01 116.428 148.308 116.357C148.606 116.286 148.91 116.232 149.22 116.195C149.612 116.149 149.93 116.112 150.174 116.084C150.419 116.053 150.596 116.003 150.707 115.935C150.818 115.866 150.873 115.756 150.873 115.602V115.572C150.873 115.2 150.768 114.912 150.558 114.707C150.35 114.503 150.041 114.401 149.629 114.401C149.2 114.401 148.862 114.496 148.615 114.686C148.37 114.874 148.201 115.082 148.108 115.312L146.91 115.04C147.052 114.642 147.26 114.321 147.532 114.077C147.808 113.83 148.125 113.651 148.483 113.54C148.841 113.426 149.217 113.369 149.612 113.369C149.873 113.369 150.15 113.401 150.443 113.463C150.738 113.523 151.014 113.634 151.27 113.795C151.528 113.957 151.74 114.189 151.904 114.49C152.069 114.788 152.152 115.176 152.152 115.653V120H150.907V119.105H150.856C150.774 119.27 150.65 119.432 150.485 119.591C150.321 119.75 150.109 119.882 149.85 119.987C149.592 120.092 149.282 120.145 148.922 120.145ZM149.199 119.122C149.551 119.122 149.852 119.053 150.102 118.913C150.355 118.774 150.547 118.592 150.677 118.368C150.811 118.141 150.877 117.898 150.877 117.639V116.795C150.832 116.841 150.744 116.884 150.613 116.923C150.485 116.96 150.339 116.993 150.174 117.021C150.01 117.047 149.849 117.071 149.693 117.094C149.537 117.114 149.406 117.131 149.301 117.145C149.054 117.176 148.828 117.229 148.623 117.303C148.422 117.376 148.26 117.483 148.137 117.622C148.018 117.759 147.958 117.94 147.958 118.168C147.958 118.483 148.075 118.722 148.308 118.884C148.541 119.043 148.838 119.122 149.199 119.122ZM154.42 122.455C154.229 122.455 154.056 122.439 153.9 122.408C153.744 122.379 153.627 122.348 153.55 122.314L153.857 121.27C154.09 121.332 154.298 121.359 154.479 121.351C154.661 121.342 154.822 121.274 154.961 121.146C155.103 121.018 155.228 120.81 155.336 120.52L155.494 120.085L153.099 113.455H154.462L156.12 118.534H156.188L157.846 113.455H159.214L156.516 120.874C156.391 121.214 156.232 121.503 156.039 121.739C155.846 121.977 155.616 122.156 155.349 122.276C155.082 122.395 154.772 122.455 154.42 122.455ZM160.411 120V113.455H161.634V114.52H161.715C161.852 114.159 162.075 113.878 162.384 113.676C162.694 113.472 163.065 113.369 163.496 113.369C163.934 113.369 164.3 113.472 164.596 113.676C164.894 113.881 165.114 114.162 165.256 114.52H165.325C165.481 114.17 165.729 113.892 166.07 113.685C166.411 113.474 166.817 113.369 167.289 113.369C167.883 113.369 168.367 113.555 168.742 113.928C169.12 114.3 169.309 114.861 169.309 115.611V120H168.035V115.73C168.035 115.287 167.914 114.966 167.673 114.767C167.431 114.568 167.143 114.469 166.808 114.469C166.393 114.469 166.07 114.597 165.84 114.852C165.61 115.105 165.495 115.43 165.495 115.828V120H164.225V115.649C164.225 115.294 164.114 115.009 163.893 114.793C163.671 114.577 163.383 114.469 163.028 114.469C162.786 114.469 162.563 114.533 162.359 114.661C162.157 114.786 161.994 114.96 161.869 115.185C161.746 115.409 161.685 115.669 161.685 115.964V120H160.411ZM173.838 120.132C173.193 120.132 172.637 119.994 172.172 119.719C171.708 119.44 171.35 119.05 171.098 118.547C170.848 118.041 170.723 117.449 170.723 116.77C170.723 116.099 170.848 115.509 171.098 114.997C171.35 114.486 171.703 114.087 172.154 113.8C172.609 113.513 173.14 113.369 173.748 113.369C174.118 113.369 174.475 113.43 174.822 113.553C175.169 113.675 175.48 113.866 175.755 114.128C176.031 114.389 176.248 114.729 176.407 115.146C176.566 115.561 176.646 116.065 176.646 116.659V117.111H171.443V116.156H175.397C175.397 115.821 175.329 115.524 175.193 115.266C175.056 115.004 174.865 114.798 174.618 114.648C174.373 114.497 174.086 114.422 173.757 114.422C173.399 114.422 173.086 114.51 172.819 114.686C172.555 114.859 172.35 115.087 172.206 115.368C172.064 115.646 171.993 115.949 171.993 116.276V117.021C171.993 117.459 172.069 117.831 172.223 118.138C172.379 118.445 172.596 118.679 172.875 118.841C173.153 119 173.478 119.08 173.85 119.08C174.092 119.08 174.312 119.045 174.511 118.977C174.71 118.906 174.882 118.801 175.027 118.662C175.172 118.523 175.282 118.351 175.359 118.146L176.565 118.364C176.468 118.719 176.295 119.03 176.045 119.297C175.798 119.561 175.487 119.767 175.112 119.915C174.74 120.06 174.315 120.132 173.838 120.132ZM179.334 116.114V120H178.06V113.455H179.283V114.52H179.364C179.514 114.173 179.75 113.895 180.071 113.685C180.395 113.474 180.803 113.369 181.294 113.369C181.74 113.369 182.131 113.463 182.466 113.651C182.801 113.835 183.061 114.111 183.246 114.477C183.43 114.844 183.523 115.297 183.523 115.837V120H182.249V115.99C182.249 115.516 182.125 115.145 181.878 114.878C181.631 114.608 181.291 114.473 180.859 114.473C180.564 114.473 180.301 114.537 180.071 114.665C179.844 114.793 179.663 114.98 179.53 115.227C179.399 115.472 179.334 115.767 179.334 116.114ZM188.287 113.455V114.477H184.712V113.455H188.287ZM185.67 111.886H186.945V118.078C186.945 118.325 186.982 118.511 187.055 118.636C187.129 118.759 187.224 118.842 187.341 118.888C187.46 118.93 187.589 118.952 187.729 118.952C187.831 118.952 187.92 118.945 187.997 118.93C188.074 118.916 188.134 118.905 188.176 118.896L188.406 119.949C188.332 119.977 188.227 120.006 188.091 120.034C187.955 120.065 187.784 120.082 187.58 120.085C187.244 120.091 186.932 120.031 186.642 119.906C186.352 119.781 186.118 119.588 185.939 119.327C185.76 119.065 185.67 118.737 185.67 118.342V111.886ZM192.974 120V111.273H194.249V114.516H194.325C194.399 114.379 194.506 114.222 194.645 114.043C194.784 113.864 194.977 113.707 195.224 113.574C195.472 113.438 195.798 113.369 196.205 113.369C196.733 113.369 197.205 113.503 197.619 113.77C198.034 114.037 198.359 114.422 198.595 114.925C198.834 115.428 198.953 116.033 198.953 116.74C198.953 117.447 198.835 118.054 198.599 118.56C198.364 119.062 198.04 119.45 197.628 119.723C197.216 119.993 196.746 120.128 196.217 120.128C195.82 120.128 195.494 120.061 195.241 119.928C194.991 119.794 194.795 119.638 194.653 119.459C194.511 119.28 194.402 119.121 194.325 118.982H194.219V120H192.974ZM194.223 116.727C194.223 117.187 194.29 117.591 194.423 117.938C194.557 118.284 194.75 118.555 195.003 118.751C195.256 118.945 195.565 119.041 195.932 119.041C196.312 119.041 196.631 118.94 196.886 118.739C197.142 118.534 197.335 118.257 197.466 117.908C197.599 117.558 197.666 117.165 197.666 116.727C197.666 116.295 197.601 115.908 197.47 115.564C197.342 115.22 197.149 114.949 196.891 114.75C196.635 114.551 196.315 114.452 195.932 114.452C195.562 114.452 195.25 114.547 194.994 114.737C194.741 114.928 194.55 115.193 194.419 115.534C194.288 115.875 194.223 116.273 194.223 116.727ZM200.967 122.455C200.776 122.455 200.603 122.439 200.447 122.408C200.29 122.379 200.174 122.348 200.097 122.314L200.404 121.27C200.637 121.332 200.844 121.359 201.026 121.351C201.208 121.342 201.369 121.274 201.508 121.146C201.65 121.018 201.775 120.81 201.883 120.52L202.04 120.085L199.646 113.455H201.009L202.667 118.534H202.735L204.393 113.455H205.761L203.063 120.874C202.938 121.214 202.779 121.503 202.586 121.739C202.393 121.977 202.163 122.156 201.896 122.276C201.629 122.395 201.319 122.455 200.967 122.455ZM212.955 120.132C212.31 120.132 211.755 119.994 211.289 119.719C210.826 119.44 210.468 119.05 210.215 118.547C209.965 118.041 209.84 117.449 209.84 116.77C209.84 116.099 209.965 115.509 210.215 114.997C210.468 114.486 210.82 114.087 211.272 113.8C211.726 113.513 212.257 113.369 212.865 113.369C213.235 113.369 213.593 113.43 213.939 113.553C214.286 113.675 214.597 113.866 214.873 114.128C215.148 114.389 215.365 114.729 215.525 115.146C215.684 115.561 215.763 116.065 215.763 116.659V117.111H210.56V116.156H214.515C214.515 115.821 214.446 115.524 214.31 115.266C214.174 115.004 213.982 114.798 213.735 114.648C213.49 114.497 213.203 114.422 212.874 114.422C212.516 114.422 212.203 114.51 211.936 114.686C211.672 114.859 211.468 115.087 211.323 115.368C211.181 115.646 211.11 115.949 211.11 116.276V117.021C211.11 117.459 211.186 117.831 211.34 118.138C211.496 118.445 211.713 118.679 211.992 118.841C212.27 119 212.596 119.08 212.968 119.08C213.209 119.08 213.429 119.045 213.628 118.977C213.827 118.906 213.999 118.801 214.144 118.662C214.289 118.523 214.4 118.351 214.476 118.146L215.682 118.364C215.586 118.719 215.412 119.03 215.162 119.297C214.915 119.561 214.604 119.767 214.229 119.915C213.857 120.06 213.432 120.132 212.955 120.132ZM218.451 116.114V120H217.177V113.455H218.4V114.52H218.481C218.631 114.173 218.867 113.895 219.188 113.685C219.512 113.474 219.92 113.369 220.411 113.369C220.857 113.369 221.248 113.463 221.583 113.651C221.918 113.835 222.178 114.111 222.363 114.477C222.548 114.844 222.64 115.297 222.64 115.837V120H221.366V115.99C221.366 115.516 221.242 115.145 220.995 114.878C220.748 114.608 220.408 114.473 219.977 114.473C219.681 114.473 219.418 114.537 219.188 114.665C218.961 114.793 218.781 114.98 218.647 115.227C218.516 115.472 218.451 115.767 218.451 116.114ZM227.404 113.455V114.477H223.829V113.455H227.404ZM224.788 111.886H226.062V118.078C226.062 118.325 226.099 118.511 226.173 118.636C226.246 118.759 226.342 118.842 226.458 118.888C226.577 118.93 226.707 118.952 226.846 118.952C226.948 118.952 227.038 118.945 227.114 118.93C227.191 118.916 227.251 118.905 227.293 118.896L227.523 119.949C227.45 119.977 227.344 120.006 227.208 120.034C227.072 120.065 226.901 120.082 226.697 120.085C226.362 120.091 226.049 120.031 225.759 119.906C225.469 119.781 225.235 119.588 225.056 119.327C224.877 119.065 224.788 118.737 224.788 118.342V111.886ZM231.564 120.132C230.919 120.132 230.364 119.994 229.898 119.719C229.435 119.44 229.077 119.05 228.824 118.547C228.574 118.041 228.449 117.449 228.449 116.77C228.449 116.099 228.574 115.509 228.824 114.997C229.077 114.486 229.429 114.087 229.881 113.8C230.336 113.513 230.867 113.369 231.475 113.369C231.844 113.369 232.202 113.43 232.549 113.553C232.895 113.675 233.206 113.866 233.482 114.128C233.757 114.389 233.975 114.729 234.134 115.146C234.293 115.561 234.373 116.065 234.373 116.659V117.111H229.169V116.156H233.124C233.124 115.821 233.056 115.524 232.919 115.266C232.783 115.004 232.591 114.798 232.344 114.648C232.1 114.497 231.813 114.422 231.483 114.422C231.125 114.422 230.813 114.51 230.546 114.686C230.282 114.859 230.077 115.087 229.932 115.368C229.79 115.646 229.719 115.949 229.719 116.276V117.021C229.719 117.459 229.796 117.831 229.949 118.138C230.105 118.445 230.323 118.679 230.601 118.841C230.88 119 231.205 119.08 231.577 119.08C231.819 119.08 232.039 119.045 232.238 118.977C232.436 118.906 232.608 118.801 232.753 118.662C232.898 118.523 233.009 118.351 233.086 118.146L234.292 118.364C234.195 118.719 234.022 119.03 233.772 119.297C233.525 119.561 233.213 119.767 232.838 119.915C232.466 120.06 232.042 120.132 231.564 120.132ZM235.786 120V113.455H237.018V114.494H237.086C237.205 114.142 237.415 113.865 237.717 113.663C238.021 113.459 238.364 113.357 238.748 113.357C238.827 113.357 238.921 113.359 239.029 113.365C239.14 113.371 239.227 113.378 239.289 113.386V114.605C239.238 114.591 239.147 114.575 239.016 114.558C238.886 114.538 238.755 114.528 238.624 114.528C238.323 114.528 238.055 114.592 237.819 114.72C237.586 114.845 237.401 115.02 237.265 115.244C237.129 115.466 237.06 115.719 237.06 116.003V120H235.786ZM240.392 120V113.455H241.666V120H240.392ZM241.035 112.445C240.814 112.445 240.623 112.371 240.464 112.223C240.308 112.072 240.23 111.893 240.23 111.686C240.23 111.476 240.308 111.297 240.464 111.149C240.623 110.999 240.814 110.923 241.035 110.923C241.257 110.923 241.446 110.999 241.602 111.149C241.761 111.297 241.841 111.476 241.841 111.686C241.841 111.893 241.761 112.072 241.602 112.223C241.446 112.371 241.257 112.445 241.035 112.445ZM244.654 116.114V120H243.38V113.455H244.603V114.52H244.684C244.835 114.173 245.07 113.895 245.391 113.685C245.715 113.474 246.123 113.369 246.614 113.369C247.06 113.369 247.451 113.463 247.786 113.651C248.121 113.835 248.381 114.111 248.566 114.477C248.751 114.844 248.843 115.297 248.843 115.837V120H247.569V115.99C247.569 115.516 247.445 115.145 247.198 114.878C246.951 114.608 246.612 114.473 246.18 114.473C245.884 114.473 245.621 114.537 245.391 114.665C245.164 114.793 244.984 114.98 244.85 115.227C244.719 115.472 244.654 115.767 244.654 116.114ZM253.296 122.591C252.776 122.591 252.329 122.523 251.954 122.386C251.582 122.25 251.278 122.07 251.042 121.845C250.806 121.621 250.63 121.375 250.513 121.108L251.609 120.656C251.685 120.781 251.788 120.913 251.915 121.053C252.046 121.195 252.222 121.315 252.444 121.415C252.668 121.514 252.957 121.564 253.309 121.564C253.792 121.564 254.191 121.446 254.506 121.21C254.822 120.977 254.979 120.605 254.979 120.094V118.807H254.898C254.822 118.946 254.711 119.101 254.566 119.271C254.424 119.442 254.228 119.589 253.978 119.714C253.728 119.839 253.403 119.902 253.002 119.902C252.485 119.902 252.019 119.781 251.604 119.54C251.192 119.295 250.866 118.936 250.624 118.462C250.386 117.984 250.266 117.398 250.266 116.702C250.266 116.006 250.384 115.409 250.62 114.912C250.859 114.415 251.185 114.034 251.6 113.77C252.015 113.503 252.485 113.369 253.011 113.369C253.417 113.369 253.745 113.438 253.995 113.574C254.245 113.707 254.44 113.864 254.579 114.043C254.721 114.222 254.83 114.379 254.907 114.516H255.001V113.455H256.249V120.145C256.249 120.707 256.119 121.169 255.857 121.53C255.596 121.891 255.242 122.158 254.796 122.331C254.353 122.504 253.853 122.591 253.296 122.591ZM253.283 118.845C253.65 118.845 253.96 118.76 254.212 118.589C254.468 118.416 254.661 118.169 254.792 117.848C254.925 117.524 254.992 117.136 254.992 116.685C254.992 116.244 254.927 115.857 254.796 115.521C254.665 115.186 254.474 114.925 254.221 114.737C253.968 114.547 253.656 114.452 253.283 114.452C252.9 114.452 252.58 114.551 252.325 114.75C252.069 114.946 251.876 115.213 251.745 115.551C251.617 115.889 251.553 116.267 251.553 116.685C251.553 117.114 251.619 117.49 251.749 117.814C251.88 118.138 252.073 118.391 252.329 118.572C252.587 118.754 252.906 118.845 253.283 118.845ZM266.848 111.273H268.169V117.013C268.169 117.624 268.026 118.165 267.739 118.636C267.452 119.105 267.049 119.474 266.529 119.744C266.009 120.011 265.4 120.145 264.701 120.145C264.005 120.145 263.397 120.011 262.877 119.744C262.357 119.474 261.953 119.105 261.667 118.636C261.38 118.165 261.236 117.624 261.236 117.013V111.273H262.553V116.906C262.553 117.301 262.64 117.652 262.813 117.959C262.989 118.266 263.238 118.507 263.559 118.683C263.88 118.857 264.26 118.943 264.701 118.943C265.144 118.943 265.526 118.857 265.847 118.683C266.171 118.507 266.418 118.266 266.588 117.959C266.762 117.652 266.848 117.301 266.848 116.906V111.273ZM270.084 120V111.273H273.195C273.874 111.273 274.436 111.396 274.882 111.643C275.328 111.891 275.662 112.229 275.884 112.658C276.105 113.084 276.216 113.564 276.216 114.098C276.216 114.635 276.104 115.118 275.879 115.547C275.658 115.973 275.322 116.311 274.874 116.561C274.428 116.808 273.866 116.932 273.19 116.932H271.051V115.815H273.071C273.5 115.815 273.848 115.741 274.115 115.594C274.382 115.443 274.578 115.239 274.703 114.98C274.828 114.722 274.891 114.428 274.891 114.098C274.891 113.768 274.828 113.476 274.703 113.22C274.578 112.964 274.381 112.764 274.111 112.619C273.844 112.474 273.491 112.402 273.054 112.402H271.401V120H270.084ZM279.076 111.273V120H277.76V111.273H279.076ZM284.17 120V111.273H287.281C287.96 111.273 288.522 111.396 288.968 111.643C289.414 111.891 289.748 112.229 289.969 112.658C290.191 113.084 290.302 113.564 290.302 114.098C290.302 114.635 290.19 115.118 289.965 115.547C289.744 115.973 289.408 116.311 288.96 116.561C288.513 116.808 287.952 116.932 287.276 116.932H285.137V115.815H287.157C287.586 115.815 287.934 115.741 288.201 115.594C288.468 115.443 288.664 115.239 288.789 114.98C288.914 114.722 288.977 114.428 288.977 114.098C288.977 113.768 288.914 113.476 288.789 113.22C288.664 112.964 288.467 112.764 288.197 112.619C287.93 112.474 287.577 112.402 287.14 112.402H285.487V120H284.17ZM293.162 111.273V120H291.846V111.273H293.162ZM302.124 111.273V120H300.914L296.478 113.599H296.397V120H295.08V111.273H296.299L300.739 117.682H300.82V111.273H302.124Z" fill="#4D4D4E"/>
<defs>
<clipPath id="clip0_23319_59525">
<rect width="26.9689" height="50" fill="white" transform="translate(10.5 91.1504)"/>
</clipPath>
<clipPath id="clip1_23319_59525">
<rect width="18" height="2.5" fill="white" transform="translate(15 106)"/>
</clipPath>
</defs>
</svg>
