<svg width="24" height="25" viewBox="0 0 24 25" fill="none" xmlns="http://www.w3.org/2000/svg">
<path fill-rule="evenodd" clip-rule="evenodd" d="M12.9456 6.04516L10.7394 1.64957C10.5348 1.24192 9.93596 1.29863 9.81152 1.73744L3.8352 22.811C3.69788 23.2952 4.28138 23.656 4.65321 23.3168L9.2321 19.1396L8.19089 22.8111C8.05357 23.2953 8.63705 23.6561 9.00889 23.3169L20.0842 13.2137C20.4152 12.9118 20.505 12.4267 20.304 12.0263L15.0952 1.64946C14.8905 1.24183 14.2917 1.29855 14.1673 1.73735L12.9456 6.04516ZM10.5919 19.8424L11.3354 17.2208L15.7278 13.2137C16.0587 12.9118 16.1485 12.4267 15.9476 12.0263L13.9418 8.03008L14.9085 4.62129L18.4537 11.6838C18.6547 12.0842 18.5649 12.5693 18.2339 12.8712L10.5919 19.8424ZM13.8776 12.8712C14.2085 12.5693 14.2983 12.0842 14.0974 11.6839L13.3359 10.1667L12.3397 8.1818L10.5528 4.62156L6.23629 19.8422L10.0089 16.4005L12.1122 14.4817L13.8776 12.8712Z" fill="var(--primaryColor)"/>
</svg>
